<svg width="110" height="67" viewBox="0 0 110 67" fill="none" xmlns="http://www.w3.org/2000/svg">
<path fill-rule="evenodd" clip-rule="evenodd" d="M23 0C17.4772 0 13 4.47715 13 10V29C13 34.5228 17.4772 39 23 39H30V50.5L36.44 39H85C90.5229 39 95 34.5228 95 29V10C95 4.47715 90.5229 0 85 0H23Z" fill="white"/>
<path d="M33.4819 28V15.1187H37.9517V11.7944H24.9019V15.1187H29.3716V28H33.4819ZM50.5186 24.6758H43.814V11.7944H39.6924V28H50.5186V24.6758ZM58.3911 28V15.1187H62.8608V11.7944H49.811V15.1187H54.2808V28H58.3911ZM82.3906 28V11.7944H77.6289L73.541 22.2051H73.4512L69.3633 11.7944H64.6016V28H68.229V17.8813H68.3188L72.3169 27.8315H74.6753L78.6846 17.8813H78.7632V28H82.3906Z" fill="#6945ED"/>
<path d="M4.42168 63.5V55.3687H7.30986V54.3403H0.390919V55.3687H3.2791V63.5H4.42168ZM11.603 62.6431C10.4541 62.6431 9.73682 61.71 9.73682 60.1992C9.73682 58.6948 10.4541 57.7554 11.603 57.7554C12.752 57.7554 13.501 58.7202 13.501 60.1992C13.501 61.6846 12.7583 62.6431 11.603 62.6431ZM11.3491 56.7842C9.72412 56.7842 8.60693 58.1489 8.60693 60.1992C8.60693 62.2559 9.71143 63.6143 11.3491 63.6143C12.4536 63.6143 13.1519 63.0938 13.501 62.3828H13.5264V63.5H14.5674V56.8984H13.5264V58.0029H13.501C13.1455 57.3174 12.4282 56.7842 11.3491 56.7842ZM18.3591 63.5H19.4636V54.3403H18.3591V63.5ZM24.4169 59.8311V54.3403H23.3124V63.5H24.4169V61.0117L25.0326 60.4277L27.4828 63.5H28.765L25.8134 59.7485L28.6762 56.8984H27.3368L24.4169 59.8311ZM37.5968 62.4717H33.1788V54.3403H32.0362V63.5H37.5968V62.4717ZM43.4388 57.7427C44.4798 57.7427 45.1717 58.5298 45.1971 59.6343H41.6106C41.6805 58.5361 42.4041 57.7427 43.4388 57.7427ZM45.1717 61.6084C44.9876 62.2305 44.3719 62.6558 43.534 62.6558C42.347 62.6558 41.6043 61.8242 41.6043 60.561V60.4976H46.3396V60.0786C46.3396 58.0791 45.2415 56.7842 43.4578 56.7842C41.636 56.7842 40.4681 58.1743 40.4681 60.2246C40.4681 62.3003 41.617 63.6143 43.5086 63.6143C44.9495 63.6143 46.0667 62.7637 46.2571 61.6084H45.1717ZM52.4419 62.5796C51.3057 62.5796 50.563 61.6528 50.563 60.1738C50.563 58.6948 51.3057 57.7554 52.4419 57.7554C53.5908 57.7554 54.3589 58.7202 54.3589 60.1738C54.3589 61.6274 53.5908 62.5796 52.4419 62.5796ZM52.48 65.9883C54.3018 65.9883 55.4634 64.9409 55.4634 63.3667V56.8984H54.4097V58.0093H54.3906C53.9526 57.2412 53.1782 56.7842 52.2451 56.7842C50.5376 56.7842 49.4331 58.1045 49.4331 60.1738C49.4331 62.2241 50.5376 63.5508 52.2197 63.5508C53.1465 63.5508 53.9272 63.0811 54.3335 62.3638H54.3589V63.4048C54.3589 64.3887 53.667 65.0488 52.5244 65.0488C51.6992 65.0488 51.0454 64.6489 50.8296 64.0459H49.6934C49.8774 65.1694 51.0264 65.9883 52.48 65.9883ZM61.8767 62.6431C60.7277 62.6431 60.0104 61.71 60.0104 60.1992C60.0104 58.6948 60.7277 57.7554 61.8767 57.7554C63.0256 57.7554 63.7746 58.7202 63.7746 60.1992C63.7746 61.6846 63.0319 62.6431 61.8767 62.6431ZM61.6228 56.7842C59.9978 56.7842 58.8806 58.1489 58.8806 60.1992C58.8806 62.2559 59.9851 63.6143 61.6228 63.6143C62.7272 63.6143 63.4255 63.0938 63.7746 62.3828H63.8V63.5H64.841V56.8984H63.8V58.0029H63.7746C63.4191 57.3174 62.7019 56.7842 61.6228 56.7842ZM68.6327 63.5H69.7372V54.3403H68.6327V63.5ZM77.1598 63.5V55.3687H80.0479V54.3403H73.129V55.3687H76.0172V63.5H77.1598ZM84.4046 63.6143C86.2264 63.6143 87.4578 62.3003 87.4578 60.1992C87.4578 58.0918 86.2264 56.7842 84.4046 56.7842C82.5765 56.7842 81.345 58.0918 81.345 60.1992C81.345 62.3003 82.5765 63.6143 84.4046 63.6143ZM84.4046 62.6431C83.2366 62.6431 82.4686 61.7544 82.4686 60.1992C82.4686 58.644 83.2366 57.7554 84.4046 57.7554C85.5726 57.7554 86.3343 58.644 86.3343 60.1992C86.3343 61.7544 85.5726 62.6431 84.4046 62.6431ZM100.073 63.5V54.3403H98.7461L95.585 61.9829H95.5342L92.373 54.3403H91.0464V63.5H92.1128V56.4414H92.1572L95.0771 63.4365H96.042L98.9619 56.4414H99.0063V63.5H100.073ZM106.626 57.7427C107.667 57.7427 108.359 58.5298 108.384 59.6343H104.798C104.867 58.5361 105.591 57.7427 106.626 57.7427ZM108.359 61.6084C108.175 62.2305 107.559 62.6558 106.721 62.6558C105.534 62.6558 104.791 61.8242 104.791 60.561V60.4976H109.527V60.0786C109.527 58.0791 108.428 56.7842 106.645 56.7842C104.823 56.7842 103.655 58.1743 103.655 60.2246C103.655 62.3003 104.804 63.6143 106.696 63.6143C108.136 63.6143 109.254 62.7637 109.444 61.6084H108.359Z" fill="white"/>
</svg>
