<svg width="88" height="100" viewBox="0 0 88 100" fill="none" xmlns="http://www.w3.org/2000/svg">
<g opacity="0.1">
<path opacity="0.1" d="M11.3984 37.4168H18.6259L21.5287 41.3696C22.4037 42.5574 24.18 42.5574 25.055 41.3696L27.96 37.4168H60.0506L62.9556 41.3696C63.8306 42.5574 65.6069 42.5574 66.4819 41.3696L69.3847 37.4168H76.6122C79.0294 37.4168 80.9872 35.4568 80.9872 33.0418V11.4227C80.9872 9.00773 79.0294 7.04773 76.6122 7.04773H11.3984C8.98125 7.04773 7.02344 9.00773 7.02344 11.4227V33.0418C7.02344 35.4568 8.98125 37.4168 11.3984 37.4168Z" fill="#2626BC"/>
<path opacity="0.1" d="M86.0037 99.4515L82.3377 82.6036C82.1587 81.7883 81.6436 81.0887 80.9193 80.6755L68.0181 73.3572V70.3676C70.8767 69.0496 72.9076 66.2247 73.0686 62.8841L73.389 56.2403C73.6373 51.0942 69.532 46.7859 64.3798 46.7859C59.2276 46.7859 55.1223 51.0942 55.3706 56.2403L55.6911 62.8841C55.8523 66.2245 57.8827 69.0492 60.7409 70.3674V73.3575L47.8397 80.6757C47.1154 81.089 46.6003 81.7885 46.4213 82.6038L44.0039 93.715L41.5863 82.6036C41.4073 81.7883 40.8922 81.0887 40.1679 80.6755L27.2667 73.3572V70.3676C30.1253 69.0496 32.1562 66.2247 32.3172 62.8841L32.6377 56.2403C32.8859 51.0942 28.7807 46.7859 23.6284 46.7859C18.4762 46.7859 14.3709 51.0942 14.6192 56.2403L14.9397 62.8841C15.1009 66.2245 17.1313 69.0492 19.9895 70.3674V73.3575L7.08831 80.6757C6.36403 81.089 5.84888 81.7885 5.66994 82.6038L2.00391 99.4517H86.0037V99.4515Z" fill="#2626BC"/>
</g>
<path d="M80.9872 6.17273V27.7918C80.9872 30.2068 79.0294 32.1668 76.6122 32.1668H69.3847L66.4819 36.1196C65.6069 37.3074 63.8306 37.3074 62.9556 36.1196L60.0506 32.1668H27.96L25.055 36.1196C24.18 37.3074 22.4037 37.3074 21.5287 36.1196L18.6259 32.1668H11.3984C8.98125 32.1668 7.02344 30.2068 7.02344 27.7918V6.17273C7.02344 3.75773 8.98125 1.79773 11.3984 1.79773H76.6122C79.0294 1.79773 80.9872 3.75773 80.9872 6.17273Z" fill="white"/>
<path d="M15.6797 1.7984H28.5757V24.9295H15.6797V1.7984Z" fill="#7854F7"/>
<path d="M80.9867 6.17273V27.7918C80.9867 30.2068 79.0289 32.1668 76.6117 32.1668H69.3842L66.4814 36.1196C65.6064 37.3074 63.8302 37.3074 62.9552 36.1196L60.0502 32.1668H41.3711V25.0071C41.3711 24.1124 42.3489 23.5502 43.1123 24.0162C44.3592 24.7774 45.8248 25.2149 47.3933 25.2149C51.9542 25.2149 55.6467 21.5071 55.6248 16.9396C55.6052 12.7068 52.022 8.95742 47.7958 8.75617C46.0808 8.67523 44.4752 9.11929 43.1233 9.9396C42.3555 10.4077 41.3711 9.85867 41.3711 8.95742V1.79773H76.6117C79.0289 1.79773 80.9867 3.75773 80.9867 6.17273Z" fill="#7854F7"/>
<path d="M61.9609 13.3712H80.9885V25.3663H61.9609V13.3712Z" fill="white"/>
<path d="M45.2558 94.2015H2.00781L5.67384 77.3536C5.85278 76.5383 6.36794 75.8388 7.09222 75.4255L19.9932 68.1075V63.7089H27.2702V68.1075L40.1712 75.4255C40.8954 75.8388 41.4106 76.5383 41.5895 77.3536L45.2558 94.2015Z" fill="#7854F7"/>
<path d="M37.8993 94.2016H35.1229L33.7072 83.3496C33.6081 82.5949 34.1397 81.9037 34.8944 81.8044C35.6519 81.7053 36.3403 82.2395 36.4394 82.9915L37.8993 94.2016Z" fill="#2626BC"/>
<path d="M13.5513 83.3496L12.1355 94.2016H9.35938L10.8191 82.9915C10.9182 82.2397 11.6068 81.7081 12.3643 81.8043C13.1188 81.9037 13.6504 82.5949 13.5513 83.3496Z" fill="#2626BC"/>
<path d="M14.624 50.9903L14.9444 57.6341C15.1682 62.2699 18.992 65.9136 23.6332 65.9136C28.2744 65.9136 32.0982 62.2699 32.3219 57.6341L32.6424 50.9903C32.8907 45.8442 28.7854 41.5359 23.6332 41.5359C18.4812 41.5359 14.3757 45.8442 14.624 50.9903Z" fill="#7854F7"/>
<path d="M86.0136 94.2016H42.7656L46.4317 77.3537C46.6106 76.5384 47.1257 75.8388 47.85 75.4256L60.7513 68.1075V63.7089H68.0282V68.1075L80.9294 75.4256C81.6537 75.8388 82.1688 76.5384 82.3478 77.3537L86.0136 94.2016Z" fill="white"/>
<path d="M78.661 94.2016H75.8847L74.4689 83.3496C74.3698 82.5949 74.9014 81.9037 75.6561 81.8044C76.4136 81.7053 77.102 82.2395 77.2011 82.9915L78.661 94.2016Z" fill="#2626BC"/>
<path d="M54.3132 83.3495L52.8975 94.2015H50.1211L51.5808 82.9914C51.6799 82.2396 52.3685 81.708 53.1261 81.8043C53.8807 81.9036 54.4123 82.5948 54.3132 83.3495Z" fill="#2626BC"/>
<path d="M55.3818 50.9904L55.7023 57.6343C55.926 62.27 59.7498 65.9137 64.391 65.9137C69.0322 65.9137 72.856 62.27 73.0798 57.6343L73.4002 50.9904C73.6485 45.8443 69.5432 41.536 64.391 41.536C59.2388 41.536 55.1335 45.8443 55.3818 50.9904Z" fill="white"/>
<path d="M11.4102 33.2596H18.0833L20.6596 36.7661C21.2845 37.6171 22.2483 38.1049 23.3038 38.1049C24.3593 38.1049 25.3231 37.6171 25.9481 36.7661L28.5243 33.2596H59.5096L62.0858 36.7661C62.7108 37.6171 63.6746 38.1049 64.73 38.1049C65.7855 38.1049 66.7493 37.6171 67.3743 36.7661L69.9505 33.2596H76.6237C79.6392 33.2596 82.0924 30.8063 82.0924 27.7908V6.17352C82.0924 3.15805 79.6392 0.704773 76.6237 0.704773H72.5412C71.9372 0.704773 71.4474 1.19434 71.4474 1.79852C71.4474 2.40271 71.9372 2.89227 72.5412 2.89227H76.6237C78.433 2.89227 79.9049 4.36424 79.9049 6.17352V27.7908C79.9049 29.6001 78.433 31.0721 76.6237 31.0721H69.3968C69.0488 31.0721 68.7216 31.2379 68.5155 31.5183L65.6116 35.4711C65.4031 35.7546 65.082 35.9174 64.73 35.9174C64.3781 35.9174 64.0569 35.7546 63.8485 35.4711L60.9446 31.5183C60.7385 31.2379 60.4113 31.0721 60.0632 31.0721H42.477V25.0072C42.477 24.9932 42.477 24.9696 42.5107 24.9508C42.5348 24.9372 42.5429 24.9427 42.5547 24.9495C44.0109 25.8385 45.6883 26.3086 47.4057 26.3086C49.9049 26.3086 52.2521 25.3332 54.0148 23.562C55.7783 21.7899 56.7428 19.4363 56.731 16.9343C56.7087 12.1369 52.6465 7.89137 47.8596 7.66343C45.9886 7.5744 44.159 8.03902 42.5663 9.00568C42.5518 9.01421 42.5352 9.02405 42.5057 9.00743C42.4773 8.99146 42.4773 8.97505 42.4773 8.95733V2.89227H66.2394C66.8434 2.89227 67.3332 2.40271 67.3332 1.79852C67.3332 1.19434 66.8434 0.704773 66.2394 0.704773H11.4102C8.39469 0.704773 5.94141 3.15805 5.94141 6.17352V15.6627C5.94141 16.2669 6.43119 16.7564 7.03516 16.7564C7.63913 16.7564 8.12891 16.2669 8.12891 15.6627V6.17352C8.12891 4.36424 9.60088 2.89227 11.4102 2.89227H40.2895V8.95755C40.2895 9.78093 40.7176 10.5126 41.4345 10.9151C42.1417 11.3124 43.0117 11.2966 43.7029 10.8747C44.9202 10.136 46.322 9.78137 47.7559 9.84874C51.418 10.0231 54.5262 13.2726 54.5433 16.945C54.5525 18.8606 53.8142 20.6626 52.4643 22.0189C51.1153 23.3745 49.3187 24.1211 47.4057 24.1211C46.0908 24.1211 44.8076 23.7619 43.6944 23.0822C42.997 22.6568 42.1544 22.6423 41.4402 23.0433C40.7305 23.4414 40.2898 24.1941 40.2898 25.0072V31.0721H27.9711C27.623 31.0721 27.2958 31.2379 27.0897 31.5183L24.1858 35.4711C23.9773 35.7546 23.6562 35.9174 23.3043 35.9174C22.9523 35.9174 22.6312 35.7546 22.4227 35.4711L19.5188 31.5183C19.3127 31.2379 18.9855 31.0721 18.6374 31.0721H11.4102C9.60088 31.0721 8.12891 29.6001 8.12891 27.7908V21.9644C8.12891 21.3602 7.63913 20.8707 7.03516 20.8707C6.43119 20.8707 5.94141 21.3602 5.94141 21.9644V27.7908C5.94141 30.8063 8.39469 33.2596 11.4102 33.2596Z" fill="#2626BC"/>
<path d="M87.0862 93.9675L83.42 77.1192C83.1767 76.0027 82.4662 75.0389 81.4711 74.4756L69.1253 67.4706V65.7906C72.0062 64.2005 74.005 61.2008 74.1745 57.6872L74.495 51.0433C74.6295 48.2525 73.6423 45.6017 71.7149 43.5791C69.7875 41.5564 67.1874 40.4425 64.3933 40.4425C61.5992 40.4425 58.9989 41.5566 57.0715 43.5791C55.1441 45.6017 54.1569 48.2525 54.2917 51.0433L54.6121 57.6872C54.7817 61.2012 56.7808 64.2011 59.6622 65.791V67.4706L47.314 74.4758C46.3202 75.0402 45.6108 76.0036 45.368 77.1192L44.0174 83.3262L42.6668 77.1192C42.4234 76.0018 41.7137 75.038 40.7204 74.4756L28.3748 67.4706V65.7901C31.2553 64.1998 33.2538 61.2005 33.4233 57.687L33.7438 51.0431C33.8783 48.2523 32.8911 45.6015 30.9637 43.5789C29.0363 41.5561 26.4363 40.4423 23.6422 40.4423C20.8481 40.4423 18.2478 41.5564 16.3204 43.5789C14.393 45.6015 13.4058 48.2523 13.5405 51.0431L13.861 57.687C14.0305 61.2003 16.029 64.1998 18.9095 65.7899V67.4704L6.56457 74.475C5.57035 75.0378 4.86072 76.0016 4.61725 77.119L0.951003 93.9673C0.822597 94.5575 1.1971 95.1403 1.78729 95.2687C1.8656 95.2857 1.94369 95.2938 2.02091 95.2938C2.52425 95.2938 2.97729 94.9443 3.08863 94.4324L6.75488 77.584C6.866 77.0744 7.18954 76.6347 7.64344 76.3776L20.5431 69.0583C20.8855 68.864 21.0972 68.5007 21.0972 68.1069V66.671C21.9097 66.8887 22.7623 67.007 23.6424 67.007C24.5224 67.007 25.3751 66.8887 26.1875 66.6713V68.1071C26.1875 68.5009 26.3991 68.8642 26.7416 69.0585L39.642 76.3783C40.0952 76.6349 40.4188 77.0746 40.5297 77.5843L42.9083 88.4242L41.7022 93.9671C41.5738 94.5573 41.9483 95.14 42.5384 95.2685C42.6168 95.2855 42.6948 95.2936 42.7721 95.2936C43.2754 95.2936 43.7284 94.944 43.8398 94.4322L47.506 77.5838C47.6169 77.075 47.9409 76.6351 48.3946 76.3774L61.2965 69.058C61.6388 68.8638 61.8506 68.5004 61.8506 68.1067V66.6713C62.6626 66.8885 63.5146 67.0068 64.3942 67.0068C65.274 67.0068 66.1265 66.8885 66.9387 66.671V68.1067C66.9387 68.5004 67.1502 68.8638 67.4928 69.058L80.3933 76.3779C80.8481 76.6355 81.1725 77.075 81.2832 77.5838L84.9495 94.4322C85.0608 94.944 85.5138 95.2936 86.0172 95.2936C86.0942 95.2936 86.1725 95.2855 86.2508 95.2685C86.8401 95.1405 87.2146 94.5577 87.0862 93.9675ZM16.0458 57.5815L15.7254 50.9377C15.6199 48.7506 16.3937 46.6731 17.9041 45.0881C19.4146 43.503 21.4525 42.63 23.6422 42.63C25.8318 42.63 27.8695 43.503 29.38 45.0881C30.8904 46.6731 31.6644 48.7506 31.5587 50.9377L31.2383 57.5815C31.0423 61.6407 27.7059 64.8202 23.6419 64.8202C19.578 64.8202 16.2416 61.6404 16.0458 57.5815ZM56.7972 57.5815L56.4768 50.9377C56.3713 48.7506 57.145 46.6731 58.6555 45.0881C60.166 43.503 62.2038 42.63 64.3935 42.63C66.5832 42.63 68.6209 43.503 70.1313 45.0881C71.6418 46.6731 72.4158 48.7506 72.3101 50.9377L71.9896 57.5815C71.7936 61.6407 68.4573 64.8202 64.3933 64.8202C60.3294 64.8202 56.9932 61.6404 56.7972 57.5815Z" fill="#2626BC"/>
<path d="M23.2838 17.1061H14.4062C13.8023 17.1061 13.3125 16.6165 13.3125 16.0123C13.3125 15.4081 13.8023 14.9186 14.4062 14.9186H23.2838C23.888 14.9186 24.3775 15.4081 24.3775 16.0123C24.3775 16.6165 23.888 17.1061 23.2838 17.1061Z" fill="#2626BC"/>
<path d="M29.8463 21.5646H14.4062C13.8023 21.5646 13.3125 21.0751 13.3125 20.4709C13.3125 19.8667 13.8023 19.3771 14.4062 19.3771H29.8463C30.4505 19.3771 30.94 19.8667 30.94 20.4709C30.94 21.0749 30.4505 21.5646 29.8463 21.5646Z" fill="#2626BC"/>
<path d="M29.8463 26.0232H14.4062C13.8023 26.0232 13.3125 25.5336 13.3125 24.9294C13.3125 24.3253 13.8023 23.8357 14.4062 23.8357H29.8463C30.4505 23.8357 30.94 24.3253 30.94 24.9294C30.94 25.5336 30.4505 26.0232 29.8463 26.0232Z" fill="#2626BC"/>
<path d="M65.8984 10.0062H74.776C75.3799 10.0062 75.8697 9.5166 75.8697 8.91241C75.8697 8.30823 75.3799 7.81866 74.776 7.81866H65.8984C65.2942 7.81866 64.8047 8.30823 64.8047 8.91241C64.8047 9.5166 65.2945 10.0062 65.8984 10.0062Z" fill="#2626BC"/>
<path d="M60.6484 14.4648H74.776C75.3799 14.4648 75.8697 13.9752 75.8697 13.371C75.8697 12.7668 75.3799 12.2773 74.776 12.2773H60.6484C60.0442 12.2773 59.5547 12.7668 59.5547 13.371C59.5547 13.9752 60.0445 14.4648 60.6484 14.4648Z" fill="#2626BC"/>
<path d="M60.6484 18.9233H74.776C75.3799 18.9233 75.8697 18.4337 75.8697 17.8295C75.8697 17.2253 75.3799 16.7358 74.776 16.7358H60.6484C60.0442 16.7358 59.5547 17.2253 59.5547 17.8295C59.5547 18.4337 60.0445 18.9233 60.6484 18.9233Z" fill="#2626BC"/>
<path d="M66.6758 26.4601C67.2798 26.4601 67.7695 25.9704 67.7695 25.3663C67.7695 24.7623 67.2798 24.2726 66.6758 24.2726C66.0717 24.2726 65.582 24.7623 65.582 25.3663C65.582 25.9704 66.0717 26.4601 66.6758 26.4601Z" fill="#2626BC"/>
<path d="M70.7266 26.4601C71.3306 26.4601 71.8203 25.9704 71.8203 25.3663C71.8203 24.7623 71.3306 24.2726 70.7266 24.2726C70.1225 24.2726 69.6328 24.7623 69.6328 25.3663C69.6328 25.9704 70.1225 26.4601 70.7266 26.4601Z" fill="#2626BC"/>
<path d="M74.7773 26.4601C75.3814 26.4601 75.8711 25.9704 75.8711 25.3663C75.8711 24.7623 75.3814 24.2726 74.7773 24.2726C74.1733 24.2726 73.6836 24.7623 73.6836 25.3663C73.6836 25.9704 74.1733 26.4601 74.7773 26.4601Z" fill="#2626BC"/>
</svg>
