<svg width="24" height="23" viewBox="0 0 24 23" fill="none" xmlns="http://www.w3.org/2000/svg">
<g clip-path="url(#clip0_1342_4876)">
<path d="M4.33125 6.17119C4.75078 5.63334 5.21953 5.13525 5.73516 4.6886C5.86406 4.57869 5.99531 4.47112 6.12656 4.36588C6.21797 4.29339 5.99297 4.46644 6.11016 4.37992C6.14297 4.35419 6.17578 4.33081 6.20859 4.30742C6.27891 4.25598 6.34922 4.20453 6.42188 4.15308C6.70547 3.95431 6.99844 3.76957 7.29844 3.6012C7.63828 3.41178 7.9875 3.24107 8.34609 3.08907C8.28984 3.11246 8.23359 3.13584 8.17734 3.15923C9.02109 2.80612 9.90703 2.56525 10.8141 2.44365C10.7508 2.45301 10.6898 2.46002 10.6266 2.46937C11.5477 2.34777 12.4805 2.35011 13.3992 2.47405C13.3359 2.4647 13.275 2.45768 13.2117 2.44833C14.1117 2.57227 14.9906 2.81079 15.8297 3.1639C15.7734 3.14052 15.7172 3.11713 15.6609 3.09375C16.1367 3.29486 16.5984 3.53105 17.0391 3.80231C17.257 3.9356 17.4727 4.07825 17.6813 4.22791C17.7305 4.26299 17.7797 4.30041 17.8289 4.33782C17.8547 4.35653 17.8781 4.37524 17.9016 4.39395C18.0023 4.46878 17.7586 4.2817 17.857 4.35887C17.9625 4.44072 18.0656 4.5249 18.1664 4.61143C18.5578 4.94115 18.9234 5.30128 19.2609 5.68479C19.343 5.77599 19.4203 5.86953 19.5 5.96541C19.5398 6.01218 19.5773 6.06129 19.6148 6.10805C19.6477 6.14781 19.7203 6.24836 19.5797 6.06362C19.6055 6.09636 19.6289 6.1291 19.6547 6.16184C19.8094 6.36763 19.9547 6.57809 20.093 6.79323C20.4047 7.27963 20.6742 7.79176 20.9016 8.32494C20.8781 8.26881 20.8547 8.21269 20.8312 8.15656C21.1828 8.9914 21.4242 9.87067 21.5484 10.7687C21.5391 10.7055 21.532 10.6447 21.5227 10.5816C21.6469 11.5076 21.6469 12.45 21.5227 13.3761C21.532 13.3129 21.5391 13.2521 21.5484 13.189C21.4242 14.087 21.1852 14.9639 20.8312 15.8011C20.8547 15.7449 20.8781 15.6888 20.9016 15.6327C20.7 16.1074 20.4633 16.5681 20.1914 17.0077C20.0578 17.2252 19.9148 17.4403 19.7648 17.6485C19.7297 17.6976 19.6922 17.7467 19.6547 17.7958C19.6359 17.8215 19.6172 17.8449 19.5984 17.8683C19.5234 17.9688 19.7109 17.7256 19.6336 17.8239C19.5516 17.9291 19.4672 18.032 19.3805 18.1325C19.05 18.5231 18.6891 18.8879 18.3047 19.2246C18.2133 19.3065 18.1195 19.3836 18.0234 19.4631C17.9766 19.5029 17.9273 19.5403 17.8805 19.5777C17.8406 19.6105 17.7398 19.6829 17.925 19.5426C17.8922 19.5684 17.8594 19.5917 17.8266 19.6175C17.6203 19.7718 17.4094 19.9168 17.1937 20.0548C16.7062 20.3658 16.193 20.6347 15.6586 20.8615C15.7148 20.8382 15.7711 20.8148 15.8273 20.7914C14.9906 21.1422 14.1094 21.383 13.2094 21.507C13.2727 21.4976 13.3336 21.4906 13.3969 21.4812C12.4687 21.6052 11.5242 21.6052 10.5961 21.4812C10.6594 21.4906 10.7203 21.4976 10.7836 21.507C9.88359 21.383 9.00469 21.1445 8.16562 20.7914C8.22187 20.8148 8.27813 20.8382 8.33438 20.8615C7.85859 20.6604 7.39687 20.4242 6.95625 20.153C6.73828 20.0197 6.52266 19.877 6.31406 19.7274C6.26484 19.6923 6.21563 19.6549 6.16641 19.6175C6.14062 19.5988 6.11719 19.5801 6.09375 19.5613C5.99297 19.4865 6.23672 19.6736 6.13828 19.5964C6.03281 19.5146 5.92969 19.4304 5.82891 19.3439C5.4375 19.0141 5.07188 18.654 4.73438 18.2705C4.65234 18.1793 4.575 18.0858 4.49531 17.9899C4.45547 17.9431 4.41797 17.894 4.38047 17.8472C4.34766 17.8075 4.275 17.7069 4.41562 17.8917C4.38984 17.8589 4.36641 17.8262 4.34062 17.7935C4.18594 17.5877 4.04063 17.3772 3.90234 17.1621C3.59063 16.6757 3.32109 16.1635 3.09375 15.6304C3.11719 15.6865 3.14062 15.7426 3.16406 15.7987C2.8125 14.9639 2.57109 14.0846 2.44688 13.1866C2.45625 13.2498 2.46328 13.3106 2.47266 13.3737C2.40937 12.9107 2.37891 12.443 2.37891 11.9753C2.37891 11.6082 2.05547 11.2574 1.67578 11.2738C1.29609 11.2901 0.972656 11.5824 0.972656 11.9753C0.975 13.9677 1.52109 15.9531 2.55703 17.6602C3.56016 19.3111 5.00391 20.7002 6.70312 21.6262C8.46328 22.585 10.4859 23.0597 12.4922 22.9638C14.475 22.8703 16.432 22.2506 18.0844 21.1468C19.6945 20.0735 21.0305 18.5862 21.8812 16.8464C22.7672 15.0387 23.1633 13.0019 22.9734 10.9955C22.7883 9.02882 22.0969 7.12062 20.9203 5.52577C19.7766 3.96367 18.2437 2.68919 16.4578 1.91515C15.5461 1.51995 14.6039 1.23466 13.6195 1.09669C12.4711 0.93533 11.332 0.944684 10.1859 1.12475C7.99688 1.47084 5.93437 2.52784 4.34062 4.05954C3.97969 4.40798 3.64453 4.7798 3.33516 5.17734C3.21563 5.33168 3.12891 5.46965 3.12891 5.6731C3.12891 5.84614 3.20625 6.04959 3.33516 6.16885C3.46875 6.29046 3.64453 6.38166 3.83203 6.37464C4.00781 6.36763 4.22109 6.31384 4.33125 6.17119Z" fill="#7854F7"/>
<path d="M12.6953 17.4309C12.6953 16.8814 12.6953 16.3342 12.6953 15.7846C12.6953 15.4175 12.3719 15.0667 11.9922 15.0831C11.6102 15.0994 11.2891 15.3918 11.2891 15.7846C11.2891 16.3342 11.2891 16.8814 11.2891 17.4309C11.2891 17.7981 11.6125 18.1488 11.9922 18.1325C12.3719 18.1161 12.6953 17.8238 12.6953 17.4309Z" fill="#7854F7"/>
<path d="M12.6953 8.12618C12.6953 7.58833 12.6953 7.05048 12.6953 6.51496C12.6953 6.14782 12.3719 5.79705 11.9922 5.81342C11.6102 5.82979 11.2891 6.1221 11.2891 6.51496C11.2891 7.05281 11.2891 7.59067 11.2891 8.12618C11.2891 8.49332 11.6125 8.84409 11.9922 8.82772C12.3719 8.81135 12.6953 8.51904 12.6953 8.12618Z" fill="#7854F7"/>
<path d="M8.76255 14.0191C8.76958 14.6575 9.0227 15.2749 9.4727 15.7309C9.9227 16.1869 10.5297 16.4371 11.1672 16.4815C11.4297 16.5002 11.6946 16.4862 11.9571 16.4862C12.1985 16.4862 12.4422 16.4885 12.6836 16.4862C13.9071 16.4768 15.1094 15.6139 15.3227 14.3722C15.4422 13.6777 15.318 12.9527 14.8915 12.3775C14.4157 11.7414 13.743 11.3626 12.9532 11.269C12.318 11.1942 11.6688 11.3111 11.036 11.234C11.0993 11.2433 11.1602 11.2503 11.2235 11.2597C11.043 11.234 10.8672 11.1895 10.6985 11.1194C10.7547 11.1428 10.811 11.1661 10.8672 11.1895C10.7524 11.1404 10.6422 11.0843 10.5368 11.0141C10.511 10.9978 10.4852 10.9791 10.4594 10.9627C10.3704 10.9019 10.5766 11.0609 10.5157 11.0071C10.4711 10.965 10.4219 10.9276 10.3774 10.8855C10.3375 10.8458 10.3 10.806 10.2625 10.7639C10.225 10.7218 10.1735 10.6306 10.2954 10.8107C10.279 10.785 10.2602 10.7616 10.2415 10.7359C10.1711 10.6353 10.1149 10.5277 10.0657 10.4155C10.0891 10.4716 10.1125 10.5277 10.136 10.5839C10.0727 10.4295 10.0282 10.2728 10.0024 10.1068C10.0118 10.17 10.0188 10.2308 10.0282 10.2939C10.0047 10.1208 10.0071 9.9478 10.0305 9.77241C10.0211 9.83555 10.0141 9.89635 10.0047 9.95949C10.0305 9.80048 10.0727 9.64614 10.1336 9.49647C10.1102 9.5526 10.0868 9.60872 10.0633 9.66484C10.1125 9.5526 10.1688 9.44503 10.2391 9.34447C10.2532 9.32343 10.2672 9.30472 10.2813 9.28601C10.1805 9.44737 10.2157 9.37019 10.2508 9.3281C10.2907 9.28133 10.3305 9.2369 10.375 9.19481C10.4125 9.15739 10.4547 9.12232 10.4946 9.08724C10.593 9.00071 10.3868 9.16441 10.4524 9.11998C10.4782 9.10361 10.5016 9.0849 10.525 9.06853C10.6258 9.00071 10.7336 8.94459 10.8438 8.89548C10.7875 8.91887 10.7313 8.94225 10.675 8.96564C10.8485 8.89314 11.0266 8.84404 11.2141 8.81831C11.1508 8.82767 11.0899 8.83468 11.0266 8.84404C11.3454 8.80428 11.6782 8.82767 11.9993 8.82767C12.311 8.82767 12.6321 8.80662 12.9415 8.84637C12.8782 8.83702 12.8172 8.83001 12.754 8.82065C12.911 8.84404 13.0633 8.88379 13.2133 8.94459C13.1571 8.92121 13.1008 8.89782 13.0446 8.87444C13.15 8.91887 13.2508 8.97031 13.3446 9.03112C13.3704 9.04748 13.3961 9.06619 13.4196 9.08256C13.5086 9.14336 13.3 8.98435 13.361 9.03813C13.4032 9.07555 13.4454 9.11062 13.4852 9.15038C13.5204 9.18545 13.5555 9.22287 13.5883 9.26029C13.6258 9.30472 13.6727 9.39124 13.5532 9.21352C13.5696 9.23924 13.5883 9.26263 13.6047 9.28835C13.668 9.38189 13.7196 9.47777 13.7641 9.58066C13.7407 9.52454 13.7172 9.46841 13.6938 9.41229C13.7524 9.55493 13.7922 9.70226 13.8157 9.8566C13.8063 9.79346 13.7993 9.73266 13.7899 9.66952C13.7993 9.74435 13.804 9.81684 13.804 9.89168C13.8063 10.2588 14.125 10.6096 14.5071 10.5932C14.8844 10.5769 15.2149 10.2845 15.2102 9.89168C15.2032 9.25327 14.95 8.63591 14.5 8.17991C14.05 7.7239 13.4407 7.47369 12.8055 7.42926C12.5524 7.41289 12.2946 7.42458 12.0391 7.42458C11.7883 7.42458 11.5399 7.42224 11.2891 7.42458C10.5719 7.42925 9.8688 7.70753 9.3602 8.21732C8.86098 8.71542 8.56333 9.431 8.60083 10.1372C8.63364 10.7756 8.88911 11.3743 9.33208 11.8373C9.78208 12.3073 10.3844 12.5669 11.0243 12.6417C11.6594 12.7166 12.3086 12.5996 12.9415 12.6768C12.8782 12.6675 12.8172 12.6604 12.754 12.6511C12.9391 12.6768 13.1196 12.7259 13.293 12.7984C13.2368 12.775 13.1805 12.7516 13.1243 12.7283C13.2344 12.7774 13.3422 12.8335 13.443 12.9013C13.4641 12.9153 13.4829 12.9294 13.5016 12.9411C13.6094 13.0159 13.4008 12.8569 13.4594 12.9083C13.504 12.9481 13.5508 12.9855 13.593 13.0276C13.6329 13.065 13.6704 13.1048 13.7055 13.1468C13.7196 13.1632 13.7969 13.2614 13.7196 13.1609C13.6446 13.065 13.7125 13.1539 13.729 13.1772C13.7969 13.2778 13.8555 13.3854 13.9047 13.4976C13.8813 13.4415 13.8579 13.3854 13.8344 13.3292C13.8977 13.4789 13.9399 13.6309 13.9633 13.7923C13.954 13.7291 13.9469 13.6683 13.9375 13.6052C13.961 13.7782 13.961 13.9513 13.9399 14.1267C13.9493 14.0635 13.9563 14.0027 13.9657 13.9396C13.9422 14.1033 13.8977 14.2623 13.8321 14.4166C13.8555 14.3605 13.879 14.3044 13.9024 14.2483C13.8532 14.3605 13.7946 14.4681 13.7266 14.5686C13.7172 14.5827 13.6844 14.6411 13.6727 14.6435C13.6774 14.6435 13.8016 14.4915 13.7149 14.585C13.6727 14.6294 13.6329 14.6762 13.5907 14.7183C13.5508 14.7581 13.5086 14.7931 13.4665 14.8306C13.375 14.9124 13.6141 14.7277 13.511 14.7955C13.4852 14.8118 13.4618 14.8306 13.4336 14.8469C13.3282 14.9147 13.218 14.9732 13.1032 15.0223C13.1594 14.9989 13.2157 14.9755 13.2719 14.9522C13.1032 15.02 12.9274 15.0667 12.7469 15.0925C12.8102 15.0831 12.8711 15.0761 12.9344 15.0667C12.6204 15.1042 12.2946 15.0831 11.9782 15.0831C11.6641 15.0831 11.3383 15.1065 11.0243 15.0644C11.0875 15.0738 11.1485 15.0808 11.2118 15.0901C11.0547 15.0667 10.9024 15.027 10.7524 14.9662C10.8086 14.9896 10.8649 15.013 10.9211 15.0363C10.8157 14.9919 10.7149 14.9405 10.6211 14.8797C10.5954 14.8633 10.5696 14.8446 10.5461 14.8282C10.4571 14.7674 10.6657 14.9264 10.6047 14.8726C10.5625 14.8352 10.5204 14.8002 10.4805 14.7604C10.4454 14.7253 10.4102 14.6879 10.3774 14.6505C10.3399 14.6061 10.293 14.5195 10.4125 14.6973C10.3961 14.6715 10.3774 14.6481 10.361 14.6224C10.2977 14.5289 10.2461 14.433 10.2016 14.3301C10.225 14.3862 10.2485 14.4424 10.2719 14.4985C10.2133 14.3558 10.1735 14.2085 10.15 14.0542C10.1594 14.1173 10.1665 14.1781 10.1758 14.2413C10.1665 14.1664 10.1618 14.0939 10.1618 14.0191C10.1594 13.652 9.84067 13.3012 9.45864 13.3176C9.08833 13.3339 8.7602 13.6262 8.76255 14.0191Z" fill="#7854F7"/>
<path d="M6.79766 5.31298C5.81328 5.31298 4.82891 5.31298 3.84688 5.31298C3.70859 5.31298 3.56797 5.31298 3.42969 5.31298C3.66406 5.54683 3.89844 5.78068 4.13281 6.01453C4.13281 5.03236 4.13281 4.0502 4.13281 3.07037C4.13281 2.9324 4.13281 2.79209 4.13281 2.65412C4.13281 2.28698 3.80938 1.93621 3.42969 1.95258C3.04766 1.96895 2.72656 2.26126 2.72656 2.65412C2.72656 3.63629 2.72656 4.61845 2.72656 5.59828C2.72656 5.73625 2.72656 5.87656 2.72656 6.01453C2.72656 6.39336 3.04766 6.71607 3.42969 6.71607C4.41406 6.71607 5.39844 6.71607 6.38047 6.71607C6.51875 6.71607 6.65937 6.71607 6.79766 6.71607C7.16563 6.71607 7.51719 6.39336 7.50078 6.01453C7.48438 5.63569 7.19141 5.31298 6.79766 5.31298Z" fill="#7854F7"/>
</g>
<defs>
<clipPath id="clip0_1342_4876">
<rect width="24" height="22.9213" fill="white"/>
</clipPath>
</defs>
</svg>
