<svg width="138" height="138" viewBox="0 0 138 138" fill="none" xmlns="http://www.w3.org/2000/svg">
<g clip-path="url(#clip0_1350_1403)">
<path d="M116.438 101.128C116.438 127.219 95.3063 127.219 69 127.219C42.6938 127.219 21.5625 127.219 21.5625 101.128C21.5625 75.0375 42.9094 32.3438 69 32.3438C95.0906 32.3438 116.438 74.8219 116.438 101.128Z" fill="#DBB471"/>
<path opacity="0.5" d="M116.43 101.128C116.43 92.2875 114.059 81.5063 109.746 71.1562C110.609 77.8406 108.884 89.7 88.3992 94.2281C59.2898 100.481 74.3836 108.675 62.9555 109.753C53.2523 110.616 27.3773 106.734 22.2023 92.0719C21.7711 95.3063 21.3398 98.325 21.3398 101.344C21.5555 127.219 42.9023 127.219 68.993 127.219C95.0836 127.219 116.43 127.219 116.43 101.128Z" fill="#89664C"/>
<path d="M81.7094 88.6228C80.8469 84.3103 77.1813 83.0165 73.3 82.8009V76.7634C74.3781 77.1946 75.6719 77.8415 76.5344 78.4884C78.2594 79.5665 79.9844 76.7634 78.2594 75.6853C76.75 74.8228 75.025 73.9603 73.3 73.3134V66.1978C73.3 64.0415 70.0656 64.0415 70.0656 66.1978V72.4509C68.3406 72.2353 66.6156 72.2353 64.8906 72.4509C64.675 70.9415 64.2438 69.4321 63.8125 67.9228C63.3813 65.7665 60.1469 66.629 60.7938 68.7853C61.225 70.2946 61.4406 71.804 61.8719 73.3134C61.6563 73.3134 61.6563 73.3134 61.4406 73.529C57.1281 75.254 54.325 79.5665 57.5594 83.6634C59.0688 85.604 61.0094 86.2509 63.1656 86.6821C63.3813 89.4853 63.3813 92.2884 63.3813 95.0915C61.8719 94.229 60.5781 92.9353 59.5 91.8571C57.9906 90.3478 55.8344 92.7196 57.1281 94.229C59.0688 96.3853 61.225 97.8946 63.3813 98.9728C63.3813 101.345 63.5969 103.717 63.8125 106.088C64.0281 108.245 67.2625 108.245 67.0469 106.088C66.8313 103.932 66.6156 101.992 66.6156 99.8353C67.9094 100.051 69.2031 100.051 70.4969 100.051C70.7125 102.207 70.9281 104.363 71.1438 106.735C71.3594 108.892 74.5938 108.892 74.3781 106.735C74.1625 104.363 73.9469 101.992 73.7313 99.404C78.475 97.679 82.7875 94.0134 81.7094 88.6228ZM70.0656 75.6853V82.8009C68.9875 82.8009 68.125 83.0165 67.2625 83.0165H66.1844L65.5375 75.254C67.0469 75.254 68.5563 75.4696 70.0656 75.6853ZM62.3031 82.5853C61.4406 82.3696 60.5781 81.7228 59.7156 81.0759C57.775 79.1353 60.5781 77.4103 62.3031 76.5478C62.5188 78.704 62.7344 80.6446 62.95 82.8009C62.7344 82.8009 62.5188 82.8009 62.3031 82.5853ZM69.4188 96.3853C68.3406 96.6009 67.4781 96.3853 66.6156 96.1696C66.4 92.9353 66.4 89.7009 66.4 86.2509C67.6938 86.2509 68.9875 86.0353 70.2813 86.0353C70.2813 89.4853 70.4969 92.7196 70.4969 96.1696C70.0656 96.3853 69.85 96.3853 69.4188 96.3853ZM76.5344 94.0134C75.6719 94.6603 74.5938 95.0915 73.7313 95.5228C73.5156 92.2884 73.5156 89.2696 73.5156 86.0353H74.5938C78.6906 86.8978 79.7688 91.4259 76.5344 94.0134Z" fill="#89664C"/>
<path d="M73.307 118.594H68.3477V127.219L88.4008 138L133.682 123.984V116.438L117.079 106.734L73.307 118.594Z" fill="#699635"/>
<path d="M69 113.634C69 113.634 74.175 122.044 88.8375 129.375C88.8375 129.375 111.694 128.297 133.688 113.634C133.688 113.634 120.966 107.381 117.3 99.1875C117.3 99.1875 108.675 111.263 69 113.634Z" fill="#83BF4F"/>
<path d="M59.3039 118.377L64.0476 118.162L64.6945 126.14L45.9352 137.999L0.869531 128.296L0.222656 121.18L15.532 110.615L59.3039 118.377Z" fill="#699635"/>
<path d="M62.9625 113.419C62.9625 113.419 58.4344 121.828 44.85 129.806C44.85 129.806 22.6406 130.453 0 118.594C0 118.594 12.075 111.694 14.8781 103.5C14.8781 103.5 24.3656 114.281 62.9625 113.419Z" fill="#83BF4F"/>
<path d="M52.1867 115.79C52.1867 115.79 51.5398 117.515 54.5586 117.73L46.5805 124.415C46.5805 124.415 41.8367 123.984 40.7586 127.218C40.7586 127.218 21.3523 125.062 8.84609 119.455C8.84609 119.455 11.4336 117.515 8.19922 116.221C8.19922 116.221 11.8648 113.634 12.7273 111.262C12.7273 111.262 16.1773 111.693 17.2555 109.105C17.6867 108.89 30.6242 116.652 52.1867 115.79V115.79Z" stroke="#699635" stroke-width="0.375" stroke-miterlimit="10"/>
<path d="M18.968 118.809C21.2306 118.809 23.0648 117.554 23.0648 116.006C23.0648 114.458 21.2306 113.203 18.968 113.203C16.7053 113.203 14.8711 114.458 14.8711 116.006C14.8711 117.554 16.7053 118.809 18.968 118.809Z" fill="#699635"/>
<path d="M40.9742 112.555C40.9742 112.555 36.0148 119.024 25.2336 127.864L25.8805 133.686L18.3336 131.961L17.9023 125.708C17.9023 125.708 28.8992 115.574 31.2711 110.614C31.0555 110.614 34.9367 111.908 40.9742 112.555Z" fill="#F9F3D9"/>
<path d="M90.7891 111.046C90.7891 111.046 92.7297 116.221 107.392 125.709V131.962L115.802 129.374V122.906C115.802 122.906 105.667 115.79 99.6297 108.674L90.7891 111.046Z" fill="#F9F3D9"/>
<path d="M78.4875 104.148L73.7438 103.932L73.3125 112.773L92.5031 125.063L137.569 112.773L137.784 105.01L122.044 94.0132L78.4875 104.148Z" fill="#699635"/>
<path d="M74.6133 98.7562C74.6133 98.7562 79.357 107.812 93.3727 116.006C93.3727 116.006 115.798 116.006 138.007 102.206C138.007 102.206 125.716 95.0906 122.698 86.25C122.698 86.25 113.426 98.325 74.6133 98.7562Z" fill="#83BF4F"/>
<path d="M84.3094 101.129C84.3094 101.129 85.3875 102.854 81.9375 103.501L90.9938 110.616C90.9938 110.616 96.1688 109.323 97.8938 112.341C97.8938 112.341 119.456 108.46 129.375 103.285C129.375 103.285 126.141 101.776 129.375 99.8351C129.375 99.8351 125.494 96.6007 123.984 94.4444C123.984 94.4444 120.319 95.5226 118.378 92.9351C118.378 93.1507 110.616 100.051 84.3094 101.129V101.129Z" stroke="#699635" stroke-width="0.375" stroke-miterlimit="10"/>
<path d="M100.92 106.519C100.058 107.597 97.2544 108.028 94.8825 107.381C92.5107 106.734 91.4325 105.225 92.295 104.147C93.1575 103.069 95.9607 102.638 98.3325 103.284C100.704 103.931 101.783 105.225 100.92 106.519Z" fill="#699635"/>
<path d="M96.6055 97.0306C96.6055 97.0306 101.78 103.931 112.777 113.202L112.562 119.671L120.109 117.515L120.324 110.615C120.324 110.615 109.112 99.8337 106.309 94.6587C106.524 94.6587 102.859 96.1681 96.6055 97.0306Z" fill="#F9F3D9"/>
<path d="M99.1875 4.3125C99.1875 17.4656 82.1531 38.8125 69 38.8125C55.8469 38.8125 38.8125 19.6219 38.8125 6.46875C38.8125 -6.68437 40.7531 6.46875 53.9062 6.46875C55.8469 6.46875 64.9031 0 69 0C71.8031 0 79.7812 6.46875 84.0938 6.46875C95.5219 6.46875 99.1875 -5.60625 99.1875 4.3125Z" fill="#DBB471"/>
<path d="M65.1261 28.6789C63.8323 29.5414 57.5792 28.8945 55.6386 30.4039C53.0511 32.3445 56.7167 36.8726 54.1292 39.6758C48.9542 44.8508 44.8573 50.6726 46.1511 53.907C48.3073 59.5133 52.4042 43.557 56.0698 49.5945C59.7355 55.632 59.0886 45.4976 64.6948 50.6726C70.3011 55.8476 65.5573 41.4008 70.948 47.6539C76.3386 53.907 76.5542 61.0226 80.4355 61.0226C84.9636 61.0226 75.6917 43.9883 81.7292 48.0851C87.7667 52.182 94.4511 50.6726 88.4136 44.4195C86.4729 42.4789 83.8855 39.0289 80.8667 36.0101C79.7886 34.932 80.6511 29.3258 79.573 28.4633C78.2792 27.3851 75.0448 30.8351 73.7511 30.1883C71.1636 28.8945 72.0261 31.2664 68.1448 31.9133C65.5573 32.7758 67.7136 26.9539 65.1261 28.6789Z" fill="#89664C"/>
<path d="M40.3176 41.3986C48.727 33.4205 64.0363 37.9486 73.0926 41.8299C81.9332 45.7111 87.3238 33.4205 81.7176 27.1674C78.4832 23.5018 73.3082 27.8143 71.3676 30.4018C69.2113 32.9893 67.4863 35.7924 65.1144 38.3799C61.6644 42.2611 53.2551 39.0268 55.8426 33.6361C58.6457 28.0299 70.5051 34.4986 74.3863 35.5768C81.9332 37.733 89.9113 38.5955 97.4582 35.7924C100.046 34.9299 98.9676 30.6174 96.3801 31.6955C87.9707 34.7143 79.5613 32.7736 71.5832 30.1861C67.4863 28.8924 61.0176 25.4424 56.7051 27.383C44.4144 33.2049 55.8426 49.808 66.1926 43.3393C68.5644 41.8299 70.0738 39.458 71.7988 37.3018C72.8769 36.008 78.2676 27.8143 79.5613 31.9111C80.2082 34.0674 79.5613 37.9486 77.1894 38.5955C75.6801 39.2424 72.6613 37.0861 71.1519 36.6549C68.3488 35.5768 65.5457 34.7143 62.5269 34.0674C54.5488 32.3424 43.7676 32.7736 37.5144 38.5955C35.3582 40.3205 38.377 43.3393 40.3176 41.3986Z" fill="#E8E8E8"/>
<path d="M96.6 1.07812C94.4437 2.80313 90.5625 6.46875 84.0938 6.46875C79.7812 6.46875 71.8031 0 69 0C64.9031 0 55.8469 6.46875 53.9062 6.46875C46.7906 6.46875 42.9094 2.80313 40.9688 1.29375C40.9688 1.29375 43.3406 10.9969 50.6719 15.9563C56.0625 19.4062 55.4156 15.3094 58.2188 11.4281C61.0219 7.54688 62.9625 5.60625 67.9219 15.3094C70.5094 20.7 75.4688 0.646875 79.35 7.11562C86.4656 18.975 89.0531 12.5063 96.6 1.07812Z" fill="#89664C"/>
<path d="M112.97 112.988L112.754 119.457L120.301 117.301L120.516 110.401C120.516 110.617 115.988 112.342 112.97 112.988Z" fill="#DBB471"/>
<path d="M107.363 125.926V132.179L115.773 129.592V123.123C115.557 122.907 113.401 124.201 107.363 125.926Z" fill="#DBB471"/>
<path d="M25.221 127.652L25.8679 133.689L18.321 131.964L17.8898 125.711C17.6741 125.711 20.6929 126.789 25.221 127.652Z" fill="#DBB471"/>
</g>
<defs>
<clipPath id="clip0_1350_1403">
<rect width="138" height="138" fill="white"/>
</clipPath>
</defs>
</svg>
