<svg width="24" height="24" viewBox="0 0 24 24" fill="none" xmlns="http://www.w3.org/2000/svg">
<path fill-rule="evenodd" clip-rule="evenodd" d="M12.7494 2C12.7494 1.58579 12.4136 1.25 11.9994 1.25C11.5852 1.25 11.2494 1.58579 11.2494 2V10.1893L9.52974 8.46967C9.23685 8.17678 8.76197 8.17678 8.46908 8.46967C8.17619 8.76256 8.17619 9.23744 8.46908 9.53033L11.4691 12.5303C11.762 12.8232 12.2368 12.8232 12.5297 12.5303L15.5297 9.53033C15.8226 9.23744 15.8226 8.76256 15.5297 8.46967C15.2368 8.17678 14.762 8.17678 14.4691 8.46967L12.7494 10.1893V2ZM8.57837 3.25L8.62251 3.25H8.74941C9.16362 3.25 9.49941 3.58579 9.49941 4C9.49941 4.41421 9.16362 4.75 8.74941 4.75H8.62251C7.8543 4.75 7.34436 4.75125 6.95636 4.79764C6.58839 4.84164 6.41523 4.91829 6.2917 5.01474C6.16816 5.11119 6.05181 5.2606 5.91987 5.60691C5.78076 5.97207 5.65587 6.46648 5.46955 7.21176L4.26065 12.0473C4.10501 12.6699 4.03723 12.9432 3.99128 13.2161L3.98565 13.25H6.19693L6.30388 13.2499C6.91342 13.2494 7.39332 13.249 7.83668 13.404C8.10574 13.498 8.35854 13.6333 8.58604 13.805C8.9609 14.088 9.22677 14.4875 9.56446 14.995L9.62374 15.084C10.0499 15.7232 10.1717 15.888 10.317 15.9977C10.4204 16.0758 10.5353 16.1373 10.6576 16.18C10.8296 16.2401 11.0343 16.25 11.8025 16.25H12.1969C12.9651 16.25 13.1699 16.2401 13.3418 16.18C13.4641 16.1373 13.579 16.0758 13.6824 15.9977C13.8277 15.888 13.9495 15.7232 14.3757 15.084L14.4349 14.9949C14.7726 14.4875 15.0385 14.088 15.4134 13.805C15.6409 13.6333 15.8937 13.498 16.1627 13.404C16.6061 13.249 17.086 13.2494 17.6955 13.2499L17.8025 13.25H20.0132L20.0075 13.2161C19.9616 12.9432 19.8938 12.6699 19.7382 12.0473L18.5293 7.21176C18.3429 6.46648 18.2181 5.97207 18.0789 5.60691C17.947 5.2606 17.8307 5.11119 17.7071 5.01474C17.5836 4.91829 17.4104 4.84164 17.0425 4.79764C16.6545 4.75125 16.1445 4.75 15.3763 4.75H15.2494C14.8352 4.75 14.4994 4.41421 14.4994 4C14.4994 3.58579 14.8352 3.25 15.2494 3.25H15.3763L15.4204 3.25C16.1328 3.24997 16.733 3.24995 17.2206 3.30825C17.7382 3.37015 18.2112 3.5053 18.6302 3.83244C19.0492 4.15957 19.2951 4.58574 19.4807 5.07289C19.6555 5.53174 19.801 6.11407 19.9738 6.80511L19.9845 6.84796L21.1934 11.6835L21.2017 11.7169C21.3468 12.2971 21.4299 12.6295 21.4867 12.967C21.5985 13.6309 21.6333 14.3055 21.5904 14.9774C21.5686 15.319 21.5202 15.6581 21.4356 16.2503L21.4307 16.2842L21.4119 16.4161C21.2433 17.598 21.1355 18.3538 20.8467 18.9825C20.2753 20.2267 19.1948 21.1637 17.8824 21.5535C17.2191 21.7504 16.4557 21.7503 15.2619 21.75L15.1286 21.75H8.87023L8.73694 21.75C7.5431 21.7503 6.77972 21.7504 6.11643 21.5535C4.80398 21.1637 3.72352 20.2267 3.1521 18.9825C2.86331 18.3538 2.75552 17.598 2.58694 16.4161L2.56811 16.2842L2.56325 16.2502C2.47865 15.6581 2.4302 15.3189 2.4084 14.9774C2.36551 14.3055 2.40031 13.6309 2.5121 12.967C2.56894 12.6295 2.65203 12.2971 2.79712 11.7168L2.80544 11.6835L4.01434 6.84795L4.02504 6.80513C4.19778 6.11408 4.34334 5.53174 4.51815 5.07289C4.70374 4.58574 4.94959 4.15957 5.36858 3.83244C5.78757 3.5053 6.26064 3.37015 6.77826 3.30825C7.2658 3.24995 7.86606 3.24997 8.57837 3.25ZM3.90535 14.8818C3.90255 14.8379 3.90014 14.7939 3.89814 14.75H6.19693C6.96514 14.75 7.16986 14.7599 7.34176 14.82C7.46406 14.8627 7.57898 14.9242 7.68238 15.0023C7.82773 15.112 7.94954 15.2768 8.37567 15.916L8.43494 16.005C8.77264 16.5125 9.0385 16.912 9.41337 17.195C9.64086 17.3667 9.89367 17.502 10.1627 17.596C10.6061 17.751 11.086 17.7506 11.6955 17.7501L11.8025 17.75H12.1969L12.3039 17.7501C12.9134 17.7506 13.3933 17.751 13.8367 17.596C14.1057 17.502 14.3585 17.3667 14.586 17.195C14.9609 16.912 15.2268 16.5125 15.5645 16.0051L15.6237 15.916C16.0499 15.2768 16.1717 15.112 16.317 15.0023C16.4204 14.9242 16.5353 14.8627 16.6576 14.82C16.8296 14.7599 17.0343 14.75 17.8025 14.75H20.1007C20.0987 14.7939 20.0963 14.8379 20.0935 14.8818C20.0758 15.158 20.0365 15.4368 19.9458 16.0721C19.7516 17.4313 19.6695 17.9517 19.4836 18.3565C19.0926 19.2077 18.3534 19.8489 17.4554 20.1155C17.0284 20.2423 16.5017 20.25 15.1286 20.25H8.87023C7.49716 20.25 6.97039 20.2423 6.54343 20.1155C5.64544 19.8489 4.90618 19.2077 4.5152 18.3565C4.32931 17.9517 4.24721 17.4313 4.05303 16.0721C3.96228 15.4368 3.92298 15.158 3.90535 14.8818Z" fill="#7854F7"/>
</svg>
