<svg width="40" height="14" viewBox="0 0 40 14" fill="none" xmlns="http://www.w3.org/2000/svg">
<path d="M26.0469 0.0195312C23.2096 0.0195312 20.6741 1.49789 20.6741 4.22927C20.6741 7.36165 25.171 7.578 25.171 9.15162C25.171 9.8142 24.4156 10.4073 23.1255 10.4073C21.2946 10.4073 19.9261 9.57856 19.9261 9.57856L19.3406 12.3348C19.3406 12.3348 20.917 13.0349 23.01 13.0349C26.112 13.0349 28.553 11.4839 28.553 8.70585C28.553 5.39592 24.0374 5.186 24.0374 3.72542C24.0374 3.20638 24.6575 2.63767 25.9439 2.63767C27.3953 2.63767 28.5796 3.24041 28.5796 3.24041L29.1526 0.578318C29.1526 0.578318 27.8641 0.0195312 26.0469 0.0195312ZM0.088234 0.220444L0.0195312 0.622268C0.0195312 0.622268 1.21319 0.841875 2.28828 1.27994C3.67255 1.78227 3.77116 2.07471 4.00429 2.98299L6.54473 12.8277H9.9502L15.1966 0.220444H11.7989L8.42781 8.79217L7.05219 1.52637C6.92603 0.694808 6.28701 0.220444 5.50482 0.220444H0.088234ZM16.5628 0.220444L13.8975 12.8277H17.1374L19.7934 0.220444H16.5628ZM34.6332 0.220444C33.8519 0.220444 33.438 0.640919 33.1342 1.37569L28.3875 12.8277H31.7852L32.4425 10.919H36.5819L36.9816 12.8277H39.9795L37.3641 0.220444H34.6332ZM35.0751 3.62653L36.0822 8.35739H33.3841L35.0751 3.62653Z" fill="#1434CB"/>
</svg>
