<svg width="22" height="18" viewBox="0 0 22 18" fill="none" xmlns="http://www.w3.org/2000/svg">
<path d="M21.9995 2.11613C21.1814 2.475 20.3096 2.71288 19.4008 2.82838C20.3358 2.27013 21.0494 1.39287 21.3849 0.3355C20.5131 0.85525 19.5506 1.22238 18.5249 1.42725C17.6971 0.545875 16.5174 0 15.2304 0C12.7334 0 10.7231 2.02675 10.7231 4.51137C10.7231 4.86888 10.7534 5.21263 10.8276 5.53988C7.07801 5.357 3.76014 3.55988 1.53126 0.82225C1.14214 1.49738 0.913887 2.27012 0.913887 3.102C0.913887 4.664 1.71826 6.04862 2.91726 6.85025C2.19264 6.8365 1.48176 6.62613 0.879512 6.29475C0.879512 6.3085 0.879512 6.32638 0.879512 6.34425C0.879512 8.536 2.44289 10.3565 4.49301 10.7759C4.12589 10.8763 3.72576 10.9244 3.31051 10.9244C3.02176 10.9244 2.73026 10.9079 2.45664 10.8474C3.04101 12.6335 4.69926 13.9466 6.67101 13.9893C5.13651 15.1896 3.18814 15.9129 1.07889 15.9129C0.709012 15.9129 0.354262 15.8964 -0.000488281 15.851C1.99739 17.1394 4.36514 17.875 6.91851 17.875C15.218 17.875 19.7555 11 19.7555 5.04075C19.7555 4.84137 19.7486 4.64887 19.739 4.45775C20.6341 3.8225 21.3863 3.02913 21.9995 2.11613Z" fill="#7854F7"/>
</svg>
