<svg width="380" height="295" viewBox="0 0 380 295" fill="none" xmlns="http://www.w3.org/2000/svg">
<path d="M166.206 206.54C166.506 203.818 168.958 201.842 171.692 202.143C174.426 202.444 176.39 204.894 176.089 207.628C175.789 210.35 173.338 212.326 170.604 212.025C167.869 211.724 165.905 209.274 166.206 206.54Z" fill="#FFE031"/>
<path d="M139.722 203.623C140.021 200.901 142.473 198.925 145.207 199.226C147.929 199.526 149.905 201.977 149.604 204.711C149.304 207.433 146.853 209.41 144.119 209.109C141.397 208.809 139.42 206.357 139.722 203.623Z" fill="#FFE031"/>
<path d="M113.237 200.706C113.537 197.984 115.988 196.008 118.723 196.309C121.457 196.61 123.421 199.06 123.12 201.795C122.82 204.517 120.369 206.493 117.634 206.192C114.9 205.891 112.936 203.441 113.237 200.706Z" fill="#FFE031"/>
<path d="M86.765 197.791C87.0648 195.069 89.5163 193.093 92.2506 193.394C94.9849 193.695 96.9488 196.145 96.6477 198.879C96.3479 201.601 93.8965 203.577 91.1622 203.276C88.4279 202.975 86.4639 200.525 86.765 197.791Z" fill="#1D262D"/>
<path d="M60.2801 194.874C60.5799 192.152 63.0314 190.176 65.7657 190.477C68.4877 190.777 70.464 193.228 70.1628 195.962C69.8631 198.684 67.4116 200.661 64.6773 200.36C61.943 200.058 59.979 197.608 60.2801 194.874Z" fill="#FFE031"/>
<path d="M33.7958 191.957C34.0956 189.235 36.547 187.259 39.2813 187.56C42.0156 187.861 43.9796 190.311 43.6785 193.046C43.3787 195.768 40.9272 197.744 38.1929 197.443C35.4587 197.142 33.4947 194.692 33.7958 191.957Z" fill="#FFE031"/>
<path d="M7.31143 189.04C7.61121 186.318 10.0627 184.342 12.797 184.643C15.5312 184.944 17.4952 187.395 17.1941 190.129C16.8943 192.851 14.4428 194.827 11.7086 194.526C8.97428 194.225 7.0103 191.775 7.31143 189.04Z" fill="#1D262D"/>
<path d="M168.459 186.087C168.158 188.816 170.127 191.272 172.856 191.573C175.585 191.873 178.041 189.905 178.342 187.176C178.642 184.447 176.673 181.991 173.944 181.69C171.215 181.39 168.759 183.358 168.459 186.087Z" fill="#FFE031"/>
<path d="M141.974 183.171C142.274 180.449 144.725 178.472 147.46 178.773C150.182 179.073 152.158 181.525 151.857 184.259C151.557 186.981 149.105 188.957 146.371 188.656C143.649 188.356 141.674 185.893 141.974 183.171Z" stroke="#FFE031" stroke-miterlimit="10"/>
<path d="M115.49 180.254C115.189 182.983 117.158 185.439 119.887 185.739C122.616 186.04 125.072 184.071 125.372 181.342C125.673 178.613 123.704 176.157 120.975 175.857C118.246 175.556 115.79 177.525 115.49 180.254Z" fill="#FFE031"/>
<path d="M89.0053 177.337C88.7047 180.066 90.6734 182.522 93.4024 182.823C96.1314 183.123 98.5874 181.154 98.8879 178.425C99.1885 175.696 97.2198 173.24 94.4908 172.94C91.7618 172.639 89.3058 174.608 89.0053 177.337Z" fill="#FFE031"/>
<path d="M62.5326 174.422C62.8324 171.7 65.2838 169.723 68.0181 170.024C70.7401 170.324 72.7164 172.776 72.4153 175.51C72.1155 178.232 69.664 180.208 66.9297 179.907C64.1954 179.606 62.2328 177.144 62.5326 174.422Z" fill="#FFE031"/>
<path d="M36.036 171.503C35.7355 174.232 37.7042 176.688 40.4332 176.989C43.1622 177.29 45.6181 175.321 45.9187 172.592C46.2192 169.863 44.2506 167.407 41.5216 167.106C38.7925 166.806 36.3366 168.774 36.036 171.503Z" stroke="#FFE031" stroke-miterlimit="10"/>
<path d="M9.55166 168.587C9.25111 171.316 11.2198 173.772 13.9488 174.072C16.6778 174.373 19.1338 172.404 19.4343 169.675C19.7349 166.946 17.7662 164.49 15.0372 164.19C12.3082 163.889 9.85221 165.858 9.55166 168.587Z" fill="#FFE031"/>
<path d="M170.712 165.623C170.412 168.352 172.38 170.808 175.109 171.109C177.838 171.409 180.294 169.441 180.595 166.712C180.896 163.983 178.927 161.527 176.198 161.226C173.469 160.926 171.013 162.894 170.712 165.623Z" fill="#FFE031"/>
<path d="M144.228 162.707C144.528 159.985 146.979 158.008 149.713 158.31C152.435 158.609 154.412 161.061 154.111 163.795C153.809 166.529 151.359 168.493 148.625 168.192C145.903 167.892 143.927 165.441 144.228 162.707Z" fill="#FFE031"/>
<path d="M117.744 159.79C117.443 162.519 119.412 164.975 122.141 165.275C124.87 165.576 127.326 163.607 127.626 160.878C127.927 158.149 125.958 155.693 123.229 155.393C120.5 155.092 118.044 157.061 117.744 159.79Z" fill="#FFE031"/>
<path d="M91.2587 156.873C90.9581 159.602 92.9268 162.058 95.6558 162.359C98.3849 162.659 100.841 160.69 101.141 157.961C101.442 155.232 99.4732 152.776 96.7442 152.476C94.0152 152.175 91.5592 154.144 91.2587 156.873Z" fill="#FFE031"/>
<path d="M64.7865 153.958C65.0863 151.236 67.5377 149.259 70.272 149.561C72.994 149.86 74.9703 152.312 74.6692 155.046C74.3681 157.78 71.9179 159.744 69.1836 159.443C66.4493 159.142 64.4854 156.692 64.7865 153.958Z" fill="#1D262D"/>
<path d="M38.2899 151.04C37.9894 153.769 39.9581 156.225 42.6871 156.525C45.4161 156.826 47.8721 154.857 48.1726 152.128C48.4732 149.399 46.5045 146.943 43.7755 146.642C41.0464 146.342 38.5905 148.311 38.2899 151.04Z" fill="#FFE031"/>
<path d="M11.8051 148.123C11.5045 150.852 13.4732 153.308 16.2022 153.608C18.9312 153.909 21.3872 151.94 21.6877 149.211C21.9883 146.482 20.0196 144.026 17.2906 143.726C14.5616 143.425 12.1056 145.394 11.8051 148.123Z" fill="#FFE031"/>
<path d="M172.966 145.159C172.666 147.888 174.634 150.344 177.363 150.644C180.092 150.945 182.548 148.976 182.849 146.247C183.149 143.518 181.181 141.062 178.452 140.762C175.723 140.461 173.267 142.43 172.966 145.159Z" fill="#FFE031"/>
<path d="M146.482 142.242C146.782 139.52 149.233 137.544 151.967 137.845C154.689 138.145 156.666 140.596 156.364 143.331C156.063 146.065 153.613 148.029 150.879 147.728C148.157 147.428 146.181 144.976 146.482 142.242Z" fill="#1D262D"/>
<path d="M119.997 139.325C119.696 142.054 121.665 144.51 124.394 144.811C127.123 145.111 129.579 143.143 129.88 140.414C130.18 137.685 128.212 135.229 125.482 134.928C122.753 134.628 120.298 136.596 119.997 139.325Z" fill="#FFE031"/>
<path d="M93.5126 136.409C93.2121 139.138 95.1807 141.594 97.9097 141.894C100.639 142.195 103.095 140.226 103.395 137.497C103.696 134.768 101.727 132.312 98.9981 132.012C96.2691 131.711 93.8132 133.68 93.5126 136.409Z" stroke="#FFE031" stroke-miterlimit="10"/>
<path d="M67.0404 133.493C67.3402 130.771 69.7916 128.795 72.5259 129.096C75.2479 129.396 77.2242 131.847 76.9231 134.582C76.622 137.316 74.1718 139.28 71.4375 138.979C68.7032 138.678 66.7393 136.228 67.0404 133.493Z" fill="#FFE031"/>
<path d="M40.5434 130.575C40.2428 133.304 42.2115 135.76 44.9405 136.061C47.6695 136.361 50.1255 134.393 50.426 131.663C50.7266 128.934 48.7579 126.479 46.0289 126.178C43.2999 125.877 40.8439 127.846 40.5434 130.575Z" fill="#FFE031"/>
<path d="M14.059 127.658C13.7584 130.387 15.7271 132.843 18.4561 133.144C21.1851 133.444 23.6411 131.476 23.9416 128.747C24.2422 126.018 22.2735 123.562 19.5445 123.261C16.8155 122.961 14.3595 124.929 14.059 127.658Z" fill="#FFE031"/>
<path d="M175.219 124.707C174.918 127.436 176.887 129.892 179.616 130.193C182.345 130.493 184.801 128.524 185.101 125.795C185.402 123.066 183.433 120.61 180.704 120.31C177.975 120.009 175.519 121.978 175.219 124.707Z" stroke="#FFE031" stroke-miterlimit="10"/>
<path d="M148.734 121.79C149.034 119.068 151.486 117.092 154.22 117.393C156.942 117.693 158.918 120.144 158.617 122.879C158.317 125.601 155.866 127.577 153.131 127.276C150.409 126.976 148.435 124.512 148.734 121.79Z" fill="#FFE031"/>
<path d="M122.249 118.873C121.949 121.602 123.918 124.058 126.647 124.359C129.376 124.66 131.832 122.691 132.132 119.962C132.433 117.233 130.464 114.777 127.735 114.476C125.006 114.176 122.55 116.144 122.249 118.873Z" fill="#FFE031"/>
<path d="M95.765 115.957C95.4645 118.686 97.4332 121.142 100.162 121.442C102.891 121.743 105.347 119.774 105.648 117.045C105.948 114.316 103.98 111.86 101.251 111.56C98.5215 111.259 96.0656 113.228 95.765 115.957Z" fill="#FFE031"/>
<path d="M69.2928 113.041C69.5926 110.319 72.0441 108.343 74.7784 108.644C77.5004 108.944 79.4767 111.395 79.1755 114.13C78.8758 116.852 76.4243 118.828 73.69 118.527C70.9557 118.226 68.9931 115.763 69.2928 113.041Z" fill="#FFE031"/>
<path d="M42.7958 110.123C42.4953 112.852 44.4639 115.308 47.1929 115.609C49.922 115.909 52.3779 113.941 52.6785 111.212C52.979 108.483 51.0103 106.027 48.2813 105.726C45.5523 105.425 43.0964 107.394 42.7958 110.123Z" fill="#FFE031"/>
<path d="M16.3114 107.206C16.0109 109.935 17.9795 112.391 20.7086 112.692C23.4376 112.992 25.8935 111.024 26.1941 108.295C26.4946 105.566 24.526 103.11 21.797 102.809C19.0679 102.509 16.612 104.477 16.3114 107.206Z" fill="#FFE031"/>
<path d="M79.998 259.12C79.6974 261.849 81.6661 264.305 84.3951 264.606C87.1241 264.906 89.5801 262.938 89.8806 260.209C90.1812 257.48 88.2125 255.024 85.4835 254.723C82.7545 254.423 80.2985 256.391 79.998 259.12Z" fill="#FFE031"/>
<path d="M53.5253 256.205C53.825 253.483 56.2765 251.507 59.0108 251.808C61.7328 252.107 63.7091 254.559 63.408 257.293C63.1068 260.028 60.6567 261.991 57.9224 261.69C55.1881 261.389 53.2241 258.939 53.5253 256.205Z" fill="#1D262D"/>
<path d="M27.0287 253.287C26.7282 256.016 28.6968 258.472 31.4258 258.772C34.1549 259.073 36.6108 257.104 36.9114 254.375C37.2119 251.646 35.2433 249.19 32.5142 248.89C29.7852 248.589 27.3293 250.558 27.0287 253.287Z" fill="#FFE031"/>
<path d="M0.54434 250.37C0.24379 253.099 2.21245 255.555 4.94147 255.855C7.67049 256.156 10.1264 254.187 10.427 251.458C10.7275 248.729 8.75888 246.273 6.02986 245.973C3.30084 245.672 0.84489 247.641 0.54434 250.37Z" fill="#FFE031"/>
<path d="M108.736 241.573C108.436 244.302 110.404 246.758 113.133 247.058C115.862 247.359 118.318 245.39 118.619 242.661C118.919 239.932 116.951 237.476 114.222 237.175C111.493 236.875 109.037 238.844 108.736 241.573Z" fill="#FFE031"/>
<path d="M82.2514 238.656C81.9508 241.385 83.9195 243.841 86.6485 244.141C89.3775 244.442 91.8335 242.473 92.134 239.744C92.4346 237.015 90.4659 234.559 87.7369 234.259C85.0079 233.958 82.5519 235.927 82.2514 238.656Z" stroke="#FFE031" stroke-miterlimit="10"/>
<path d="M55.7792 235.74C56.0789 233.018 58.5304 231.042 61.2647 231.343C63.9867 231.643 65.963 234.095 65.6619 236.829C65.3607 239.563 62.9106 241.527 60.1763 241.226C57.442 240.925 55.478 238.475 55.7792 235.74Z" fill="#FFE031"/>
<path d="M29.2821 232.822C28.9816 235.551 30.9502 238.007 33.6793 238.308C36.4083 238.608 38.8642 236.64 39.1648 233.911C39.4653 231.182 37.4967 228.726 34.7677 228.425C32.0386 228.125 29.5827 230.093 29.2821 232.822Z" fill="#FFE031"/>
<path d="M2.79776 229.906C2.49721 232.635 4.46587 235.09 7.19489 235.391C9.92391 235.692 12.3799 233.723 12.6804 230.994C12.981 228.265 11.0123 225.809 8.28328 225.508C5.55426 225.208 3.09831 227.177 2.79776 229.906Z" fill="#FFE031"/>
<path d="M137.473 224.037C137.773 221.315 140.224 219.339 142.959 219.64C145.681 219.94 147.657 222.392 147.356 225.126C147.056 227.848 144.604 229.824 141.87 229.523C139.148 229.223 137.173 226.759 137.473 224.037Z" fill="#FFE031"/>
<path d="M110.989 221.121C110.688 223.85 112.657 226.306 115.386 226.606C118.115 226.907 120.571 224.938 120.871 222.209C121.172 219.48 119.203 217.024 116.474 216.724C113.745 216.423 111.289 218.392 110.989 221.121Z" fill="#FFE031"/>
<path d="M84.5038 218.204C84.2033 220.933 86.1719 223.389 88.9009 223.689C91.63 223.99 94.0859 222.021 94.3865 219.292C94.687 216.563 92.7184 214.107 89.9893 213.807C87.2603 213.506 84.8044 215.475 84.5038 218.204Z" fill="#FFE031"/>
<path d="M58.0316 215.288C58.3314 212.566 60.7828 210.59 63.5171 210.891C66.2392 211.191 68.2154 213.643 67.9143 216.377C67.6145 219.099 65.163 221.075 62.4287 220.774C59.6945 220.473 57.7318 218.01 58.0316 215.288Z" fill="#FFE031"/>
<path d="M31.5346 212.37C31.234 215.099 33.2027 217.555 35.9317 217.856C38.6607 218.156 41.1167 216.188 41.4172 213.459C41.7178 210.73 39.7491 208.274 37.0201 207.973C34.2911 207.673 31.8351 209.641 31.5346 212.37Z" fill="#FFE031"/>
<path d="M5.0502 209.454C4.74965 212.183 6.71831 214.639 9.44733 214.939C12.1764 215.24 14.6323 213.271 14.9329 210.542C15.2334 207.813 13.2647 205.357 10.5357 205.056C7.8067 204.756 5.35075 206.725 5.0502 209.454Z" fill="#FFE031"/>
<path d="M307.522 118.598C307.822 115.876 310.274 113.9 313.008 114.201C315.742 114.502 317.706 116.952 317.405 119.686C317.105 122.408 314.654 124.385 311.92 124.083C309.185 123.782 307.221 121.332 307.522 118.598Z" fill="#FFE031"/>
<path d="M281.05 115.682C281.35 112.96 283.801 110.984 286.536 111.285C289.27 111.586 291.234 114.037 290.933 116.771C290.633 119.493 288.182 121.469 285.447 121.168C282.713 120.867 280.749 118.417 281.05 115.682Z" fill="#1D262D"/>
<path d="M254.565 112.766C254.865 110.044 257.317 108.067 260.051 108.369C262.773 108.668 264.749 111.12 264.448 113.854C264.148 116.576 261.697 118.552 258.962 118.251C256.228 117.95 254.264 115.5 254.565 112.766Z" fill="#FFE031"/>
<path d="M228.081 109.849C228.381 107.127 230.832 105.151 233.566 105.452C236.301 105.753 238.265 108.203 237.964 110.937C237.664 113.659 235.212 115.636 232.478 115.334C229.744 115.033 227.78 112.583 228.081 109.849Z" fill="#FFE031"/>
<path d="M201.597 106.932C201.896 104.21 204.348 102.234 207.082 102.535C209.816 102.836 211.78 105.286 211.479 108.021C211.179 110.743 208.728 112.719 205.994 112.418C203.259 112.117 201.295 109.666 201.597 106.932Z" fill="#1D262D"/>
<path d="M336.26 101.062C336.559 98.3402 339.011 96.3639 341.745 96.6651C344.467 96.9648 346.443 99.4163 346.142 102.151C345.843 104.873 343.391 106.849 340.657 106.548C337.935 106.248 335.96 103.784 336.26 101.062Z" stroke="#FFE031" stroke-miterlimit="10"/>
<path d="M309.775 98.1455C309.474 100.874 311.443 103.33 314.172 103.631C316.901 103.932 319.357 101.963 319.657 99.2338C319.958 96.5048 317.989 94.0489 315.26 93.7483C312.531 93.4478 310.075 95.4164 309.775 98.1455Z" fill="#FFE031"/>
<path d="M283.29 95.2287C282.99 97.9577 284.959 100.414 287.688 100.714C290.417 101.015 292.873 99.0461 293.173 96.3171C293.474 93.588 291.505 91.1321 288.776 90.8315C286.047 90.531 283.591 92.4997 283.29 95.2287Z" fill="#FFE031"/>
<path d="M256.818 92.3132C257.118 89.5912 259.569 87.6149 262.303 87.9161C265.025 88.2158 267.002 90.6673 266.7 93.4016C266.401 96.1236 263.949 98.0999 261.215 97.7987C258.481 97.4976 256.518 95.0352 256.818 92.3132Z" fill="#FFE031"/>
<path d="M230.321 89.3951C230.021 92.1241 231.989 94.5801 234.718 94.8806C237.447 95.1812 239.903 93.2125 240.204 90.4835C240.504 87.7545 238.536 85.2985 235.807 84.998C233.078 84.6974 230.622 86.6661 230.321 89.3951Z" stroke="#FFE031" stroke-miterlimit="10"/>
<path d="M203.837 86.4783C203.536 89.2074 205.505 91.6633 208.234 91.9639C210.963 92.2644 213.419 90.2957 213.719 87.5667C214.02 84.8377 212.051 82.3818 209.322 82.0812C206.593 81.7807 204.137 83.7493 203.837 86.4783Z" fill="#FFE031"/>
<path d="M364.997 83.515C364.697 86.2441 366.666 88.7 369.395 89.0006C372.124 89.3011 374.58 87.3325 374.88 84.6034C375.181 81.8744 373.212 79.4185 370.483 79.1179C367.754 78.8174 365.298 80.786 364.997 83.515Z" fill="#FFE031"/>
<path d="M338.513 80.5983C338.813 77.8762 341.264 75.9 343.999 76.2011C346.721 76.5009 348.697 78.9524 348.396 81.6867C348.095 84.4209 345.645 86.3849 342.91 86.0838C340.188 85.784 338.212 83.3326 338.513 80.5983Z" fill="#FFE031"/>
<path d="M312.029 77.6815C311.728 80.4105 313.697 82.8665 316.426 83.167C319.155 83.4676 321.611 81.4989 321.911 78.7699C322.212 76.0409 320.243 73.5849 317.514 73.2844C314.785 72.9838 312.329 74.9525 312.029 77.6815Z" fill="#FFE031"/>
<path d="M285.544 74.7647C285.243 77.4937 287.212 79.9497 289.941 80.2502C292.67 80.5508 295.126 78.5821 295.427 75.8531C295.727 73.1241 293.758 70.6681 291.029 70.3676C288.3 70.067 285.844 72.0357 285.544 74.7647Z" fill="#FFE031"/>
<path d="M259.072 71.8493C259.371 69.1273 261.823 67.151 264.557 67.4522C267.279 67.7519 269.255 70.2034 268.954 72.9377C268.653 75.672 266.203 77.636 263.469 77.3348C260.734 77.0337 258.771 74.5836 259.072 71.8493Z" fill="#1D262D"/>
<path d="M232.575 68.9312C232.275 71.6602 234.243 74.1161 236.972 74.4167C239.701 74.7172 242.157 72.7486 242.458 70.0195C242.758 67.2905 240.79 64.8346 238.061 64.534C235.332 64.2335 232.876 66.2021 232.575 68.9312Z" fill="#FFE031"/>
<path d="M206.09 66.0144C205.79 68.7434 207.758 71.1993 210.487 71.4999C213.216 71.8005 215.672 69.8318 215.973 67.1028C216.273 64.3737 214.305 61.9178 211.576 61.6172C208.847 61.3167 206.391 63.2854 206.09 66.0144Z" fill="#FFE031"/>
<path d="M367.251 63.0506C366.951 65.7796 368.919 68.2356 371.649 68.5361C374.378 68.8367 376.833 66.868 377.134 64.139C377.435 61.41 375.466 58.954 372.737 58.6535C370.008 58.3529 367.552 60.3216 367.251 63.0506Z" fill="#FFE031"/>
<path d="M340.767 60.1339C341.067 57.4118 343.518 55.4356 346.253 55.7367C348.975 56.0365 350.951 58.488 350.65 61.2222C350.349 63.9565 347.898 65.9205 345.164 65.6194C342.442 65.3196 340.466 62.8681 340.767 60.1339Z" fill="#1D262D"/>
<path d="M314.282 57.2171C313.982 59.9461 315.95 62.402 318.679 62.7026C321.408 63.0031 323.864 61.0345 324.165 58.3055C324.465 55.5764 322.497 53.1205 319.768 52.8199C317.039 52.5194 314.583 54.4881 314.282 57.2171Z" fill="#FFE031"/>
<path d="M287.798 54.3003C287.497 57.0293 289.466 59.4853 292.195 59.7858C294.924 60.0864 297.38 58.1177 297.68 55.3887C297.981 52.6597 296.012 50.2037 293.283 49.9032C290.554 49.6026 288.098 51.5713 287.798 54.3003Z" stroke="#FFE031" stroke-miterlimit="10"/>
<path d="M261.326 51.3849C261.625 48.6628 264.077 46.6866 266.811 46.9877C269.533 47.2875 271.509 49.739 271.208 52.4732C270.907 55.2075 268.457 57.1715 265.723 56.8704C262.988 56.5692 261.024 54.1191 261.326 51.3849Z" fill="#FFE031"/>
<path d="M234.829 48.4667C234.528 51.1958 236.497 53.6517 239.226 53.9523C241.955 54.2528 244.411 52.2841 244.711 49.5551C245.012 46.8261 243.043 44.3702 240.314 44.0696C237.585 43.7691 235.129 45.7377 234.829 48.4667Z" fill="#FFE031"/>
<path d="M208.344 45.55C208.044 48.279 210.012 50.735 212.741 51.0355C215.47 51.3361 217.926 49.3674 218.227 46.6384C218.527 43.9094 216.559 41.4534 213.83 41.1529C211.101 40.8523 208.645 42.821 208.344 45.55Z" fill="#FFE031"/>
<path d="M369.504 42.5987C369.203 45.3277 371.172 47.7836 373.901 48.0842C376.63 48.3847 379.086 46.4161 379.386 43.6871C379.687 40.958 377.718 38.5021 374.989 38.2015C372.26 37.901 369.804 39.8696 369.504 42.5987Z" stroke="#FFE031" stroke-miterlimit="10"/>
<path d="M343.019 39.6819C343.319 36.9599 345.771 34.9837 348.505 35.2848C351.227 35.5846 353.203 38.036 352.902 40.7703C352.602 43.4923 350.151 45.4686 347.417 45.1674C344.695 44.8677 342.72 42.4039 343.019 39.6819Z" fill="#FFE031"/>
<path d="M316.535 36.7651C316.234 39.4942 318.203 41.9501 320.932 42.2507C323.661 42.5512 326.117 40.5826 326.417 37.8535C326.718 35.1245 324.749 32.6686 322.02 32.368C319.291 32.0675 316.835 34.0361 316.535 36.7651Z" fill="#FFE031"/>
<path d="M290.05 33.8483C289.75 36.5774 291.718 39.0333 294.447 39.3339C297.176 39.6344 299.632 37.6657 299.933 34.9367C300.233 32.2077 298.265 29.7517 295.536 29.4512C292.807 29.1506 290.351 31.1193 290.05 33.8483Z" fill="#FFE031"/>
<path d="M263.578 30.9329C263.878 28.2109 266.329 26.2347 269.064 26.5358C271.786 26.8356 273.762 29.287 273.461 32.0213C273.161 34.7433 270.709 36.7196 267.975 36.4184C265.241 36.1173 263.278 33.6549 263.578 30.9329Z" fill="#FFE031"/>
<path d="M237.081 28.0148C236.78 30.7438 238.749 33.1998 241.478 33.5003C244.207 33.8009 246.663 31.8322 246.964 29.1032C247.264 26.3742 245.296 23.9182 242.566 23.6177C239.837 23.3171 237.382 25.2858 237.081 28.0148Z" fill="#FFE031"/>
<path d="M210.597 25.098C210.296 27.827 212.265 30.283 214.994 30.5835C217.723 30.8841 220.179 28.9154 220.479 26.1864C220.78 23.4574 218.811 21.0014 216.082 20.7009C213.353 20.4003 210.897 22.369 210.597 25.098Z" fill="#FFE031"/>
<path d="M202.16 189.784C201.859 192.513 199.403 194.482 196.674 194.181C193.945 193.881 191.977 191.425 192.277 188.696C192.578 185.967 195.034 183.998 197.763 184.298C200.492 184.599 202.46 187.055 202.16 189.784Z" fill="#FFE031"/>
<path d="M204.414 169.32C204.113 172.049 201.657 174.018 198.928 173.717C196.199 173.417 194.23 170.961 194.531 168.232C194.832 165.503 197.288 163.534 200.017 163.835C202.746 164.135 204.714 166.591 204.414 169.32Z" fill="#FFE031"/>
<path d="M230.898 172.237C231.198 169.515 229.235 167.052 226.501 166.751C223.779 166.452 221.317 168.414 221.015 171.148C220.714 173.883 222.678 176.333 225.413 176.634C228.135 176.934 230.597 174.971 230.898 172.237Z" fill="#FFE031"/>
<path d="M206.667 148.856C206.367 151.585 203.911 153.553 201.182 153.253C198.453 152.952 196.484 150.496 196.784 147.767C197.085 145.038 199.541 143.07 202.27 143.37C204.999 143.671 206.968 146.127 206.667 148.856Z" fill="#FFE031"/>
<path d="M233.152 151.772C233.452 149.05 231.489 146.588 228.755 146.287C226.033 145.987 223.57 147.95 223.269 150.684C222.968 153.418 224.932 155.868 227.666 156.17C230.388 156.469 232.851 154.507 233.152 151.772Z" fill="#1D262D"/>
<path d="M259.636 154.689C259.336 157.418 256.88 159.387 254.151 159.086C251.422 158.786 249.453 156.33 249.754 153.601C250.054 150.872 252.51 148.903 255.239 149.204C257.968 149.504 259.937 151.96 259.636 154.689Z" fill="#FFE031"/>
<path d="M208.92 128.404C208.619 131.133 206.163 133.101 203.434 132.801C200.705 132.5 198.736 130.044 199.037 127.315C199.337 124.586 201.793 122.618 204.522 122.918C207.251 123.219 209.22 125.675 208.92 128.404Z" stroke="#FFE031" stroke-miterlimit="10"/>
<path d="M235.404 131.32C235.704 128.598 233.742 126.136 231.007 125.835C228.285 125.535 225.823 127.498 225.522 130.232C225.222 132.954 227.185 135.416 229.919 135.718C232.641 136.017 235.105 134.042 235.404 131.32Z" fill="#FFE031"/>
<path d="M261.889 134.237C261.588 136.966 259.132 138.935 256.403 138.634C253.674 138.334 251.706 135.878 252.006 133.149C252.307 130.42 254.763 128.451 257.492 128.752C260.221 129.052 262.189 131.508 261.889 134.237Z" fill="#FFE031"/>
<path d="M288.374 137.154C288.073 139.883 285.617 141.852 282.888 141.551C280.159 141.251 278.19 138.795 278.491 136.066C278.792 133.337 281.247 131.368 283.976 131.668C286.706 131.969 288.674 134.425 288.374 137.154Z" fill="#FFE031"/>
<path d="M179.721 83.8257C179.42 86.5547 181.389 89.0107 184.118 89.3112C186.847 89.6118 189.303 87.6431 189.603 84.9141C189.904 82.1851 187.935 79.7291 185.206 79.4286C182.477 79.128 180.021 81.0967 179.721 83.8257Z" fill="#FFE031"/>
<path d="M181.975 63.3617C181.674 66.0907 183.643 68.5467 186.372 68.8473C189.101 69.1478 191.557 67.1791 191.857 64.4501C192.158 61.7211 190.189 59.2651 187.46 58.9646C184.731 58.664 182.275 60.6327 181.975 63.3617Z" fill="#FFE031"/>
<path d="M155.49 60.4449C155.789 57.7229 158.241 55.7467 160.975 56.0478C163.697 56.3476 165.673 58.7991 165.372 61.5333C165.071 64.2676 162.621 66.2316 159.887 65.9305C157.165 65.6307 155.189 63.1792 155.49 60.4449Z" fill="#FFE031"/>
<path d="M184.228 42.8973C183.927 45.6263 185.896 48.0823 188.625 48.3828C191.354 48.6834 193.81 46.7147 194.111 43.9857C194.411 41.2567 192.442 38.8007 189.713 38.5002C186.984 38.1996 184.528 40.1683 184.228 42.8973Z" fill="#FFE031"/>
<path d="M157.744 39.9805C158.043 37.2585 160.495 35.2823 163.229 35.5834C165.951 35.8832 167.927 38.3346 167.626 41.0689C167.325 43.8032 164.875 45.7672 162.141 45.4661C159.419 45.1663 157.442 42.7148 157.744 39.9805Z" fill="#1D262D"/>
<path d="M131.259 37.0638C130.959 39.7928 132.927 42.2488 135.656 42.5493C138.385 42.8499 140.841 40.8812 141.142 38.1522C141.442 35.4232 139.474 32.9672 136.745 32.6667C134.016 32.3661 131.56 34.3348 131.259 37.0638Z" fill="#FFE031"/>
<path d="M186.48 22.4454C186.18 25.1744 188.148 27.6303 190.878 27.9309C193.607 28.2315 196.062 26.2628 196.363 23.5338C196.664 20.8047 194.695 18.3488 191.966 18.0482C189.237 17.7477 186.781 19.7164 186.48 22.4454Z" stroke="#FFE031" stroke-miterlimit="10"/>
<path d="M159.996 19.5286C160.296 16.8066 162.747 14.8303 165.482 15.1315C168.204 15.4312 170.18 17.8827 169.879 20.617C169.579 23.339 167.127 25.3153 164.393 25.0141C161.671 24.7143 159.696 22.2506 159.996 19.5286Z" fill="#FFE031"/>
<path d="M133.512 16.6118C133.211 19.3408 135.18 21.7968 137.909 22.0973C140.638 22.3979 143.094 20.4292 143.394 17.7002C143.695 14.9712 141.726 12.5152 138.997 12.2147C136.268 11.9141 133.812 13.8828 133.512 16.6118Z" fill="#FFE031"/>
<path d="M107.027 13.695C106.726 16.4241 108.695 18.88 111.424 19.1806C114.153 19.4811 116.609 17.5125 116.909 14.7834C117.21 12.0544 115.241 9.59846 112.512 9.29791C109.783 8.99736 107.327 10.966 107.027 13.695Z" fill="#FFE031"/>
<path d="M177.467 104.292C177.766 101.57 180.218 99.5941 182.952 99.8952C185.687 100.196 187.65 102.646 187.349 105.381C187.05 108.103 184.598 110.079 181.864 109.778C179.13 109.477 177.166 107.027 177.467 104.292Z" fill="#FFE031"/>
<path d="M150.982 101.376C151.282 98.6536 153.734 96.6773 156.468 96.9785C159.19 97.2783 161.166 99.7297 160.865 102.464C160.565 105.186 158.114 107.162 155.379 106.861C152.657 106.561 150.681 104.11 150.982 101.376Z" fill="#FFE031"/>
<path d="M124.498 98.4588C124.798 95.7368 127.249 93.7606 129.983 94.0617C132.718 94.3628 134.682 96.8129 134.381 99.5472C134.081 102.269 131.629 104.245 128.895 103.944C126.161 103.643 124.197 101.193 124.498 98.4588Z" fill="#FFE031"/>
<path d="M98.0253 95.5434C98.3251 92.8214 100.777 90.8451 103.511 91.1463C106.245 91.4474 108.209 93.8975 107.908 96.6318C107.608 99.3538 105.157 101.33 102.422 101.029C99.6881 100.728 97.7242 98.2777 98.0253 95.5434Z" fill="#1D262D"/>
<path d="M71.5409 92.6266C71.8407 89.9046 74.2921 87.9284 77.0264 88.2295C79.7484 88.5293 81.7247 90.9807 81.4236 93.715C81.1238 96.437 78.6723 98.4133 75.938 98.1121C73.2037 97.811 71.2398 95.3609 71.5409 92.6266Z" fill="#FFE031"/>
<path d="M45.0565 89.7099C45.3563 86.9879 47.8078 85.0116 50.5421 85.3127C53.2764 85.6139 55.2403 88.064 54.9392 90.7983C54.6394 93.5203 52.188 95.4965 49.4537 95.1954C46.7194 94.8943 44.7554 92.4442 45.0565 89.7099Z" fill="#FFE031"/>
<path d="M18.5717 86.7931C18.8715 84.0711 21.3229 82.0948 24.0572 82.396C26.7915 82.6971 28.7555 85.1472 28.4543 87.8815C28.1546 90.6035 25.7031 92.5797 22.9688 92.2786C20.2345 91.9775 18.2706 89.5274 18.5717 86.7931Z" fill="#1D262D"/>
<path d="M153.235 80.9232C153.535 78.2012 155.986 76.2249 158.72 76.5261C161.442 76.8258 163.419 79.2773 163.117 82.0116C162.818 84.7336 160.366 86.7098 157.632 86.4087C154.91 86.1089 152.935 83.6452 153.235 80.9232Z" stroke="#FFE031" stroke-miterlimit="10"/>
<path d="M126.75 78.0064C126.449 80.7354 128.418 83.1914 131.147 83.4919C133.876 83.7925 136.332 81.8238 136.633 79.0948C136.933 76.3657 134.964 73.9098 132.235 73.6092C129.506 73.3087 127.05 75.2774 126.75 78.0064Z" fill="#FFE031"/>
<path d="M100.266 75.0896C99.965 77.8186 101.934 80.2746 104.663 80.5751C107.392 80.8757 109.848 78.907 110.148 76.178C110.449 73.449 108.48 70.993 105.751 70.6925C103.022 70.3919 100.566 72.3606 100.266 75.0896Z" fill="#FFE031"/>
<path d="M73.7933 72.1742C74.0931 69.4521 76.5446 67.4759 79.2788 67.777C82.0009 68.0768 83.9772 70.5283 83.676 73.2626C83.3762 75.9846 80.9247 77.9608 78.1905 77.6597C75.4562 77.3586 73.4935 74.8962 73.7933 72.1742Z" fill="#FFE031"/>
<path d="M47.2968 69.256C46.9962 71.9851 48.9649 74.441 51.6939 74.7416C54.4229 75.0421 56.8789 73.0735 57.1794 70.3444C57.48 67.6154 55.5113 65.1595 52.7823 64.8589C50.0533 64.5584 47.5973 66.527 47.2968 69.256Z" stroke="#FFE031" stroke-miterlimit="10"/>
<path d="M20.8119 66.3393C20.5114 69.0683 22.48 71.5242 25.2091 71.8248C27.9381 72.1253 30.394 70.1567 30.6946 67.4277C30.9951 64.6986 29.0265 62.2427 26.2974 61.9421C23.5684 61.6416 21.1125 63.6102 20.8119 66.3393Z" fill="#FFE031"/>
<path d="M129.004 57.5425C128.703 60.2715 130.672 62.7275 133.401 63.028C136.13 63.3286 138.586 61.3599 138.886 58.6309C139.187 55.9019 137.218 53.4459 134.489 53.1454C131.76 52.8448 129.304 54.8135 129.004 57.5425Z" fill="#FFE031"/>
<path d="M102.519 54.6257C102.219 57.3547 104.188 59.8106 106.917 60.1112C109.646 60.4117 112.102 58.4431 112.402 55.7141C112.703 52.985 110.734 50.5291 108.005 50.2285C105.276 49.928 102.82 51.8967 102.519 54.6257Z" fill="#FFE031"/>
<path d="M76.0467 51.7102C76.3465 48.9882 78.798 47.012 81.5323 47.3131C84.2543 47.6129 86.2306 50.0643 85.9294 52.7986C85.6283 55.5329 83.1782 57.4969 80.4439 57.1958C77.7096 56.8946 75.7456 54.4445 76.0467 51.7102Z" fill="#1D262D"/>
<path d="M49.5502 48.7921C49.2496 51.5211 51.2183 53.9771 53.9473 54.2776C56.6764 54.5782 59.1323 52.6095 59.4329 49.8805C59.7334 47.1515 57.7647 44.6955 55.0357 44.395C52.3067 44.0944 49.8507 46.0631 49.5502 48.7921Z" fill="#FFE031"/>
<path d="M23.0658 45.8753C22.7653 48.6044 24.7339 51.0603 27.463 51.3609C30.192 51.6614 32.6479 49.6927 32.9485 46.9637C33.249 44.2347 31.2804 41.7788 28.5513 41.4782C25.8223 41.1777 23.3664 43.1463 23.0658 45.8753Z" fill="#FFE031"/>
<path d="M104.773 34.1613C104.473 36.8903 106.441 39.3462 109.17 39.6468C111.899 39.9473 114.355 37.9787 114.656 35.2496C114.957 32.5206 112.988 30.0647 110.259 29.7641C107.53 29.4636 105.074 31.4322 104.773 34.1613Z" stroke="#FFE031" stroke-miterlimit="10"/>
<path d="M78.3007 31.2458C78.6004 28.5238 81.0519 26.5476 83.7862 26.8487C86.5082 27.1485 88.4845 29.5999 88.1833 32.3342C87.8822 35.0685 85.4321 37.0325 82.6978 36.7313C79.9635 36.4302 77.9995 33.9801 78.3007 31.2458Z" fill="#FFE031"/>
<path d="M51.8041 28.3277C51.5036 31.0567 53.4722 33.5127 56.2012 33.8132C58.9303 34.1138 61.3862 32.1451 61.6868 29.4161C61.9873 26.6871 60.0186 24.2311 57.2896 23.9306C54.5606 23.63 52.1047 25.5987 51.8041 28.3277Z" fill="#FFE031"/>
<path d="M25.3192 25.4109C25.0187 28.1399 26.9874 30.5959 29.7164 30.8964C32.4454 31.197 34.9013 29.2283 35.2019 26.4993C35.5024 23.7703 33.5338 21.3143 30.8048 21.0138C28.0757 20.7132 25.6198 22.6819 25.3192 25.4109Z" fill="#FFE031"/>
<path d="M80.5531 10.7939C80.8529 8.07186 83.3043 6.09562 86.0386 6.39675C88.7606 6.69653 90.7369 9.14799 90.4358 11.8823C90.136 14.6043 87.6845 16.5805 84.9502 16.2794C82.2159 15.9783 80.2533 13.5159 80.5531 10.7939Z" fill="#FFE031"/>
<path d="M54.0565 7.87574C53.756 10.6048 55.7247 13.0607 58.4537 13.3613C61.1827 13.6618 63.6387 11.6931 63.9392 8.96413C64.2398 6.2351 62.2711 3.77915 59.5421 3.4786C56.813 3.17805 54.3571 5.14671 54.0565 7.87574Z" fill="#FFE031"/>
<path d="M27.5717 4.95899C27.2711 7.68801 29.2398 10.144 31.9688 10.4445C34.6978 10.7451 37.1538 8.7764 37.4543 6.04738C37.7549 3.31836 35.7862 0.862404 33.0572 0.561854C30.3282 0.261304 27.8722 2.22997 27.5717 4.95899Z" fill="#FFE031"/>
</svg>
