<svg width="44" height="44" viewBox="0 0 44 44" fill="none" xmlns="http://www.w3.org/2000/svg">
<path d="M12.4648 4.34778H28.4148C32.4274 7.1896 35.926 10.6947 38.7603 14.7125V39.2453H12.4648V4.34778Z" fill="url(#paint0_linear)"/>
<path d="M12.4648 4.34778H28.4148C32.4274 7.1896 35.926 10.6947 38.7603 14.7125V39.2453H12.4648V4.34778Z" stroke="#C8C8C8" stroke-width="0.6875"/>
<path d="M28.4102 4.34778C32.4177 7.19644 35.9161 10.7005 38.7584 14.7125C37.8134 13.7413 36.6677 12.9883 35.4013 12.5062C34.1349 12.0241 32.7785 11.8244 31.4269 11.9213C31.6196 10.5059 31.4432 9.06479 30.9146 7.73778C30.386 6.41077 29.5233 5.24297 28.4102 4.34778Z" fill="url(#paint1_linear)"/>
<path d="M28.4102 4.34778C32.4177 7.19644 35.9161 10.7005 38.7584 14.7125C37.8134 13.7413 36.6677 12.9883 35.4013 12.5062C34.1349 12.0241 32.7785 11.8244 31.4269 11.9213C31.6196 10.5059 31.4432 9.06479 30.9146 7.73778C30.386 6.41077 29.5233 5.24297 28.4102 4.34778V4.34778Z" stroke="#C8C8C8" stroke-width="0.6875"/>
<path d="M7.33984 8.93201H26.7273V12.6445H7.33984V8.93201Z" stroke="#C8C8C8" stroke-width="5.5"/>
<path d="M21.7531 27.3006C22.3938 26.0439 23.1281 24.629 23.7056 23.2072L23.9366 22.6462C23.1748 19.7477 22.7183 17.4212 23.1267 15.917C23.2123 15.7144 23.3601 15.5443 23.5486 15.4311C23.7372 15.3179 23.9568 15.2676 24.1758 15.2872H24.5251C25.1906 15.2776 25.5027 16.1232 25.5384 16.4519C25.5435 16.9499 25.4783 17.4461 25.3446 17.9259C25.3772 17.4158 25.3018 16.9046 25.1232 16.4257C24.8482 15.8221 24.5856 15.4632 24.3504 15.4041C24.2668 15.4719 24.1988 15.557 24.1514 15.6537C24.1039 15.7503 24.078 15.8561 24.0754 15.9637C24.0056 16.3906 23.9702 16.8224 23.9696 17.2549C24.002 18.5264 24.2022 19.7881 24.5649 21.0072C24.6392 20.7927 24.7024 20.5865 24.7574 20.3926C24.8386 20.0874 25.3528 18.0675 25.3528 18.0675C25.3528 18.0675 25.2236 20.757 25.0421 21.5696C25.0036 21.7415 24.9609 21.912 24.9156 22.0852C25.5244 23.8309 26.5346 25.4091 27.8649 26.6929C28.3875 27.1461 28.9594 27.5391 29.5699 27.8644C30.7155 27.6916 31.8723 27.6047 33.0308 27.6045C33.96 27.5108 34.8946 27.7196 35.6956 28.1999C35.872 28.3779 35.9764 28.615 35.9884 28.8654C35.9825 28.9962 35.9636 29.126 35.9321 29.2531C35.9458 29.183 35.9458 28.8406 34.8939 28.5024C33.4937 28.236 32.0578 28.216 30.6507 28.4433C32.8039 29.4965 34.9036 30.0204 35.5677 29.7069C35.7079 29.6132 35.8299 29.4948 35.9279 29.3576C35.8818 29.5852 35.8146 29.808 35.7272 30.0231C35.5946 30.1915 35.4137 30.3153 35.2088 30.3779C34.1583 30.6529 31.4248 30.0094 29.0419 28.6481C26.3517 29.0611 23.6993 29.6915 21.1109 30.5332C18.8078 34.5702 17.0753 36.4237 15.6673 35.7184L15.1489 35.4585C15.0544 35.3823 14.9853 35.2792 14.9507 35.1628C14.916 35.0464 14.9176 34.9222 14.9551 34.8067C15.1187 34.0037 16.1266 32.7924 18.1506 31.5837C18.3678 31.4462 19.3386 30.9389 19.3386 30.9389C19.3386 30.9389 18.6194 31.6346 18.4517 31.7708C16.8361 33.0949 15.6439 34.76 15.6728 35.4062V35.4626C17.0478 35.2674 19.1034 32.4734 21.7489 27.2965L21.7531 27.3006ZM22.5877 27.7255C22.1728 28.5016 21.7484 29.2726 21.3144 30.0383C23.5203 29.1542 25.8131 28.5053 28.1551 28.1022C27.8525 27.8942 27.5602 27.6717 27.2792 27.4354C26.0716 26.3939 25.0891 25.1171 24.3917 23.683C23.8817 25.0705 23.2766 26.4212 22.5808 27.7255" fill="#F91D0A"/>
<path d="M5.15625 6.83105H28.8942V14.8102H5.15625V6.83105Z" fill="url(#paint2_linear)"/>
<path d="M29.3473 15.2887H4.72656V6.35254H29.3473V15.2887ZM28.4632 7.23804H5.61206V14.4004H28.4632V7.23804Z" fill="url(#paint3_linear)"/>
<path d="M11.3594 8.00114H13.0864C13.3044 7.98718 13.5229 8.02063 13.7268 8.0992C13.9307 8.17777 14.1152 8.29958 14.2675 8.45626C14.5636 8.81775 14.7111 9.27838 14.68 9.74464C14.7111 10.213 14.5637 10.6758 14.2675 11.0399C14.1148 11.1958 13.9302 11.3169 13.7263 11.3947C13.5224 11.4726 13.3041 11.5054 13.0864 11.4909H12.3989V13.3458H11.3594V8.00114ZM12.4002 8.99939V10.4926H12.9764C13.0639 10.4976 13.1514 10.4828 13.2323 10.4492C13.3133 10.4156 13.3856 10.3642 13.4439 10.2988C13.5618 10.1405 13.6202 9.94578 13.6089 9.74876C13.6215 9.55159 13.563 9.35642 13.4439 9.19876C13.3857 9.13323 13.3133 9.08175 13.2324 9.04817C13.1514 9.01459 13.0639 8.99979 12.9764 9.00489H12.4002V8.99939ZM16.4551 9.04751V12.3049H16.8278C17.011 12.3171 17.1945 12.2862 17.3636 12.2146C17.5327 12.1429 17.6826 12.0326 17.8012 11.8924C18.0494 11.5372 18.1688 11.1078 18.1395 10.6755C18.1688 10.2457 18.0504 9.81885 17.804 9.46551C17.6847 9.32538 17.5343 9.21509 17.3648 9.14347C17.1953 9.07184 17.0114 9.04086 16.8278 9.05301H16.4551V9.04751ZM15.4143 8.01076H16.5142C16.9737 7.98735 17.4338 8.04364 17.8741 8.17714C18.1815 8.29675 18.4492 8.50016 18.6469 8.76426C18.84 9.01273 18.9833 9.29612 19.069 9.59889C19.1652 9.94763 19.2115 10.3083 19.2065 10.67C19.2116 11.0349 19.1653 11.3987 19.069 11.7508C18.9833 12.0535 18.84 12.3369 18.6469 12.5854C18.4468 12.8503 18.1775 13.0549 17.8686 13.1766C17.4274 13.3106 16.9667 13.3687 16.506 13.3485H15.406V8.00114L15.4143 8.01076ZM20.0012 8.00114H22.8241V9.04339H21.0504V10.0375H22.7127V11.0798H21.0504V13.3458H20.0095V8.00114" fill="#FFF9F9"/>
<defs>
<linearGradient id="paint0_linear" x1="20.1412" y1="31.685" x2="29.868" y2="14.1053" gradientUnits="userSpaceOnUse">
<stop stop-color="white"/>
<stop offset="1" stop-color="#E1E1E1"/>
</linearGradient>
<linearGradient id="paint1_linear" x1="32.3908" y1="10.6302" x2="33.8868" y2="9.25103" gradientUnits="userSpaceOnUse">
<stop stop-color="white"/>
<stop offset="1" stop-color="#C8C8C8"/>
</linearGradient>
<linearGradient id="paint2_linear" x1="19.3311" y1="17.9177" x2="14.7194" y2="3.72356" gradientUnits="userSpaceOnUse">
<stop offset="0.127" stop-color="#8A0000"/>
<stop offset="0.244" stop-color="#900000" stop-opacity="0.999"/>
<stop offset="0.398" stop-color="#A00000" stop-opacity="0.999"/>
<stop offset="0.573" stop-color="#BC0000" stop-opacity="0.998"/>
<stop offset="0.761" stop-color="#E20000" stop-opacity="0.997"/>
<stop offset="0.867" stop-color="#FA0000" stop-opacity="0.996"/>
</linearGradient>
<linearGradient id="paint3_linear" x1="19.5257" y1="18.48" x2="14.5496" y2="3.16116" gradientUnits="userSpaceOnUse">
<stop offset="0.315" stop-color="#5E0000"/>
<stop offset="0.444" stop-color="#830000" stop-opacity="0.999"/>
<stop offset="0.618" stop-color="#AE0000" stop-opacity="0.998"/>
<stop offset="0.775" stop-color="#CD0000" stop-opacity="0.997"/>
<stop offset="0.908" stop-color="#E00000" stop-opacity="0.996"/>
<stop offset="1" stop-color="#E70000" stop-opacity="0.996"/>
</linearGradient>
</defs>
</svg>
