<svg width="112" height="112" viewBox="0 0 112 112" fill="none" xmlns="http://www.w3.org/2000/svg">
<g clip-path="url(#clip0)">
<path d="M104.098 1.85766C95.6812 -2.25353 81.1214 16.2838 63.3355 4.93459C50.6139 -3.183 30.3462 -2.51319 29.3739 16.2973C28.2714 37.6272 44.1498 46.0782 18.4817 56.2761C-10.0344 67.6054 0.233557 104.052 33.3584 97.0754C51.8168 93.1875 57.3918 105.09 66.3844 109.11C80.7828 115.547 106.169 112.236 97.1908 88.8674C85.3256 57.9852 124.617 11.8797 104.098 1.85766Z" fill="url(#paint0_linear)"/>
<g opacity="0.1">
<path opacity="0.1" d="M83.7472 80.7485V51.154H49.4514L42.5072 44.0107H28.2578V80.7485H37.6704C36.4034 83.3982 35.6933 86.3653 35.6933 89.4985C35.6933 100.715 44.7861 109.808 56.0027 109.808C67.2191 109.808 76.3121 100.715 76.3121 89.4985C76.3121 86.3653 75.6021 83.3982 74.3351 80.7485H83.7472Z" fill="#7854F7"/>
<path opacity="0.1" d="M53.2109 26.8445H74.1726C74.7766 26.8445 75.2664 26.3547 75.2664 25.7507V19.981C75.2664 19.377 74.7766 18.8872 74.1726 18.8872H53.2109C52.607 18.8872 52.1172 19.377 52.1172 19.981V25.7507C52.1172 26.3547 52.607 26.8445 53.2109 26.8445Z" fill="#7854F7"/>
<path opacity="0.1" d="M63.293 31.0803C62.6888 31.0803 62.1992 31.5701 62.1992 32.1741C62.1992 32.778 62.6888 33.2678 63.293 33.2678H75.2676C75.8718 33.2678 76.3613 32.778 76.3613 32.1741C76.3613 31.5701 75.8718 31.0803 75.2676 31.0803H63.293Z" fill="#7854F7"/>
<path opacity="0.1" d="M76.3613 36.3445C76.3613 35.7405 75.8718 35.2507 75.2676 35.2507H63.293C62.6888 35.2507 62.1992 35.7405 62.1992 36.3445C62.1992 36.9485 62.6888 37.4382 63.293 37.4382H75.2676C75.8718 37.4382 76.3613 36.9487 76.3613 36.3445Z" fill="#7854F7"/>
<path opacity="0.1" d="M44.5742 36.3545H45.2198C45.5518 36.3545 45.8749 36.4917 46.1083 36.7327L46.2378 36.8657C46.4522 37.0862 46.7368 37.1969 47.0218 37.1969C47.2968 37.1969 47.572 37.0939 47.7844 36.8871C48.2173 36.4661 48.2269 35.7735 47.8058 35.3406L47.6778 35.2089C47.036 34.5467 46.1403 34.167 45.2198 34.167H44.5742C43.97 34.167 43.4805 34.6568 43.4805 35.2607C43.4805 35.8647 43.97 36.3545 44.5742 36.3545Z" fill="#7854F7"/>
<path opacity="0.1" d="M19.5078 52.7501C20.112 52.7501 20.6016 52.2603 20.6016 51.6564V48.9587C20.6016 48.3548 20.112 47.865 19.5078 47.865C18.9036 47.865 18.4141 48.3548 18.4141 48.9587V51.6564C18.4141 52.2603 18.9036 52.7501 19.5078 52.7501Z" fill="#7854F7"/>
<path opacity="0.1" d="M36.4805 36.3545H39.1781C39.7823 36.3545 40.2718 35.8647 40.2718 35.2607C40.2718 34.6568 39.7823 34.167 39.1781 34.167H36.4805C35.8763 34.167 35.3867 34.6568 35.3867 35.2607C35.3867 35.8647 35.8763 36.3545 36.4805 36.3545Z" fill="#7854F7"/>
<path opacity="0.1" d="M19.5078 44.6573C20.112 44.6573 20.6016 44.1676 20.6016 43.5636V40.866C20.6016 40.262 20.112 39.7722 19.5078 39.7722C18.9036 39.7722 18.4141 40.262 18.4141 40.866V43.5636C18.4141 44.1676 18.9036 44.6573 19.5078 44.6573Z" fill="#7854F7"/>
<path opacity="0.1" d="M51.8772 42.6682C52.0916 42.8887 52.3764 42.9996 52.6614 42.9996C52.9362 42.9996 53.2114 42.8968 53.4238 42.6901C53.8567 42.269 53.8665 41.5766 53.4457 41.1435L51.5653 39.2093C51.1437 38.7762 50.4516 38.7663 50.0187 39.1874C49.5858 39.6085 49.576 40.3009 49.9968 40.734L51.8772 42.6682Z" fill="#7854F7"/>
<path opacity="0.1" d="M57.8477 41.3103C57.2435 41.3103 56.7539 41.8001 56.7539 42.4041C56.7539 43.008 57.2435 43.4978 57.8477 43.4978H60.5451C61.1493 43.4978 61.6388 43.008 61.6388 42.4041C61.6388 41.8001 61.1493 41.3103 60.5451 41.3103H57.8477Z" fill="#7854F7"/>
<path opacity="0.1" d="M31.2211 88.4048H28.5234C27.9192 88.4048 27.4297 88.8946 27.4297 89.4985C27.4297 90.1025 27.9192 90.5923 28.5234 90.5923H31.2211C31.8252 90.5923 32.3148 90.1025 32.3148 89.4985C32.3148 88.8946 31.8252 88.4048 31.2211 88.4048Z" fill="#7854F7"/>
<path opacity="0.1" d="M19.5078 68.9354C20.112 68.9354 20.6016 68.4456 20.6016 67.8417V65.144C20.6016 64.5401 20.112 64.0503 19.5078 64.0503C18.9036 64.0503 18.4141 64.5401 18.4141 65.144V67.8417C18.4141 68.4456 18.9036 68.9354 19.5078 68.9354Z" fill="#7854F7"/>
<path opacity="0.1" d="M28.3906 36.3545H31.088C31.6922 36.3545 32.1818 35.8647 32.1818 35.2607C32.1818 34.6568 31.6922 34.167 31.088 34.167H28.3906C27.7864 34.167 27.2969 34.6568 27.2969 35.2607C27.2969 35.8647 27.7867 36.3545 28.3906 36.3545Z" fill="#7854F7"/>
<path opacity="0.1" d="M19.5078 77.0277C20.112 77.0277 20.6016 76.5379 20.6016 75.934V73.2363C20.6016 72.6324 20.112 72.1426 19.5078 72.1426C18.9036 72.1426 18.4141 72.6324 18.4141 73.2363V75.934C18.4141 76.5381 18.9036 77.0277 19.5078 77.0277Z" fill="#7854F7"/>
<path opacity="0.1" d="M19.5078 60.8427C20.112 60.8427 20.6016 60.3529 20.6016 59.7489V57.0513C20.6016 56.4473 20.112 55.9575 19.5078 55.9575C18.9036 55.9575 18.4141 56.4473 18.4141 57.0513V59.7489C18.4141 60.3529 18.9036 60.8427 19.5078 60.8427Z" fill="#7854F7"/>
<path opacity="0.1" d="M23.1286 88.4047H21.8409C21.5875 88.4047 21.3443 88.3292 21.1378 88.1864C20.6406 87.8423 19.9594 87.9672 19.6162 88.4642C19.2725 88.961 19.3968 89.6424 19.8938 89.9858C20.4678 90.3826 21.1411 90.5922 21.8409 90.5922H23.1286C23.7328 90.5922 24.2224 90.1024 24.2224 89.4984C24.2224 88.8945 23.7326 88.4047 23.1286 88.4047Z" fill="#7854F7"/>
<path opacity="0.1" d="M20.6016 84.027V81.3293C20.6016 80.7254 20.112 80.2356 19.5078 80.2356C18.9036 80.2356 18.4141 80.7254 18.4141 81.3293V84.027C18.4141 84.6309 18.9036 85.1207 19.5078 85.1207C20.112 85.1207 20.6016 84.6309 20.6016 84.027Z" fill="#7854F7"/>
<path opacity="0.1" d="M92.4961 72.4014C91.8919 72.4014 91.4023 72.8911 91.4023 73.4951V76.1927C91.4023 76.7967 91.8919 77.2865 92.4961 77.2865C93.1003 77.2865 93.5898 76.7967 93.5898 76.1927V73.4951C93.5898 72.8911 93.1003 72.4014 92.4961 72.4014Z" fill="#7854F7"/>
<path opacity="0.1" d="M65.9414 41.3103C65.3372 41.3103 64.8477 41.8001 64.8477 42.4041C64.8477 43.008 65.3372 43.4978 65.9414 43.4978H68.6388C69.243 43.4978 69.7326 43.008 69.7326 42.4041C69.7326 41.8001 69.243 41.3103 68.6388 41.3103H65.9414Z" fill="#7854F7"/>
<path opacity="0.1" d="M90.75 88.2581C90.5693 88.3553 90.372 88.4047 90.1633 88.4047C90.1631 88.4047 90.1631 88.4047 90.1629 88.4047H88.6172C88.013 88.4047 87.5234 88.8945 87.5234 89.4984C87.5234 90.1024 88.013 90.5922 88.6172 90.5922H90.1627H90.1635C90.7297 90.5922 91.291 90.4511 91.7869 90.1842C92.3189 89.8979 92.5179 89.2346 92.2314 88.7029C91.9446 88.1706 91.2813 87.9718 90.75 88.2581Z" fill="#7854F7"/>
<path opacity="0.1" d="M92.4961 64.3088C91.8919 64.3088 91.4023 64.7986 91.4023 65.4026V68.1002C91.4023 68.7042 91.8919 69.194 92.4961 69.194C93.1003 69.194 93.5898 68.7042 93.5898 68.1002V65.4026C93.5898 64.7986 93.1003 64.3088 92.4961 64.3088Z" fill="#7854F7"/>
<path opacity="0.1" d="M92.4961 48.1235C91.8919 48.1235 91.4023 48.6133 91.4023 49.2173V51.9149C91.4023 52.5189 91.8919 53.0087 92.4961 53.0087C93.1003 53.0087 93.5898 52.5189 93.5898 51.9149V49.2173C93.5898 48.6133 93.1003 48.1235 92.4961 48.1235Z" fill="#7854F7"/>
<path opacity="0.1" d="M92.4961 56.2161C91.8919 56.2161 91.4023 56.7058 91.4023 57.3098V60.0074C91.4023 60.6114 91.8919 61.1012 92.4961 61.1012C93.1003 61.1012 93.5898 60.6114 93.5898 60.0074V57.3098C93.5898 56.7058 93.1003 56.2161 92.4961 56.2161Z" fill="#7854F7"/>
<path opacity="0.1" d="M92.4961 80.4941C91.8919 80.4941 91.4023 80.9839 91.4023 81.5879V84.2855C91.4023 84.8895 91.8919 85.3793 92.4961 85.3793C93.1003 85.3793 93.5898 84.8895 93.5898 84.2855V81.5879C93.5898 80.9837 93.1003 80.4941 92.4961 80.4941Z" fill="#7854F7"/>
<path opacity="0.1" d="M20.4071 36.8462C20.6421 36.8462 20.8788 36.7708 21.0785 36.6152C21.2974 36.4446 21.5602 36.3545 21.8386 36.3545H22.9932C23.5974 36.3545 24.0869 35.8647 24.0869 35.2607C24.0869 34.6568 23.5974 34.167 22.9932 34.167H21.8386C21.0684 34.167 20.3406 34.417 19.734 34.8897C19.2574 35.261 19.1723 35.9483 19.5437 36.4247C19.7592 36.7014 20.0814 36.8462 20.4071 36.8462Z" fill="#7854F7"/>
<path opacity="0.1" d="M72.9414 42.4041C72.9414 43.008 73.431 43.4978 74.0352 43.4978H76.7328C77.337 43.4978 77.8265 43.008 77.8265 42.4041C77.8265 41.8001 77.337 41.3103 76.7328 41.3103H74.0352C73.431 41.3103 72.9414 41.8001 72.9414 42.4041Z" fill="#7854F7"/>
<path opacity="0.1" d="M90.1939 43.4983C90.685 43.5095 91.1234 43.8098 91.3106 44.2631C91.4847 44.6848 91.8923 44.9397 92.3219 44.9397C92.461 44.9397 92.6023 44.913 92.7388 44.8565C93.2973 44.626 93.5631 43.9863 93.3323 43.4281C92.8143 42.1731 91.6018 41.3423 90.2438 41.3113C90.2352 41.311 90.2267 41.311 90.2184 41.311C89.6258 41.311 89.1389 41.7844 89.1253 42.3798C89.1115 42.9838 89.5899 43.4845 90.1939 43.4983Z" fill="#7854F7"/>
<path opacity="0.1" d="M83.225 88.4048H80.5273C79.9232 88.4048 79.4336 88.8946 79.4336 89.4985C79.4336 90.1025 79.9232 90.5923 80.5273 90.5923H83.225C83.8292 90.5923 84.3187 90.1025 84.3187 89.4985C84.3187 88.8946 83.8292 88.4048 83.225 88.4048Z" fill="#7854F7"/>
<path opacity="0.1" d="M84.8226 41.3103H82.125C81.5208 41.3103 81.0312 41.8001 81.0312 42.4041C81.0312 43.008 81.5208 43.4978 82.125 43.4978H84.8226C85.4268 43.4978 85.9164 43.008 85.9164 42.4041C85.9164 41.8001 85.4268 41.3103 84.8226 41.3103Z" fill="#7854F7"/>
<path opacity="0.1" d="M81.8594 27.2505C81.8594 26.6465 81.3698 26.1567 80.7656 26.1567C80.1614 26.1567 79.6719 26.6465 79.6719 27.2505V29.9481C79.6719 30.5521 80.1614 31.0419 80.7656 31.0419C81.3698 31.0419 81.8594 30.5521 81.8594 29.9481V27.2505Z" fill="#7854F7"/>
<path opacity="0.1" d="M79.6719 19.1577V21.8553C79.6719 22.4593 80.1614 22.9491 80.7656 22.9491C81.3698 22.9491 81.8594 22.4593 81.8594 21.8553V19.1577C81.8594 18.5537 81.3698 18.064 80.7656 18.064C80.1614 18.064 79.6719 18.5537 79.6719 19.1577Z" fill="#7854F7"/>
<path opacity="0.1" d="M80.7656 34.249C80.1614 34.249 79.6719 34.7388 79.6719 35.3428V38.0404C79.6719 38.6444 80.1614 39.1342 80.7656 39.1342C81.3698 39.1342 81.8594 38.6444 81.8594 38.0404V35.3428C81.8594 34.7388 81.3698 34.249 80.7656 34.249Z" fill="#7854F7"/>
<path opacity="0.1" d="M45.8203 23.4772C46.4245 23.4772 46.9141 22.9874 46.9141 22.3834V19.6858C46.9141 19.0818 46.4245 18.592 45.8203 18.592C45.2161 18.592 44.7266 19.0818 44.7266 19.6858V22.3834C44.7266 22.9874 45.2161 23.4772 45.8203 23.4772Z" fill="#7854F7"/>
<path opacity="0.1" d="M45.8203 31.5694C46.4245 31.5694 46.9141 31.0797 46.9141 30.4757V27.7781C46.9141 27.1741 46.4245 26.6843 45.8203 26.6843C45.2161 26.6843 44.7266 27.1741 44.7266 27.7781V30.4757C44.7266 31.0799 45.2161 31.5694 45.8203 31.5694Z" fill="#7854F7"/>
<path opacity="0.1" d="M77.8674 14.1201H78.5786C78.9174 14.1201 79.2317 14.2737 79.4413 14.5412C79.657 14.8168 79.9786 14.9608 80.3034 14.9608C80.539 14.9608 80.7766 14.8849 80.9765 14.7285C81.4523 14.3561 81.5363 13.6688 81.1637 13.1931C80.537 12.392 79.5944 11.9326 78.5783 11.9326H77.8672C77.263 11.9326 76.7734 12.4224 76.7734 13.0264C76.7734 13.6303 77.2634 14.1201 77.8674 14.1201Z" fill="#7854F7"/>
<path opacity="0.1" d="M69.7734 14.1201H72.4708C73.075 14.1201 73.5646 13.6303 73.5646 13.0264C73.5646 12.4224 73.075 11.9326 72.4708 11.9326H69.7734C69.1693 11.9326 68.6797 12.4224 68.6797 13.0264C68.6797 13.6303 69.1693 14.1201 69.7734 14.1201Z" fill="#7854F7"/>
<path opacity="0.1" d="M45.5636 15.3156C45.7093 15.381 45.8613 15.412 46.0114 15.412C46.4288 15.412 46.8273 15.1716 47.0095 14.7663C47.1861 14.3738 47.5781 14.1199 48.0081 14.1199H48.1915C48.7956 14.1199 49.2852 13.6301 49.2852 13.0261C49.2852 12.4222 48.7956 11.9324 48.1915 11.9324H48.0079C46.7182 11.9324 45.543 12.693 45.0141 13.8694C44.7669 14.4204 45.0128 15.0679 45.5636 15.3156Z" fill="#7854F7"/>
<path opacity="0.1" d="M61.6797 14.1201H64.3773C64.9815 14.1201 65.4711 13.6303 65.4711 13.0264C65.4711 12.4224 64.9815 11.9326 64.3773 11.9326H61.6797C61.0755 11.9326 60.5859 12.4224 60.5859 13.0264C60.5859 13.6303 61.0755 14.1201 61.6797 14.1201Z" fill="#7854F7"/>
<path opacity="0.1" d="M53.5859 14.1201H56.2836C56.8878 14.1201 57.3773 13.6303 57.3773 13.0264C57.3773 12.4224 56.8878 11.9326 56.2836 11.9326H53.5859C52.9818 11.9326 52.4922 12.4224 52.4922 13.0264C52.4922 13.6303 52.9818 14.1201 53.5859 14.1201Z" fill="#7854F7"/>
</g>
<path d="M28.2578 75.4985V38.7607H42.5072L49.4514 45.904H83.7472V75.4985H28.2578Z" fill="#FFAB66"/>
<path d="M38.8733 66.2129H35.1484C34.5445 66.2129 34.0547 65.7231 34.0547 65.1191C34.0547 64.5152 34.5445 64.0254 35.1484 64.0254H38.8733C39.4773 64.0254 39.9671 64.5152 39.9671 65.1191C39.9671 65.7233 39.4773 66.2129 38.8733 66.2129Z" fill="#FF8B00"/>
<path d="M46.7483 70.0933H35.1484C34.5445 70.0933 34.0547 69.6035 34.0547 68.9995C34.0547 68.3955 34.5445 67.9058 35.1484 67.9058H46.7483C47.3523 67.9058 47.8421 68.3955 47.8421 68.9995C47.8421 69.6035 47.3523 70.0933 46.7483 70.0933Z" fill="#FF8B00"/>
<path d="M77.5767 71.1171H63.3398C62.7359 71.1171 62.2461 70.6274 62.2461 70.0234V64.283C62.2461 63.679 62.7359 63.1892 63.3398 63.1892H77.5767C78.1807 63.1892 78.6705 63.679 78.6705 64.283V70.0234C78.6705 70.6274 78.1807 71.1171 77.5767 71.1171Z" fill="#FFE8DC"/>
<path d="M56.0006 104.558C67.217 104.558 76.3098 95.4649 76.3098 84.2484C76.3098 73.0319 67.217 63.9392 56.0006 63.9392C44.7841 63.9392 35.6914 73.0319 35.6914 84.2484C35.6914 95.4649 44.7841 104.558 56.0006 104.558Z" fill="#FF4D4D"/>
<path d="M56.0008 100.183C64.8011 100.183 71.9352 93.0487 71.9352 84.2484C71.9352 75.448 64.8011 68.314 56.0008 68.314C47.2005 68.314 40.0664 75.448 40.0664 84.2484C40.0664 93.0487 47.2005 100.183 56.0008 100.183Z" fill="#FF6C6C"/>
<path d="M59.9522 84.2484L64.6801 79.5206C65.7712 78.4295 65.7712 76.6604 64.6801 75.5695C63.5887 74.4784 61.8203 74.4784 60.729 75.5695L56.0012 80.2972L51.2733 75.5693C50.182 74.4782 48.4136 74.4782 47.3222 75.5693C46.2311 76.6604 46.2311 78.4295 47.3222 79.5204L52.0501 84.2482L47.3222 88.9761C46.2311 90.0672 46.2311 91.8362 47.3222 92.9271C47.868 93.4727 48.5827 93.7453 49.2978 93.7453C50.0129 93.7453 50.7277 93.4725 51.2733 92.9271L56.0012 88.1995L60.729 92.9274C61.2746 93.4729 61.9894 93.7455 62.7045 93.7455C63.4196 93.7455 64.1345 93.4727 64.6801 92.9274C65.7712 91.8362 65.7712 90.0672 64.6801 88.9763L59.9522 84.2484Z" fill="white"/>
<path d="M74.1726 21.5945H53.2109C52.607 21.5945 52.1172 21.1047 52.1172 20.5007V14.731C52.1172 14.127 52.607 13.6372 53.2109 13.6372H74.1726C74.7766 13.6372 75.2664 14.127 75.2664 14.731V20.5007C75.2664 21.1047 74.7768 21.5945 74.1726 21.5945Z" fill="#8383FF"/>
<path d="M24.8086 101.835C24.2044 101.835 23.7148 101.345 23.7148 100.741C23.7148 100.078 23.175 99.5381 22.5117 99.5381C21.9075 99.5381 21.418 99.0483 21.418 98.4443C21.418 97.8404 21.9075 97.3506 22.5117 97.3506C23.175 97.3506 23.7148 96.8109 23.7148 96.1475C23.7148 95.5435 24.2044 95.0537 24.8086 95.0537C25.4128 95.0537 25.9023 95.5435 25.9023 96.1475C25.9023 96.8109 26.4422 97.3506 27.1055 97.3506C27.7097 97.3506 28.1992 97.8404 28.1992 98.4443C28.1992 99.0483 27.7097 99.5381 27.1055 99.5381C26.4422 99.5381 25.9023 100.078 25.9023 100.741C25.9023 101.345 25.4126 101.835 24.8086 101.835Z" fill="#FF6C6C"/>
<path d="M98.8283 92.8892C98.2242 92.8892 97.7346 92.3994 97.7346 91.7954C97.7346 91.1319 97.1947 90.5923 96.5312 90.5923C95.9271 90.5923 95.4375 90.1025 95.4375 89.4985C95.4375 88.8946 95.9271 88.4048 96.5312 88.4048C97.1947 88.4048 97.7346 87.8651 97.7346 87.2017C97.7346 86.5977 98.2242 86.1079 98.8283 86.1079C99.4325 86.1079 99.9221 86.5977 99.9221 87.2017C99.9221 87.8651 100.462 88.4048 101.125 88.4048C101.729 88.4048 102.219 88.8946 102.219 89.4985C102.219 90.1025 101.729 90.5923 101.125 90.5923C100.462 90.5923 99.9221 91.1319 99.9221 91.7954C99.9221 92.3994 99.4325 92.8892 98.8283 92.8892Z" fill="#FF9D33"/>
<path d="M13.0547 92.8892C12.4505 92.8892 11.9609 92.3994 11.9609 91.7954C11.9609 91.1319 11.4211 90.5923 10.7578 90.5923C10.1536 90.5923 9.66406 90.1025 9.66406 89.4985C9.66406 88.8946 10.1536 88.4048 10.7578 88.4048C11.4211 88.4048 11.9609 87.8651 11.9609 87.2017C11.9609 86.5977 12.4505 86.1079 13.0547 86.1079C13.6589 86.1079 14.1484 86.5977 14.1484 87.2017C14.1484 87.8651 14.6883 88.4048 15.3516 88.4048C15.9557 88.4048 16.4453 88.8946 16.4453 89.4985C16.4453 90.1025 15.9557 90.5923 15.3516 90.5923C14.6883 90.5923 14.1484 91.1319 14.1484 91.7954C14.1484 92.3994 13.6589 92.8892 13.0547 92.8892Z" fill="#6C6CFF"/>
<path d="M19.5078 22.6939C19.228 22.6939 18.9478 22.5871 18.7345 22.3736C18.3073 21.9464 18.3073 21.2538 18.7345 20.8268L20.922 18.6393C21.3488 18.2123 22.0418 18.2123 22.4685 18.6393C22.8958 19.0666 22.8958 19.7591 22.4685 20.1861L20.281 22.3736C20.0678 22.5871 19.7875 22.6939 19.5078 22.6939Z" fill="#FF9D33"/>
<path d="M88.8515 100.632C88.5717 100.632 88.2915 100.525 88.0782 100.312C87.651 99.8844 87.651 99.1918 88.0782 98.7648L90.2657 96.5773C90.6925 96.1503 91.3855 96.1503 91.8123 96.5773C92.2395 97.0045 92.2395 97.6971 91.8123 98.1241L89.6248 100.312C89.4115 100.525 89.1313 100.632 88.8515 100.632Z" fill="#FF6C6C"/>
<path d="M90.1652 85.3422C90.1647 85.3422 90.1645 85.3422 90.1643 85.3422H88.6188C88.0146 85.3422 87.5251 84.8524 87.5251 84.2485C87.5251 83.6445 88.0146 83.1547 88.6188 83.1547H90.1645H90.1649C90.3736 83.1547 90.5707 83.1053 90.7516 83.0082C91.2832 82.7218 91.9464 82.9207 92.233 83.4526C92.5196 83.9846 92.3203 84.6479 91.7885 84.934C91.2926 85.2011 90.7313 85.3422 90.1652 85.3422ZM83.2236 85.3422H80.5259C79.9217 85.3422 79.4322 84.8524 79.4322 84.2485C79.4322 83.6445 79.9217 83.1547 80.5259 83.1547H83.2236C83.8278 83.1547 84.3173 83.6445 84.3173 84.2485C84.3173 84.8524 83.8278 85.3422 83.2236 85.3422ZM31.221 85.3422H28.5234C27.9192 85.3422 27.4296 84.8524 27.4296 84.2485C27.4296 83.6445 27.9192 83.1547 28.5234 83.1547H31.221C31.8252 83.1547 32.3147 83.6445 32.3147 84.2485C32.3147 84.8524 31.8252 85.3422 31.221 85.3422ZM23.1283 85.3422H21.8406C21.1408 85.3422 20.4675 85.1327 19.8935 84.7358C19.3967 84.3924 19.2722 83.711 19.6159 83.2142C19.9591 82.7174 20.6403 82.5925 21.1375 82.9364C21.344 83.0792 21.5873 83.1547 21.8406 83.1547H23.1283C23.7325 83.1547 24.2221 83.6445 24.2221 84.2485C24.2221 84.8524 23.7323 85.3422 23.1283 85.3422ZM92.4973 80.129C91.8931 80.129 91.4035 79.6392 91.4035 79.0352V76.3376C91.4035 75.7336 91.8931 75.2438 92.4973 75.2438C93.1014 75.2438 93.591 75.7336 93.591 76.3376V79.0352C93.591 79.6392 93.1014 80.129 92.4973 80.129ZM19.5078 79.8706C18.9036 79.8706 18.4141 79.3808 18.4141 78.7769V76.0792C18.4141 75.4753 18.9036 74.9855 19.5078 74.9855C20.112 74.9855 20.6016 75.4753 20.6016 76.0792V78.7769C20.6016 79.3808 20.112 79.8706 19.5078 79.8706ZM92.4973 72.0365C91.8931 72.0365 91.4035 71.5467 91.4035 70.9428V68.2452C91.4035 67.6412 91.8931 67.1514 92.4973 67.1514C93.1014 67.1514 93.591 67.6412 93.591 68.2452V70.9428C93.591 71.5467 93.1014 72.0365 92.4973 72.0365ZM19.5078 71.7777C18.9036 71.7777 18.4141 71.288 18.4141 70.684V67.9864C18.4141 67.3824 18.9036 66.8926 19.5078 66.8926C20.112 66.8926 20.6016 67.3824 20.6016 67.9864V70.684C20.6016 71.2882 20.112 71.7777 19.5078 71.7777ZM92.4973 63.9437C91.8931 63.9437 91.4035 63.4539 91.4035 62.8499V60.1523C91.4035 59.5483 91.8931 59.0585 92.4973 59.0585C93.1014 59.0585 93.591 59.5483 93.591 60.1523V62.8499C93.591 63.4541 93.1014 63.9437 92.4973 63.9437ZM19.5078 63.6853C18.9036 63.6853 18.4141 63.1955 18.4141 62.5916V59.8939C18.4141 59.29 18.9036 58.8002 19.5078 58.8002C20.112 58.8002 20.6016 59.29 20.6016 59.8939V62.5916C20.6016 63.1955 20.112 63.6853 19.5078 63.6853ZM92.4973 55.8512C91.8931 55.8512 91.4035 55.3614 91.4035 54.7575V52.0598C91.4035 51.4559 91.8931 50.9661 92.4973 50.9661C93.1014 50.9661 93.591 51.4559 93.591 52.0598V54.7575C93.591 55.3614 93.1014 55.8512 92.4973 55.8512ZM19.5078 55.5927C18.9036 55.5927 18.4141 55.1029 18.4141 54.4989V51.8013C18.4141 51.1973 18.9036 50.7075 19.5078 50.7075C20.112 50.7075 20.6016 51.1973 20.6016 51.8013V54.4989C20.6016 55.1029 20.112 55.5927 19.5078 55.5927ZM92.4973 47.7586C91.8931 47.7586 91.4035 47.2688 91.4035 46.6648V43.9672C91.4035 43.3632 91.8931 42.8734 92.4973 42.8734C93.1014 42.8734 93.591 43.3632 93.591 43.9672V46.6648C93.591 47.2688 93.1014 47.7586 92.4973 47.7586ZM19.5078 47.5C18.9036 47.5 18.4141 47.0102 18.4141 46.4062V43.7086C18.4141 43.1047 18.9036 42.6149 19.5078 42.6149C20.112 42.6149 20.6016 43.1047 20.6016 43.7086V46.4062C20.6016 47.0102 20.112 47.5 19.5078 47.5ZM92.3218 39.6895C91.8922 39.6895 91.4847 39.4347 91.3105 39.0129C91.1233 38.5597 90.6849 38.2593 90.1938 38.2482C89.5898 38.2344 89.1117 37.7337 89.1252 37.1299C89.1388 36.5345 89.6257 36.0611 90.2183 36.0611C90.2266 36.0611 90.2352 36.0611 90.2437 36.0613C91.6017 36.0924 92.8142 36.9232 93.3322 38.1782C93.563 38.7364 93.2972 39.3761 92.7388 39.6066C92.6023 39.6628 92.4609 39.6895 92.3218 39.6895ZM19.5078 39.4073C18.9036 39.4073 18.4141 38.9176 18.4141 38.3136V35.616C18.4141 35.012 18.9036 34.5222 19.5078 34.5222C20.112 34.5222 20.6016 35.012 20.6016 35.616V38.3136C20.6016 38.9176 20.112 39.4073 19.5078 39.4073ZM84.8239 38.2477H82.1263C81.5221 38.2477 81.0326 37.758 81.0326 37.154C81.0326 36.55 81.5221 36.0602 82.1263 36.0602H84.8239C85.4281 36.0602 85.9177 36.55 85.9177 37.154C85.9177 37.758 85.4281 38.2477 84.8239 38.2477ZM76.7313 38.2477H74.0337C73.4295 38.2477 72.9399 37.758 72.9399 37.154C72.9399 36.55 73.4295 36.0602 74.0337 36.0602H76.7313C77.3355 36.0602 77.825 36.55 77.825 37.154C77.825 37.758 77.3353 38.2477 76.7313 38.2477ZM68.6386 38.2477H65.9412C65.337 38.2477 64.8475 37.758 64.8475 37.154C64.8475 36.55 65.337 36.0602 65.9412 36.0602H68.6386C69.2428 36.0602 69.7324 36.55 69.7324 37.154C69.7324 37.758 69.2426 38.2477 68.6386 38.2477ZM60.546 38.2477H57.8486C57.2444 38.2477 56.7548 37.758 56.7548 37.154C56.7548 36.55 57.2444 36.0602 57.8486 36.0602H60.546C61.1502 36.0602 61.6397 36.55 61.6397 37.154C61.6397 37.758 61.1499 38.2477 60.546 38.2477ZM52.6637 37.7494C52.3787 37.7494 52.0941 37.6387 51.8795 37.418L49.9992 35.4838C49.5781 35.0507 49.5879 34.3582 50.021 33.9373C50.4539 33.5162 51.1463 33.5258 51.5676 33.9592L53.448 35.8933C53.8691 36.3265 53.8592 37.019 53.4261 37.4399C53.2137 37.6466 52.9385 37.7494 52.6637 37.7494ZM47.0231 31.9467C46.738 31.9467 46.4534 31.836 46.2391 31.6155L46.1096 31.4825C45.8762 31.2416 45.5528 31.1042 45.221 31.1042H44.5755C43.9713 31.1042 43.4817 30.6145 43.4817 30.0105C43.4817 29.4065 43.9713 28.9167 44.5755 28.9167H45.221C46.1415 28.9167 47.0375 29.2965 47.6791 29.9587L47.8071 30.0903C48.2284 30.5232 48.2187 31.2158 47.7856 31.6369C47.5732 31.8438 47.298 31.9467 47.0231 31.9467ZM20.4091 31.5962C20.0833 31.5962 19.7611 31.4514 19.5457 31.1747C19.1742 30.6982 19.2593 30.0109 19.736 29.6397C20.3426 29.1668 21.0706 28.917 21.8406 28.917H22.9951C23.5993 28.917 24.0889 29.4067 24.0889 30.0107C24.0889 30.6147 23.5993 31.1045 22.9951 31.1045H21.8406C21.5623 31.1045 21.2994 31.1946 21.0804 31.3652C20.8807 31.5207 20.644 31.5962 20.4091 31.5962ZM39.1804 31.1045H36.4828C35.8786 31.1045 35.3891 30.6147 35.3891 30.0107C35.3891 29.4067 35.8786 28.917 36.4828 28.917H39.1804C39.7846 28.917 40.2742 29.4067 40.2742 30.0107C40.2742 30.6147 39.7844 31.1045 39.1804 31.1045ZM31.0878 31.1045H28.3904C27.7862 31.1045 27.2966 30.6147 27.2966 30.0107C27.2966 29.4067 27.7862 28.917 28.3904 28.917H31.0878C31.692 28.917 32.1815 29.4067 32.1815 30.0107C32.1815 30.6147 31.6918 31.1045 31.0878 31.1045Z" fill="#7854F7"/>
<path d="M80.7628 33.8842C80.1586 33.8842 79.669 33.3944 79.669 32.7904V30.0928C79.669 29.4888 80.1586 28.9991 80.7628 28.9991C81.367 28.9991 81.8565 29.4888 81.8565 30.0928V32.7904C81.8565 33.3946 81.367 33.8842 80.7628 33.8842ZM45.8203 26.3196C45.2161 26.3196 44.7266 25.8298 44.7266 25.2258V22.5282C44.7266 21.9242 45.2161 21.4345 45.8203 21.4345C46.4245 21.4345 46.9141 21.9242 46.9141 22.5282V25.2258C46.9141 25.83 46.4245 26.3196 45.8203 26.3196ZM80.7628 25.7915C80.1586 25.7915 79.669 25.3017 79.669 24.6978V22.0001C79.669 21.3962 80.1586 20.9064 80.7628 20.9064C81.367 20.9064 81.8565 21.3962 81.8565 22.0001V24.6978C81.8565 25.302 81.367 25.7915 80.7628 25.7915ZM45.8203 18.2271C45.2161 18.2271 44.7266 17.7374 44.7266 17.1334V14.4358C44.7266 13.8318 45.2161 13.342 45.8203 13.342C46.4245 13.342 46.9141 13.8318 46.9141 14.4358V17.1334C46.9141 17.7374 46.4245 18.2271 45.8203 18.2271ZM80.7628 17.6991C80.1586 17.6991 79.669 17.2093 79.669 16.6053V13.9077C79.669 13.3037 80.1586 12.814 80.7628 12.814C81.367 12.814 81.8565 13.3037 81.8565 13.9077V16.6053C81.8565 17.2093 81.367 17.6991 80.7628 17.6991ZM46.0108 10.1621C45.8608 10.1621 45.7088 10.131 45.5631 10.0656C45.012 9.81796 44.7662 9.17046 45.0138 8.61965C45.5427 7.44321 46.7178 6.68284 48.0076 6.68262H48.1911C48.7953 6.68262 49.2849 7.1724 49.2849 7.77637C49.2849 8.38034 48.7953 8.87012 48.1911 8.87012H48.0078C47.5775 8.87012 47.1855 9.12387 47.0092 9.51652C46.827 9.92165 46.4282 10.1621 46.0108 10.1621ZM80.3003 9.71099C79.9755 9.71099 79.6539 9.56705 79.4382 9.29143C79.2287 9.02368 78.9141 8.87034 78.5755 8.87034H77.8643C77.2602 8.87034 76.7706 8.38055 76.7706 7.77659C76.7706 7.17262 77.2602 6.68284 77.8643 6.68284H78.5755C79.5918 6.68284 80.5342 7.14221 81.1609 7.94327C81.5332 8.41905 81.4492 9.10637 80.9737 9.47868C80.7735 9.63509 80.5359 9.71099 80.3003 9.71099ZM72.4689 8.87012H69.7715C69.1673 8.87012 68.6777 8.38034 68.6777 7.77637C68.6777 7.1724 69.1673 6.68262 69.7715 6.68262H72.4689C73.0731 6.68262 73.5626 7.1724 73.5626 7.77637C73.5626 8.38034 73.0731 8.87012 72.4689 8.87012ZM64.3764 8.87012H61.6788C61.0746 8.87012 60.5851 8.38034 60.5851 7.77637C60.5851 7.1724 61.0746 6.68262 61.6788 6.68262H64.3764C64.9806 6.68262 65.4702 7.1724 65.4702 7.77637C65.4702 8.38034 64.9806 8.87012 64.3764 8.87012ZM56.2838 8.87012H53.5862C52.982 8.87012 52.4924 8.38034 52.4924 7.77637C52.4924 7.1724 52.982 6.68262 53.5862 6.68262H56.2838C56.888 6.68262 57.3775 7.1724 57.3775 7.77637C57.3775 8.38034 56.888 8.87012 56.2838 8.87012Z" fill="#7854F7"/>
<path d="M74.1726 21.5947H53.2109C52.607 21.5947 52.1172 21.1049 52.1172 20.501V14.7312C52.1172 14.1272 52.607 13.6375 53.2109 13.6375H74.1726C74.7766 13.6375 75.2664 14.1272 75.2664 14.7312V20.501C75.2664 21.1049 74.7768 21.5947 74.1726 21.5947Z" fill="#6583FE"/>
<path d="M74.1726 22.6885H53.2109C52.0047 22.6885 51.0234 21.7071 51.0234 20.501V14.7312C51.0234 13.525 52.0047 12.5437 53.2109 12.5437H74.1726C75.3788 12.5437 76.3601 13.525 76.3601 14.7312V20.501C76.3601 21.7071 75.3788 22.6885 74.1726 22.6885ZM53.2109 14.7312V20.501H74.1742L74.1726 14.7314H53.2109V14.7312Z" fill="#7854F7"/>
<path d="M75.2637 28.0178H63.2891C62.6849 28.0178 62.1953 27.528 62.1953 26.9241C62.1953 26.3201 62.6849 25.8303 63.2891 25.8303H75.2637C75.8678 25.8303 76.3574 26.3201 76.3574 26.9241C76.3574 27.528 75.8678 28.0178 75.2637 28.0178Z" fill="#7854F7"/>
<path d="M75.2637 32.1882H63.2891C62.6849 32.1882 62.1953 31.6984 62.1953 31.0945C62.1953 30.4905 62.6849 30.0007 63.2891 30.0007H75.2637C75.8678 30.0007 76.3574 30.4905 76.3574 31.0945C76.3574 31.6984 75.8678 32.1882 75.2637 32.1882Z" fill="#7854F7"/>
<path d="M82.6503 44.8103H49.9102L43.6102 38.3296C43.2007 37.9085 42.6291 37.667 42.0417 37.667H29.3483C28.1421 37.667 27.1608 38.6483 27.1608 39.8545V51.8462C27.1608 52.4501 27.6504 52.9399 28.2546 52.9399C28.8588 52.9399 29.3483 52.4501 29.3483 51.8462V39.8545H42.0417L48.6637 46.6666C48.8696 46.8783 49.1524 46.998 49.4479 46.998H82.65V74.405H75.0006C74.2306 72.9186 73.2875 71.5159 72.1756 70.2338C68.8397 66.3867 64.244 63.8492 59.2352 63.0892C58.6383 62.9989 58.0805 63.4093 57.9899 64.0065C57.8993 64.6037 58.3099 65.1612 58.9071 65.2518C63.4022 65.9339 67.5274 68.2122 70.523 71.6669C73.5485 75.1562 75.2147 79.6243 75.2147 84.2487C75.2147 94.8443 66.5947 103.464 55.9991 103.464C45.4035 103.464 36.7834 94.8441 36.7834 84.2487C36.7834 79.6508 38.4328 75.2023 41.4279 71.7222C44.3918 68.2784 48.4806 65.9892 52.9416 65.2761C53.5381 65.1807 53.9443 64.6198 53.849 64.0233C53.7534 63.4268 53.1921 63.0203 52.5962 63.1159C47.6255 63.9104 43.0703 66.4602 39.7696 70.2951C38.6808 71.5601 37.7549 72.9417 36.9971 74.4047H29.3477V58.1481C29.3477 57.5442 28.8581 57.0544 28.2539 57.0544C27.6497 57.0544 27.1602 57.5442 27.1602 58.1481V74.4045C27.1602 75.6107 28.1415 76.592 29.3477 76.592H36.0156C35.0866 79.0173 34.5955 81.6102 34.5955 84.2483C34.5955 96.0498 44.1971 105.651 55.9986 105.651C67.8002 105.651 77.4018 96.0498 77.4018 84.2483C77.4018 81.6091 76.9113 79.0167 75.9827 76.592H82.6496C83.8558 76.592 84.8371 75.6107 84.8371 74.4045V46.9978C84.8377 45.7916 83.8564 44.8103 82.6503 44.8103Z" fill="#7854F7"/>
</g>
<defs>
<linearGradient id="paint0_linear" x1="18.4215" y1="102.143" x2="111.848" y2="8.71655" gradientUnits="userSpaceOnUse">
<stop stop-color="#FFD9D9" stop-opacity="0"/>
<stop offset="0.9981" stop-color="#FFB3B3"/>
</linearGradient>
<clipPath id="clip0">
<rect width="112" height="112" fill="white"/>
</clipPath>
</defs>
</svg>
