<svg width="112" height="112" viewBox="0 0 112 112" fill="none" xmlns="http://www.w3.org/2000/svg">
<g clip-path="url(#clip0)">
<path d="M108.367 56C108.367 85.9248 84.4629 104.465 54.5383 104.465C24.6137 104.465 0 85.9248 0 56C0 26.0752 24.2588 1.81641 54.1836 1.81641C84.1084 1.81641 108.367 26.0752 108.367 56Z" fill="#8757F3"/>
<path d="M103.872 77.6316H103.873C106.761 71.005 108.367 63.6907 108.367 56C108.367 43.7637 104.309 32.4762 97.4681 23.4057H40.4001C37.3765 23.4057 34.9254 25.8569 34.9254 28.8804V47.812C34.9254 50.3229 33.4158 52.5863 31.0987 53.5541C28.7347 54.5416 26.55 55.872 24.6063 57.4834C20.6313 60.7787 14.5929 59.1205 12.9851 54.2139C12.9326 54.0537 12.8809 53.8933 12.8299 53.7327C10.5646 46.5928 0.0538283 48.1245 0.00131288 55.6149C0.000437628 55.7434 0 55.8716 0 56C0 85.9248 24.2588 110.184 54.1836 110.184C76.3475 110.184 95.4948 96.8485 103.872 77.6316ZM72.5008 77.6316H89.6519C93.3301 77.6316 94.6196 82.5004 91.4306 84.3336C85.9467 87.4858 79.9096 89.6744 73.5484 90.7457C68.9811 91.5151 65.0987 87.4101 66.0972 82.8875C66.1079 82.8393 66.1182 82.7912 66.1287 82.7431C66.7711 79.7514 69.4413 77.6316 72.5008 77.6316Z" fill="#6A2BC2"/>
<path d="M111.997 30.8631V23.4147C111.997 20.3911 109.661 17.9399 106.637 17.9399H44.6445V30.8631H111.997Z" fill="#00B7F0"/>
<path d="M44.6445 42.2609V72.1658H106.637C109.661 72.1658 111.997 69.7147 111.997 66.6911V42.2609H44.6445Z" fill="#00B7F0"/>
<path d="M47.2223 30.8631C46.3387 29.6953 45.814 28.2408 45.814 26.6634C45.814 21.8456 49.7196 17.9399 54.5375 17.9399H35.4083C32.3847 17.9399 29.9336 20.3911 29.9336 23.4147V30.8631H47.2223Z" fill="#0091C8"/>
<path d="M29.9336 42.2609V66.6908C29.9336 69.7146 32.3848 72.1656 35.4083 72.1656H54.5375C49.7196 72.1656 45.814 68.26 45.814 63.4421C45.814 54.4136 53.1331 47.0945 62.1616 47.0945H111.999V42.2607H29.9336V42.2609Z" fill="#0091C8"/>
<path d="M29.9336 30.0016H69.9297V43.4648H29.9336V30.0016Z" fill="#6A2BC2"/>
<path d="M61.1836 36.7332C61.1836 40.4509 64.1973 43.4648 67.9152 43.4648H112.001V30.0016H67.9152C64.1975 30.0016 61.1836 33.0156 61.1836 36.7332Z" fill="#8757F3"/>
<path d="M96.5385 67.8632C100.232 67.8632 103.225 64.8694 103.225 61.1763C103.225 57.4832 100.232 54.4893 96.5385 54.4893C92.8454 54.4893 89.8516 57.4832 89.8516 61.1763C89.8516 64.8694 92.8454 67.8632 96.5385 67.8632Z" fill="white"/>
<path d="M60.6107 53.306H45.7463C45.1377 53.306 44.6445 52.8128 44.6445 52.2043V49.7612C44.6445 49.1527 45.1377 48.6595 45.7463 48.6595H60.6107C61.2193 48.6595 61.7125 49.1527 61.7125 49.7612V52.2043C61.7125 52.8126 61.2193 53.306 60.6107 53.306Z" fill="#0091C8"/>
<path d="M74.6587 53.306H67.0431C66.4346 53.306 65.9414 52.8128 65.9414 52.2043V49.7612C65.9414 49.1527 66.4346 48.6595 67.0431 48.6595H74.6587C75.2673 48.6595 75.7605 49.1527 75.7605 49.7612V52.2043C75.7607 52.8126 75.2673 53.306 74.6587 53.306Z" fill="#0091C8"/>
<path d="M88.9634 53.306H81.3478C80.7393 53.306 80.2461 52.8128 80.2461 52.2043V49.7612C80.2461 49.1527 80.7393 48.6595 81.3478 48.6595H88.9634C89.5719 48.6595 90.0652 49.1527 90.0652 49.7612V52.2043C90.0652 52.8126 89.5719 53.306 88.9634 53.306Z" fill="#0091C8"/>
<path d="M103.272 53.306H95.6564C95.0479 53.306 94.5547 52.8128 94.5547 52.2043V49.7612C94.5547 49.1527 95.0479 48.6595 95.6564 48.6595H103.272C103.881 48.6595 104.374 49.1527 104.374 49.7612V52.2043C104.374 52.8126 103.881 53.306 103.272 53.306Z" fill="#0091C8"/>
<path d="M60.6107 51.7178H45.7463C45.1377 51.7178 44.6445 51.2246 44.6445 50.6161V48.173C44.6445 47.5645 45.1377 47.0713 45.7463 47.0713H60.6107C61.2193 47.0713 61.7125 47.5645 61.7125 48.173V50.6161C61.7125 51.2246 61.2193 51.7178 60.6107 51.7178Z" fill="#B6FFF6"/>
<path d="M74.6587 51.7178H67.0431C66.4346 51.7178 65.9414 51.2246 65.9414 50.6161V48.173C65.9414 47.5645 66.4346 47.0713 67.0431 47.0713H74.6587C75.2673 47.0713 75.7605 47.5645 75.7605 48.173V50.6161C75.7607 51.2246 75.2673 51.7178 74.6587 51.7178Z" fill="#B6FFF6"/>
<path d="M88.9634 51.7178H81.3478C80.7393 51.7178 80.2461 51.2246 80.2461 50.6161V48.173C80.2461 47.5645 80.7393 47.0713 81.3478 47.0713H88.9634C89.5719 47.0713 90.0652 47.5645 90.0652 48.173V50.6161C90.0652 51.2246 89.5719 51.7178 88.9634 51.7178Z" fill="#B6FFF6"/>
<path d="M103.272 51.7178H95.6564C95.0479 51.7178 94.5547 51.2246 94.5547 50.6161V48.173C94.5547 47.5645 95.0479 47.0713 95.6564 47.0713H103.272C103.881 47.0713 104.374 47.5645 104.374 48.173V50.6161C104.374 51.2246 103.881 51.7178 103.272 51.7178Z" fill="#B6FFF6"/>
<path d="M36.0058 96.4281C49.5961 96.4281 60.6132 85.411 60.6132 71.8207C60.6132 58.2304 49.5961 47.2133 36.0058 47.2133C22.4155 47.2133 11.3984 58.2304 11.3984 71.8207C11.3984 85.411 22.4155 96.4281 36.0058 96.4281Z" fill="#FEC502"/>
<path d="M10.2969 71.8207C10.2969 86.0195 21.8074 97.5298 36.006 97.5298V46.1116C21.8074 46.1116 10.2969 57.6218 10.2969 71.8207Z" fill="#FFE65A"/>
<path d="M36.006 52.9173C46.4294 52.9173 54.9093 61.3973 54.9093 71.8207C54.9093 82.2441 46.4294 90.724 36.006 90.724C25.5828 90.724 17.1027 82.2441 17.1027 71.8207C17.1027 61.3973 25.5826 52.9173 36.006 52.9173ZM36.006 46.1116C21.8072 46.1116 10.2969 57.6221 10.2969 71.8207C10.2969 86.0193 21.8072 97.5298 36.006 97.5298C50.2048 97.5298 61.7151 86.0193 61.7151 71.8207C61.7151 57.6221 50.2048 46.1116 36.006 46.1116Z" fill="#FFA50A"/>
<path d="M33.559 47.7429C33.5481 47.1221 33.8161 46.4952 34.364 46.1656C21.6256 46.9696 11.4065 57.0486 10.3844 69.7267C10.305 70.7118 11.0945 71.5516 12.0826 71.5516C12.9736 71.5516 13.7056 70.8634 13.7787 69.9755C14.694 58.8505 23.8084 50.0187 35.05 49.5409C34.0408 49.4315 33.5446 48.5824 33.559 47.7429Z" fill="#FFE65A"/>
<path d="M59.9523 71.8542C59.0554 71.8542 58.3202 72.5511 58.2556 73.4456C57.4277 84.8911 47.9254 93.9691 36.3086 94.1231C37.9339 94.5185 37.9803 97.0053 36.4526 97.5246C49.8282 97.2979 60.7164 86.8576 61.6521 73.6657C61.7214 72.6857 60.9352 71.8542 59.9523 71.8542Z" fill="#FA870A"/>
<path d="M35.8194 60.1824C35.0763 60.1824 34.5358 60.6216 34.5358 61.0945V62.0404C30.9554 62.5472 27.7802 64.6075 27.7802 68.8976C27.7802 73.2213 31.4282 74.6738 34.5358 75.8561V81.3284C32.0363 80.8893 30.8878 78.8963 29.469 78.8963C28.1854 78.8963 27.1719 80.5853 27.1719 81.7337C27.1719 83.8955 30.4823 85.9898 34.5356 86.125V86.9694C34.5356 87.4425 35.0761 87.8815 35.8192 87.8815C36.461 87.8815 37.1028 87.4423 37.1028 86.9694V85.9898C41.055 85.348 43.7571 82.8146 43.7571 78.6261C43.7571 74.0658 40.1767 72.4783 37.1028 71.3297V66.3978C39.2986 66.5668 39.9401 67.6477 41.055 67.6477C42.5414 67.6477 43.1492 65.79 43.1492 64.8777C43.1492 62.5472 39.197 62.0067 37.1028 61.9391V61.0945C37.1032 60.6216 36.4612 60.1824 35.8194 60.1824ZM34.8737 70.519C33.5901 69.9785 32.7118 69.3704 32.7118 68.391C32.7118 67.5803 33.3536 66.8033 34.8737 66.4994V70.519ZM36.7651 81.2945V76.7681C37.9813 77.3423 38.8257 78.0517 38.8257 79.1665C38.8259 80.3825 37.9137 81.024 36.7651 81.2945Z" fill="#FFA50A"/>
<path d="M34.5317 83.1025C30.4782 82.9673 27.168 80.873 27.168 78.7111C27.168 77.5626 28.1813 75.8738 29.4651 75.8738C30.8839 75.8738 32.0324 77.8667 34.5319 78.3059V72.8336C31.4243 71.6513 27.7763 70.1988 27.7763 65.8751C27.7763 61.5852 30.9515 59.5246 34.5319 59.0179V58.0719C34.5319 57.5991 35.0724 57.1599 35.8155 57.1599C36.4573 57.1599 37.0991 57.5991 37.0991 58.0719V58.9165C39.1933 58.9842 43.1456 59.5246 43.1456 61.8552C43.1456 62.7672 42.5377 64.6252 41.0513 64.6252C39.9364 64.6252 39.2949 63.5443 37.0991 63.3753V68.3072C40.173 69.4557 43.7534 71.0432 43.7534 75.6035C43.7534 79.7921 41.0513 82.3255 37.0991 82.9673V83.9469C37.0991 84.42 36.4573 84.8589 35.8155 84.8589C35.0724 84.8589 34.5319 84.4198 34.5319 83.9469V83.1025H34.5317ZM34.8696 67.4967V63.4769C33.3495 63.781 32.7077 64.5578 32.7077 65.3685C32.7077 66.3481 33.5858 66.9562 34.8696 67.4967ZM36.761 73.7458V78.2722C37.9096 78.002 38.8216 77.3602 38.8216 76.1442C38.8218 75.0294 37.9772 74.32 36.761 73.7458Z" fill="white"/>
</g>
<defs>
<clipPath id="clip0">
<rect width="112" height="112" fill="white"/>
</clipPath>
</defs>
</svg>
