<svg width="780" height="505" viewBox="0 0 780 505" fill="none" xmlns="http://www.w3.org/2000/svg">
<g style="mix-blend-mode:screen">
<g style="mix-blend-mode:screen">
<path d="M64.6967 559.715L4.18238 517.879L33.7761 448.715L121.761 541.897L186.235 561.144L202.43 488.104L152.063 427.309L207.039 397.511L285.244 355.12L260.957 489.489L349.654 424.897L364.979 481.463L427.03 542.982L504.321 565.756L569.068 575.271L496.469 503.643L437.151 389.241L546.56 308.547L627.411 248.913L684.69 226.094L688.365 325.597L689.896 367.05L517.69 349.768L505.271 450.53L591.989 351.297L617.069 322.604L560.077 336.752L606.092 212.166L626.955 249.695L664.396 323.924L583.809 369.957L619.487 381.693L596.561 473.066L636.696 488.251L672.2 429.397L630.877 400.238L697.302 524.266L737.737 471.799L736.053 323.095L690.225 366.719L727.614 384.977L783.095 473.468L915.483 563.075L950.872 525.822L914.638 459.358L844.521 503.29L866.223 353.572L775.559 348.803L768.727 397.797L840.83 314.025L684.91 226.073L713.643 296.504L804.178 284.813L830.626 229.054L735.542 107.065L783.275 239.085L725.767 231.554L692.503 181.406L755.642 150.318L778.204 175.248L803.778 126.613L661.955 128.574L653.407 63.1645L735.02 106.758L741.034 2.64729L803.346 126.285" stroke="#01ECA5" stroke-width="0.46" stroke-miterlimit="10"/>
</g>
<g style="mix-blend-mode:screen">
<path d="M685.084 226.682L692.504 181.406L714.167 296.992L725.585 230.755L685.084 226.682Z" stroke="#01ECA5" stroke-width="0.46" stroke-miterlimit="10"/>
</g>
<g style="mix-blend-mode:screen">
<path d="M437.153 389.241L433.009 452.192L427.031 542.982L496.759 503.272L505.272 450.53L437.153 389.241Z" stroke="#01ECA5" stroke-width="0.46" stroke-miterlimit="10"/>
</g>
<g style="mix-blend-mode:screen">
<path d="M437.153 389.241L517.924 350.187L596.563 473.066L496.759 503.272L349.655 424.897L437.153 389.241ZM437.153 389.241L618.411 382.339L636.697 488.251L696.422 523.961L568.472 575.614L596.585 473.626L631.321 400.676L689.898 367.051L672.201 429.397L768.728 397.797L737.738 471.799L866.224 353.572L840.343 314.278L736.246 323.454L768.728 397.797L727.498 385.518L775.254 349.685L690.226 366.719L664.398 323.924L617.071 322.604L684.912 226.073L606.42 213.585L633.3 172.444L661.957 128.574L755.644 150.318L725.585 230.755L778.07 174.059" stroke="#01ECA5" stroke-width="0.46" stroke-miterlimit="10"/>
</g>
<g style="mix-blend-mode:screen">
<path d="M559.01 337.397L517.922 350.187L635.875 488.235L617.069 322.604L606.091 212.167L713.637 297.314L736.245 323.454L775.253 349.685L725.583 230.755L866.223 353.572L830.626 229.054L804.014 125.882L735.542 107.065L661.955 128.574L692.503 181.406L777.073 175.034L830.361 227.895L782.424 238.939L804.177 284.813L775.674 349.863L844.521 503.29L781.957 473.804L697.301 524.266L915.483 563.075L914.404 458.499L865.511 353.126" stroke="#01ECA5" stroke-width="0.46" stroke-miterlimit="10"/>
</g>
<g style="mix-blend-mode:screen">
<path d="M365.878 481.339L279.561 459.529L152.063 427.309L186.234 561.144L260.957 489.489L427.029 542.982L349.653 424.897L505.27 450.53" stroke="#01ECA5" stroke-width="0.46" stroke-miterlimit="10"/>
</g>
<g style="mix-blend-mode:screen">
<path d="M152.063 427.309L4.18239 517.879L121.761 541.897L64.005 559.369L34.146 448.693L152.063 427.309ZM152.063 427.309L121.761 541.897" stroke="#01ECA5" stroke-width="0.46" stroke-miterlimit="10"/>
</g>
<g style="mix-blend-mode:screen">
<path d="M34.1463 448.693L202.43 488.104L260.958 489.489L364.98 481.463L496.469 503.643L504.322 565.756L596.562 473.066L505.271 450.53L583.81 369.957L630.339 400.561L727.497 385.518L672.2 429.397L737.524 471.21L782.557 473.751L866.223 353.572L768.727 397.797L844.522 503.29L950.873 525.822" stroke="#01ECA5" stroke-width="0.46" stroke-miterlimit="10"/>
</g>
<g style="mix-blend-mode:screen">
<path d="M284.853 354.872L202.43 488.104L121.761 541.897L427.03 542.982L313.578 392.882L284.853 354.872Z" stroke="#01ECA5" stroke-width="0.46" stroke-miterlimit="10"/>
</g>
<g style="mix-blend-mode:screen">
<path d="M778.3 176.828C777.824 176.931 777.327 176.843 776.915 176.582C776.504 176.321 776.213 175.909 776.104 175.434C775.995 174.959 776.077 174.461 776.334 174.047C776.59 173.633 776.999 173.336 777.472 173.222C777.948 173.118 778.446 173.207 778.857 173.468C779.268 173.729 779.56 174.141 779.669 174.616C779.778 175.09 779.695 175.589 779.439 176.003C779.182 176.417 778.773 176.713 778.3 176.828Z" fill="#FF7EB8"/>
</g>
<path d="M778.026 175.649C778.105 175.637 778.179 175.606 778.244 175.561C778.31 175.515 778.364 175.456 778.403 175.386C778.442 175.317 778.465 175.24 778.47 175.16C778.475 175.081 778.462 175.001 778.432 174.927C778.361 174.648 778.2 174.348 777.75 174.451C777.676 174.459 777.606 174.484 777.543 174.524C777.481 174.565 777.429 174.619 777.391 174.682C777.336 174.841 777.336 175.014 777.394 175.172C777.415 175.442 777.576 175.751 778.026 175.649Z" fill="#01ECA5"/>
<g style="mix-blend-mode:screen">
<path d="M756.431 152.574C756.194 152.629 755.949 152.637 755.709 152.597C755.469 152.558 755.24 152.471 755.034 152.342C754.827 152.214 754.648 152.046 754.507 151.848C754.365 151.651 754.264 151.427 754.209 151.19C754.154 150.953 754.146 150.708 754.186 150.468C754.226 150.229 754.313 149.999 754.441 149.793C754.57 149.586 754.738 149.407 754.935 149.266C755.133 149.125 755.357 149.023 755.594 148.968C756.072 148.857 756.574 148.941 756.991 149.2C757.408 149.46 757.704 149.874 757.815 150.353C757.926 150.831 757.843 151.334 757.583 151.75C757.324 152.167 756.909 152.463 756.431 152.574Z" fill="#FF7EB8"/>
</g>
<path d="M756.156 151.375C756.299 151.324 756.419 151.221 756.491 151.087C756.564 150.953 756.584 150.797 756.549 150.648C756.513 150.5 756.425 150.37 756.299 150.283C756.174 150.196 756.021 150.158 755.87 150.177C755.796 150.185 755.726 150.21 755.664 150.251C755.601 150.291 755.549 150.345 755.511 150.409C755.456 150.567 755.456 150.74 755.514 150.899C755.519 150.974 755.541 151.048 755.578 151.114C755.615 151.18 755.665 151.238 755.726 151.283C755.787 151.329 755.857 151.36 755.931 151.376C756.005 151.392 756.082 151.392 756.156 151.375Z" fill="#01ECA5"/>
<g style="mix-blend-mode:screen">
<path d="M726.154 233.082C725.679 233.186 725.181 233.098 724.77 232.837C724.359 232.576 724.067 232.163 723.958 231.688C723.849 231.214 723.932 230.715 724.188 230.301C724.444 229.887 724.853 229.591 725.327 229.476C725.803 229.373 726.3 229.461 726.711 229.722C727.122 229.983 727.414 230.396 727.523 230.87C727.632 231.345 727.549 231.843 727.293 232.258C727.037 232.672 726.628 232.968 726.154 233.082Z" fill="#FF7EB8"/>
</g>
<path d="M725.83 231.834C726.079 231.783 726.159 231.672 726.189 231.602C726.261 231.449 726.278 231.276 726.236 231.112C726.232 231.032 726.209 230.954 726.17 230.884C726.131 230.814 726.076 230.754 726.011 230.708C725.945 230.662 725.87 230.632 725.791 230.619C725.711 230.607 725.63 230.612 725.554 230.635C725.48 230.644 725.409 230.669 725.347 230.709C725.285 230.749 725.233 230.803 725.195 230.867C725.139 231.026 725.14 231.199 725.197 231.357C725.219 231.637 725.39 231.936 725.83 231.834Z" fill="#01ECA5"/>
<g style="mix-blend-mode:screen">
<path d="M685.343 228.381C684.867 228.484 684.37 228.396 683.958 228.135C683.547 227.874 683.256 227.462 683.147 226.987C683.038 226.512 683.12 226.014 683.377 225.6C683.633 225.186 684.042 224.889 684.515 224.775C684.991 224.671 685.489 224.76 685.9 225.021C686.311 225.282 686.603 225.694 686.712 226.169C686.82 226.643 686.738 227.142 686.482 227.556C686.225 227.97 685.816 228.267 685.343 228.381Z" fill="#FF7EB8"/>
</g>
<path d="M685.066 227.182C685.144 227.17 685.219 227.139 685.284 227.094C685.349 227.048 685.404 226.989 685.443 226.919C685.482 226.85 685.505 226.773 685.51 226.693C685.515 226.614 685.502 226.534 685.472 226.46C685.401 226.181 685.239 225.871 684.79 225.974C684.715 225.983 684.644 226.01 684.582 226.052C684.519 226.094 684.468 226.15 684.431 226.215C684.374 226.374 684.375 226.547 684.433 226.705C684.455 226.975 684.616 227.285 685.066 227.182Z" fill="#01ECA5"/>
<g style="mix-blend-mode:screen">
<path d="M693.263 183.242C692.785 183.353 692.282 183.269 691.866 183.01C691.449 182.75 691.152 182.336 691.041 181.858C690.93 181.379 691.014 180.877 691.273 180.46C691.533 180.043 691.947 179.747 692.426 179.636C694.753 179.104 695.591 182.71 693.263 183.242Z" fill="#FF7EB8"/>
</g>
<path d="M692.986 182.003C693.059 181.993 693.129 181.967 693.19 181.927C693.252 181.887 693.305 181.834 693.344 181.772C693.4 181.613 693.399 181.44 693.342 181.282C693.281 181.002 693.109 180.693 692.67 180.805C692.42 180.856 692.341 180.956 692.301 181.037C692.25 181.196 692.251 181.368 692.303 181.527C692.308 181.607 692.331 181.684 692.37 181.754C692.409 181.824 692.463 181.884 692.529 181.93C692.595 181.976 692.67 182.007 692.749 182.019C692.828 182.032 692.909 182.026 692.986 182.003Z" fill="#01ECA5"/>
<g style="mix-blend-mode:screen">
<path d="M627.62 250.832C627.141 250.943 626.639 250.86 626.222 250.6C625.805 250.341 625.509 249.926 625.398 249.448C625.287 248.97 625.37 248.467 625.63 248.05C625.889 247.634 626.304 247.337 626.782 247.226C629.109 246.695 629.947 250.301 627.62 250.832Z" fill="#FF7EB8"/>
</g>
<path d="M627.344 249.634C627.417 249.623 627.487 249.597 627.549 249.557C627.611 249.517 627.663 249.464 627.703 249.402C627.759 249.243 627.758 249.07 627.701 248.912C627.639 248.632 627.468 248.323 627.028 248.435C626.778 248.436 626.699 248.587 626.659 248.667C626.608 248.826 626.609 248.998 626.662 249.157C626.666 249.237 626.689 249.315 626.728 249.385C626.767 249.455 626.822 249.515 626.887 249.561C626.953 249.606 627.028 249.637 627.107 249.65C627.186 249.662 627.267 249.657 627.344 249.634Z" fill="#01ECA5"/>
<g style="mix-blend-mode:screen">
<path d="M736.362 325.324C735.887 325.427 735.389 325.339 734.978 325.078C734.567 324.817 734.275 324.404 734.166 323.93C734.057 323.455 734.14 322.957 734.396 322.543C734.652 322.128 735.062 321.832 735.535 321.718C736.011 321.614 736.508 321.703 736.919 321.964C737.33 322.224 737.622 322.637 737.731 323.112C737.84 323.586 737.757 324.085 737.501 324.499C737.245 324.913 736.836 325.209 736.362 325.324Z" fill="#FF7EB8"/>
</g>
<path d="M736.087 324.125C736.166 324.112 736.241 324.082 736.306 324.037C736.371 323.991 736.425 323.931 736.464 323.862C736.504 323.793 736.526 323.715 736.532 323.636C736.537 323.557 736.524 323.477 736.494 323.403C736.433 323.123 736.261 322.814 735.812 322.927C735.737 322.932 735.666 322.957 735.603 322.997C735.54 323.038 735.489 323.093 735.453 323.158C735.397 323.317 735.398 323.49 735.455 323.648C735.476 323.918 735.648 324.227 736.087 324.125Z" fill="#01ECA5"/>
<g style="mix-blend-mode:screen">
<path d="M769.337 399.564C768.873 399.634 768.4 399.527 768.012 399.263C767.624 398.998 767.351 398.598 767.246 398.14C767.141 397.683 767.213 397.203 767.448 396.796C767.682 396.39 768.061 396.087 768.509 395.948C768.973 395.878 769.446 395.986 769.834 396.25C770.222 396.514 770.496 396.915 770.6 397.373C770.705 397.83 770.633 398.31 770.399 398.716C770.164 399.123 769.785 399.426 769.337 399.564Z" fill="#FF7EB8"/>
</g>
<path d="M769.059 398.356C769.138 398.343 769.213 398.313 769.278 398.267C769.343 398.221 769.397 398.162 769.436 398.092C769.475 398.023 769.498 397.946 769.503 397.866C769.509 397.787 769.496 397.707 769.466 397.634C769.394 397.354 769.233 397.055 768.783 397.157C768.71 397.165 768.639 397.19 768.577 397.231C768.515 397.271 768.462 397.325 768.425 397.389C768.363 397.546 768.364 397.721 768.427 397.879C768.448 398.159 768.61 398.458 769.059 398.356Z" fill="#01ECA5"/>
<g style="mix-blend-mode:screen">
<path d="M776.002 351.621C775.538 351.691 775.065 351.583 774.677 351.319C774.289 351.055 774.016 350.654 773.911 350.197C773.806 349.74 773.878 349.26 774.113 348.853C774.347 348.447 774.726 348.144 775.174 348.005C775.638 347.935 776.111 348.043 776.499 348.307C776.887 348.571 777.161 348.972 777.265 349.429C777.37 349.887 777.298 350.367 777.064 350.773C776.829 351.18 776.45 351.483 776.002 351.621Z" fill="#FF7EB8"/>
</g>
<path d="M775.725 350.412C775.867 350.36 775.984 350.258 776.056 350.126C776.128 349.993 776.149 349.839 776.115 349.692C776.081 349.545 775.995 349.415 775.872 349.327C775.75 349.239 775.599 349.199 775.449 349.214C775.371 349.226 775.296 349.256 775.231 349.302C775.166 349.347 775.112 349.407 775.074 349.477C775.035 349.547 775.013 349.625 775.01 349.704C775.006 349.784 775.021 349.863 775.053 349.936C775.114 350.205 775.286 350.515 775.725 350.412Z" fill="#01ECA5"/>
<g style="mix-blend-mode:screen">
<path d="M714.346 298.641C713.87 298.744 713.372 298.656 712.961 298.395C712.55 298.134 712.258 297.721 712.15 297.247C712.041 296.772 712.123 296.273 712.379 295.859C712.636 295.445 713.045 295.149 713.518 295.035C713.994 294.931 714.492 295.019 714.903 295.28C715.314 295.541 715.605 295.954 715.714 296.428C715.823 296.903 715.741 297.402 715.485 297.816C715.228 298.23 714.819 298.526 714.346 298.641Z" fill="#FF7EB8"/>
</g>
<path d="M714.068 297.442C714.147 297.429 714.221 297.399 714.287 297.353C714.352 297.308 714.406 297.248 714.445 297.179C714.484 297.11 714.507 297.032 714.512 296.953C714.517 296.873 714.504 296.794 714.475 296.72C714.403 296.44 714.242 296.141 713.792 296.243C713.719 296.252 713.648 296.277 713.586 296.317C713.523 296.357 713.471 296.411 713.433 296.475C713.372 296.633 713.373 296.808 713.436 296.965C713.467 297.235 713.619 297.544 714.068 297.442Z" fill="#01ECA5"/>
<g style="mix-blend-mode:screen">
<path d="M690.814 368.796C690.351 368.866 689.877 368.758 689.49 368.494C689.102 368.23 688.828 367.829 688.724 367.372C688.619 366.915 688.691 366.435 688.925 366.028C689.159 365.622 689.539 365.319 689.987 365.18C690.451 365.11 690.924 365.218 691.312 365.482C691.699 365.746 691.973 366.147 692.078 366.604C692.182 367.062 692.11 367.542 691.876 367.948C691.642 368.354 691.263 368.657 690.814 368.796Z" fill="#FF7EB8"/>
</g>
<path d="M690.529 367.587C690.67 367.535 690.788 367.433 690.86 367.301C690.931 367.168 690.952 367.014 690.918 366.867C690.885 366.72 690.798 366.59 690.676 366.502C690.553 366.414 690.403 366.374 690.253 366.389C690.179 366.397 690.109 366.422 690.046 366.462C689.984 366.503 689.932 366.557 689.894 366.62C689.838 366.779 689.839 366.952 689.896 367.11C689.918 367.39 690.089 367.69 690.529 367.587Z" fill="#01ECA5"/>
<g style="mix-blend-mode:screen">
<path d="M727.994 387.075C727.518 387.179 727.021 387.09 726.61 386.829C726.199 386.569 725.907 386.156 725.798 385.681C725.689 385.207 725.772 384.708 726.028 384.294C726.284 383.88 726.693 383.584 727.167 383.469C727.643 383.366 728.14 383.454 728.551 383.715C728.962 383.976 729.254 384.389 729.363 384.863C729.472 385.338 729.389 385.836 729.133 386.25C728.877 386.665 728.468 386.961 727.994 387.075Z" fill="#FF7EB8"/>
</g>
<path d="M727.717 385.897C727.796 385.884 727.87 385.854 727.936 385.808C728.001 385.762 728.055 385.703 728.094 385.633C728.133 385.564 728.156 385.487 728.161 385.407C728.166 385.328 728.153 385.248 728.123 385.175C728.062 384.895 727.891 384.586 727.441 384.688C727.367 384.697 727.295 384.724 727.233 384.766C727.171 384.808 727.119 384.864 727.082 384.93C727.026 385.088 727.027 385.262 727.085 385.42C727.106 385.689 727.278 385.999 727.717 385.897Z" fill="#01ECA5"/>
<g style="mix-blend-mode:screen">
<path d="M665.044 325.871C664.568 325.974 664.071 325.886 663.66 325.625C663.248 325.364 662.957 324.952 662.848 324.477C662.739 324.002 662.821 323.504 663.078 323.09C663.334 322.676 663.743 322.379 664.216 322.265C664.692 322.162 665.19 322.25 665.601 322.511C666.012 322.772 666.304 323.184 666.413 323.659C666.522 324.134 666.439 324.632 666.183 325.046C665.927 325.46 665.517 325.757 665.044 325.871Z" fill="#FF7EB8"/>
</g>
<path d="M664.769 324.672C664.848 324.66 664.923 324.629 664.988 324.584C665.053 324.538 665.107 324.478 665.146 324.409C665.185 324.34 665.208 324.262 665.213 324.183C665.218 324.104 665.206 324.024 665.176 323.95C665.114 323.671 664.943 323.361 664.493 323.464C664.419 323.473 664.348 323.5 664.285 323.542C664.223 323.584 664.171 323.64 664.135 323.705C664.073 323.863 664.074 324.038 664.137 324.195C664.158 324.465 664.32 324.774 664.769 324.672Z" fill="#01ECA5"/>
<g style="mix-blend-mode:screen">
<path d="M631.429 402.615C630.953 402.719 630.455 402.631 630.044 402.37C629.633 402.109 629.341 401.696 629.233 401.221C629.124 400.747 629.206 400.248 629.463 399.834C629.719 399.42 630.128 399.124 630.601 399.009C631.077 398.906 631.575 398.994 631.986 399.255C632.397 399.516 632.689 399.929 632.797 400.403C632.906 400.878 632.824 401.376 632.568 401.791C632.311 402.205 631.902 402.501 631.429 402.615Z" fill="#FF7EB8"/>
</g>
<path d="M631.153 401.417C631.23 401.403 631.304 401.372 631.368 401.325C631.432 401.279 631.485 401.22 631.523 401.15C631.561 401.081 631.583 401.004 631.588 400.926C631.592 400.847 631.579 400.768 631.549 400.695C631.488 400.415 631.316 400.106 630.877 400.208C630.627 400.269 630.548 400.37 630.508 400.45C630.457 400.609 630.458 400.781 630.51 400.94C630.516 401.015 630.538 401.089 630.575 401.155C630.612 401.222 630.662 401.279 630.723 401.325C630.784 401.37 630.854 401.402 630.928 401.417C631.002 401.433 631.079 401.433 631.153 401.417Z" fill="#01ECA5"/>
<g style="mix-blend-mode:screen">
<path d="M672.178 431.097C671.714 431.168 671.241 431.06 670.853 430.796C670.465 430.531 670.192 430.131 670.087 429.673C669.982 429.216 670.054 428.736 670.288 428.33C670.523 427.923 670.902 427.62 671.35 427.481C671.814 427.411 672.287 427.519 672.675 427.783C673.063 428.047 673.336 428.448 673.441 428.906C673.546 429.363 673.474 429.843 673.239 430.249C673.005 430.656 672.626 430.959 672.178 431.097Z" fill="#FF7EB8"/>
</g>
<path d="M671.902 429.889C671.98 429.876 672.055 429.846 672.12 429.8C672.186 429.755 672.24 429.695 672.279 429.626C672.318 429.556 672.341 429.479 672.346 429.4C672.351 429.32 672.338 429.241 672.308 429.167C672.237 428.887 672.076 428.588 671.626 428.69C671.552 428.698 671.482 428.724 671.419 428.764C671.357 428.804 671.305 428.858 671.267 428.922C671.212 429.081 671.212 429.254 671.27 429.412C671.291 429.692 671.452 429.991 671.902 429.889Z" fill="#01ECA5"/>
<g style="mix-blend-mode:screen">
<path d="M619.216 384.054C618.979 384.109 618.734 384.117 618.494 384.077C618.255 384.038 618.025 383.951 617.819 383.822C617.612 383.694 617.433 383.526 617.292 383.328C617.151 383.131 617.049 382.907 616.994 382.67C616.939 382.433 616.932 382.188 616.971 381.948C617.011 381.709 617.098 381.479 617.226 381.273C617.355 381.066 617.523 380.887 617.721 380.746C617.918 380.605 618.142 380.503 618.379 380.448C618.857 380.337 619.36 380.421 619.776 380.68C620.193 380.94 620.489 381.354 620.6 381.833C620.711 382.311 620.628 382.814 620.369 383.23C620.109 383.647 619.694 383.943 619.216 384.054Z" fill="#FF7EB8"/>
</g>
<path d="M618.94 382.856C619.018 382.842 619.091 382.811 619.156 382.765C619.22 382.719 619.273 382.659 619.311 382.59C619.349 382.52 619.371 382.444 619.375 382.365C619.38 382.286 619.367 382.207 619.337 382.134C619.275 381.854 619.104 381.545 618.654 381.657C618.58 381.663 618.508 381.687 618.446 381.728C618.383 381.768 618.331 381.824 618.296 381.889C618.24 382.048 618.241 382.221 618.298 382.379C618.304 382.455 618.326 382.528 618.362 382.595C618.399 382.661 618.45 382.719 618.51 382.764C618.571 382.809 618.641 382.841 618.715 382.857C618.789 382.872 618.866 382.872 618.94 382.856Z" fill="#01ECA5"/>
<g style="mix-blend-mode:screen">
<path d="M617.282 325.273C616.803 325.384 616.301 325.301 615.884 325.041C615.467 324.782 615.171 324.367 615.06 323.889C614.949 323.411 615.032 322.908 615.292 322.492C615.551 322.075 615.966 321.778 616.444 321.667C616.922 321.556 617.425 321.64 617.842 321.899C618.258 322.159 618.555 322.573 618.666 323.052C618.777 323.53 618.693 324.032 618.434 324.449C618.174 324.866 617.76 325.162 617.282 325.273Z" fill="#FF7EB8"/>
</g>
<path d="M617.006 324.065C617.446 323.963 617.464 323.622 617.403 323.343C617.341 323.063 617.17 322.764 616.73 322.866C616.655 322.873 616.582 322.897 616.518 322.938C616.454 322.978 616.4 323.033 616.361 323.098C616.31 323.257 616.311 323.429 616.364 323.588C616.37 323.663 616.392 323.737 616.428 323.803C616.465 323.87 616.515 323.927 616.576 323.973C616.637 324.018 616.707 324.049 616.781 324.065C616.855 324.081 616.932 324.081 617.006 324.065Z" fill="#01ECA5"/>
<g style="mix-blend-mode:screen">
<path d="M584.657 371.863C584.179 371.974 583.676 371.89 583.259 371.631C582.842 371.371 582.546 370.957 582.435 370.478C582.324 370 582.407 369.498 582.667 369.081C582.926 368.664 583.341 368.368 583.819 368.257C584.297 368.146 584.8 368.229 585.217 368.489C585.633 368.748 585.93 369.163 586.041 369.641C586.152 370.119 586.069 370.622 585.809 371.038C585.549 371.455 585.135 371.752 584.657 371.863Z" fill="#FF7EB8"/>
</g>
<path d="M584.371 370.664C584.45 370.652 584.525 370.621 584.59 370.576C584.655 370.53 584.709 370.47 584.748 370.401C584.787 370.332 584.81 370.254 584.815 370.175C584.821 370.096 584.808 370.016 584.778 369.942C584.716 369.663 584.545 369.353 584.095 369.456C584.021 369.465 583.95 369.492 583.887 369.534C583.825 369.576 583.773 369.632 583.737 369.697C583.68 369.856 583.681 370.029 583.739 370.187C583.76 370.457 583.932 370.776 584.371 370.664Z" fill="#01ECA5"/>
<g style="mix-blend-mode:screen">
<path d="M560.587 338.939C558.259 339.471 557.422 335.865 559.749 335.333C560.227 335.222 560.73 335.306 561.147 335.565C561.563 335.825 561.86 336.239 561.971 336.718C562.082 337.196 561.999 337.698 561.739 338.115C561.479 338.532 561.065 338.828 560.587 338.939Z" fill="#FF7EB8"/>
</g>
<path d="M560.31 337.731C560.75 337.629 560.768 337.288 560.707 337.009C560.702 336.929 560.679 336.851 560.64 336.781C560.601 336.711 560.547 336.651 560.481 336.605C560.416 336.559 560.34 336.529 560.261 336.516C560.182 336.503 560.101 336.509 560.024 336.532C559.951 336.54 559.88 336.566 559.818 336.606C559.756 336.646 559.704 336.7 559.666 336.764C559.61 336.923 559.611 337.096 559.668 337.254C559.674 337.329 559.696 337.403 559.732 337.469C559.769 337.536 559.82 337.593 559.881 337.639C559.941 337.684 560.011 337.715 560.085 337.731C560.16 337.747 560.236 337.747 560.31 337.731Z" fill="#01ECA5"/>
<g style="mix-blend-mode:screen">
<path d="M636.874 489.91C636.41 489.98 635.937 489.872 635.549 489.608C635.161 489.344 634.888 488.943 634.783 488.486C634.678 488.028 634.751 487.549 634.985 487.142C635.219 486.736 635.598 486.433 636.046 486.294C636.51 486.224 636.984 486.332 637.371 486.596C637.759 486.86 638.033 487.261 638.137 487.718C638.242 488.175 638.17 488.655 637.936 489.062C637.701 489.468 637.322 489.771 636.874 489.91Z" fill="#FF7EB8"/>
</g>
<path d="M636.596 488.701C636.674 488.687 636.748 488.656 636.812 488.61C636.876 488.564 636.929 488.504 636.967 488.435C637.005 488.366 637.027 488.289 637.031 488.21C637.036 488.131 637.023 488.052 636.993 487.979C636.931 487.7 636.76 487.4 636.321 487.503C636.179 487.555 636.061 487.657 635.99 487.789C635.918 487.922 635.897 488.076 635.931 488.223C635.965 488.37 636.051 488.5 636.173 488.588C636.296 488.676 636.446 488.716 636.596 488.701Z" fill="#01ECA5"/>
<g style="mix-blend-mode:screen">
<path d="M738.085 473.317C737.607 473.428 737.105 473.345 736.688 473.085C736.271 472.826 735.975 472.411 735.864 471.933C735.753 471.455 735.836 470.952 736.096 470.536C736.355 470.119 736.77 469.822 737.248 469.711C737.726 469.6 738.229 469.684 738.645 469.943C739.062 470.203 739.359 470.617 739.47 471.096C739.581 471.574 739.497 472.076 739.238 472.493C738.978 472.91 738.564 473.206 738.085 473.317Z" fill="#FF7EB8"/>
</g>
<path d="M737.807 472.118C738.247 472.016 738.265 471.666 738.203 471.386C738.142 471.107 737.971 470.808 737.531 470.91C737.281 470.971 737.202 471.071 737.162 471.152C737.111 471.311 737.112 471.483 737.165 471.642C737.17 471.717 737.193 471.791 737.229 471.857C737.266 471.923 737.316 471.981 737.377 472.026C737.438 472.072 737.508 472.103 737.582 472.119C737.656 472.135 737.733 472.135 737.807 472.118Z" fill="#01ECA5"/>
<g style="mix-blend-mode:screen">
<path d="M596.872 475.304C596.396 475.408 595.899 475.32 595.488 475.059C595.077 474.798 594.785 474.385 594.676 473.911C594.567 473.436 594.65 472.937 594.906 472.523C595.162 472.109 595.571 471.813 596.045 471.698C596.52 471.595 597.018 471.683 597.429 471.944C597.84 472.205 598.132 472.618 598.241 473.092C598.35 473.567 598.267 474.065 598.011 474.48C597.755 474.894 597.345 475.19 596.872 475.304Z" fill="#FF7EB8"/>
</g>
<path d="M596.596 474.096C597.036 473.994 597.054 473.654 596.992 473.374C596.931 473.094 596.76 472.795 596.32 472.897C596.245 472.904 596.172 472.928 596.108 472.969C596.044 473.009 595.99 473.064 595.951 473.129C595.9 473.288 595.901 473.46 595.954 473.619C595.96 473.695 595.981 473.768 596.018 473.834C596.055 473.901 596.105 473.959 596.166 474.004C596.227 474.049 596.297 474.081 596.371 474.096C596.445 474.112 596.522 474.112 596.596 474.096Z" fill="#01ECA5"/>
<g style="mix-blend-mode:screen">
<path d="M496.856 505.052C496.38 505.155 495.882 505.067 495.471 504.806C495.06 504.545 494.768 504.132 494.659 503.658C494.55 503.183 494.633 502.685 494.889 502.27C495.145 501.856 495.555 501.56 496.028 501.446C496.504 501.342 497.001 501.43 497.412 501.691C497.824 501.952 498.115 502.365 498.224 502.84C498.333 503.314 498.251 503.813 497.994 504.227C497.738 504.641 497.329 504.937 496.856 505.052Z" fill="#FF7EB8"/>
</g>
<path d="M496.58 503.843C497.029 503.741 497.047 503.401 496.986 503.121C496.981 503.041 496.959 502.963 496.92 502.893C496.881 502.823 496.826 502.763 496.761 502.717C496.695 502.671 496.62 502.641 496.541 502.628C496.461 502.616 496.38 502.621 496.304 502.644C496.231 502.655 496.161 502.681 496.099 502.721C496.037 502.761 495.984 502.814 495.945 502.876C495.889 503.035 495.89 503.208 495.947 503.366C495.969 503.646 496.14 503.955 496.58 503.843Z" fill="#01ECA5"/>
<g style="mix-blend-mode:screen">
<path d="M506.067 452.246C505.592 452.35 505.094 452.261 504.683 452C504.272 451.74 503.98 451.327 503.871 450.852C503.762 450.378 503.845 449.879 504.101 449.465C504.357 449.051 504.767 448.755 505.24 448.64C505.716 448.537 506.213 448.625 506.624 448.886C507.036 449.147 507.327 449.56 507.436 450.034C507.545 450.509 507.462 451.007 507.206 451.421C506.95 451.836 506.541 452.132 506.067 452.246Z" fill="#FF7EB8"/>
</g>
<path d="M505.793 451.047C505.95 451.008 506.086 450.909 506.171 450.771C506.256 450.632 506.283 450.466 506.247 450.308C506.211 450.15 506.114 450.012 505.978 449.924C505.841 449.836 505.676 449.806 505.517 449.839C505.444 449.849 505.374 449.875 505.312 449.915C505.25 449.955 505.197 450.008 505.158 450.071C505.102 450.229 505.103 450.402 505.16 450.561C505.212 450.84 505.353 451.16 505.793 451.047Z" fill="#01ECA5"/>
<g style="mix-blend-mode:screen">
<path d="M437.64 391.068C437.175 391.144 436.698 391.04 436.306 390.777C435.914 390.514 435.637 390.112 435.53 389.652C435.424 389.193 435.496 388.71 435.732 388.301C435.969 387.893 436.351 387.589 436.803 387.452C437.268 387.377 437.745 387.481 438.137 387.744C438.529 388.007 438.806 388.409 438.913 388.869C439.019 389.328 438.947 389.811 438.711 390.22C438.474 390.628 438.092 390.932 437.64 391.068Z" fill="#FF7EB8"/>
</g>
<path d="M437.364 389.86C437.438 389.851 437.508 389.826 437.571 389.786C437.633 389.746 437.685 389.692 437.723 389.628C437.779 389.469 437.778 389.296 437.721 389.138C437.716 389.058 437.693 388.98 437.654 388.91C437.615 388.84 437.561 388.78 437.495 388.734C437.429 388.688 437.354 388.658 437.275 388.645C437.196 388.633 437.115 388.638 437.038 388.661C436.965 388.67 436.894 388.695 436.832 388.735C436.769 388.775 436.717 388.829 436.679 388.893C436.624 389.052 436.624 389.225 436.682 389.383C436.686 389.463 436.709 389.541 436.748 389.611C436.787 389.681 436.842 389.741 436.907 389.787C436.973 389.833 437.048 389.863 437.127 389.876C437.206 389.888 437.287 389.883 437.364 389.86Z" fill="#01ECA5"/>
<g style="mix-blend-mode:screen">
<path d="M365.467 483.401C364.991 483.504 364.494 483.416 364.082 483.155C363.671 482.894 363.38 482.481 363.271 482.007C363.162 481.532 363.244 481.034 363.501 480.619C363.757 480.205 364.166 479.909 364.639 479.795C365.115 479.691 365.613 479.779 366.024 480.04C366.435 480.301 366.727 480.714 366.836 481.189C366.944 481.663 366.862 482.162 366.606 482.576C366.349 482.99 365.94 483.286 365.467 483.401Z" fill="#FF7EB8"/>
</g>
<path d="M365.193 482.202C365.642 482.1 365.661 481.75 365.599 481.47C365.595 481.39 365.572 481.312 365.533 481.242C365.494 481.172 365.439 481.112 365.374 481.066C365.308 481.02 365.233 480.99 365.154 480.977C365.074 480.965 364.994 480.97 364.917 480.993C364.842 481.003 364.771 481.03 364.709 481.072C364.646 481.114 364.595 481.17 364.558 481.235C364.501 481.39 364.502 481.561 364.56 481.715C364.582 481.995 364.753 482.304 365.193 482.202Z" fill="#01ECA5"/>
<g style="mix-blend-mode:screen">
<path d="M350.646 426.972C350.17 427.076 349.672 426.987 349.261 426.726C348.85 426.465 348.558 426.053 348.449 425.578C348.34 425.104 348.423 424.605 348.679 424.191C348.936 423.777 349.345 423.48 349.818 423.366C350.294 423.263 350.791 423.351 351.203 423.612C351.614 423.873 351.905 424.285 352.014 424.76C352.123 425.235 352.041 425.733 351.784 426.147C351.528 426.561 351.119 426.858 350.646 426.972Z" fill="#FF7EB8"/>
</g>
<path d="M350.369 425.774C350.818 425.671 350.836 425.321 350.775 425.042C350.714 424.762 350.542 424.463 350.093 424.565C350.018 424.574 349.947 424.601 349.884 424.643C349.822 424.685 349.771 424.741 349.734 424.807C349.677 424.962 349.678 425.132 349.736 425.287C349.757 425.567 349.919 425.916 350.369 425.774Z" fill="#01ECA5"/>
<g style="mix-blend-mode:screen">
<path d="M285.692 357.048C285.216 357.151 284.718 357.063 284.307 356.802C283.896 356.541 283.604 356.128 283.495 355.654C283.386 355.179 283.469 354.681 283.725 354.267C283.981 353.852 284.391 353.556 284.864 353.442C285.34 353.338 285.837 353.426 286.248 353.687C286.66 353.948 286.951 354.361 287.06 354.836C287.169 355.31 287.086 355.809 286.83 356.223C286.574 356.637 286.165 356.933 285.692 357.048Z" fill="#FF7EB8"/>
</g>
<path d="M285.417 355.849C285.495 355.837 285.57 355.806 285.635 355.761C285.7 355.715 285.754 355.655 285.792 355.585C285.831 355.516 285.852 355.438 285.856 355.359C285.86 355.279 285.845 355.2 285.813 355.127C285.752 354.847 285.59 354.538 285.141 354.65C284.691 354.762 284.673 355.092 284.734 355.372C284.796 355.652 284.967 355.951 285.417 355.849Z" fill="#01ECA5"/>
<g style="mix-blend-mode:screen">
<path d="M152.701 429.196C152.225 429.299 151.728 429.211 151.317 428.95C150.906 428.689 150.614 428.276 150.505 427.802C150.396 427.327 150.479 426.829 150.735 426.415C150.991 426 151.4 425.704 151.874 425.59C152.35 425.486 152.847 425.575 153.258 425.836C153.669 426.096 153.961 426.509 154.07 426.984C154.179 427.458 154.096 427.957 153.84 428.371C153.584 428.785 153.175 429.081 152.701 429.196Z" fill="#FF7EB8"/>
</g>
<path d="M152.427 427.997C152.505 427.983 152.578 427.952 152.642 427.906C152.706 427.859 152.759 427.8 152.797 427.73C152.835 427.661 152.857 427.584 152.862 427.506C152.866 427.427 152.853 427.348 152.823 427.275C152.762 426.995 152.591 426.686 152.151 426.798C151.712 426.91 151.683 427.241 151.745 427.52C151.749 427.6 151.772 427.678 151.811 427.748C151.85 427.818 151.905 427.878 151.97 427.924C152.036 427.97 152.111 428 152.19 428.013C152.269 428.026 152.35 428.02 152.427 427.997Z" fill="#01ECA5"/>
<g style="mix-blend-mode:screen">
<path d="M202.668 489.743C202.192 489.847 201.695 489.758 201.284 489.497C200.872 489.236 200.581 488.824 200.472 488.349C200.363 487.875 200.446 487.376 200.702 486.962C200.958 486.548 201.367 486.251 201.841 486.137C202.316 486.034 202.814 486.122 203.225 486.383C203.636 486.644 203.928 487.056 204.037 487.531C204.146 488.006 204.063 488.504 203.807 488.918C203.551 489.332 203.141 489.629 202.668 489.743Z" fill="#FF7EB8"/>
</g>
<path d="M202.393 488.545C202.535 488.492 202.652 488.39 202.724 488.258C202.796 488.125 202.817 487.971 202.783 487.824C202.749 487.677 202.663 487.547 202.54 487.459C202.418 487.371 202.267 487.331 202.117 487.346C202.044 487.354 201.973 487.379 201.911 487.42C201.848 487.46 201.796 487.514 201.758 487.578C201.703 487.736 201.703 487.909 201.761 488.068C201.782 488.338 201.953 488.637 202.393 488.545Z" fill="#01ECA5"/>
<g style="mix-blend-mode:screen">
<path d="M261.677 491.426C261.201 491.529 260.704 491.441 260.292 491.18C259.881 490.919 259.59 490.507 259.481 490.032C259.372 489.557 259.454 489.059 259.711 488.645C259.967 488.231 260.376 487.934 260.849 487.82C261.325 487.716 261.823 487.805 262.234 488.066C262.645 488.327 262.937 488.739 263.046 489.214C263.154 489.689 263.072 490.187 262.816 490.601C262.559 491.015 262.15 491.312 261.677 491.426Z" fill="#FF7EB8"/>
</g>
<path d="M261.402 490.227C261.481 490.213 261.556 490.182 261.621 490.135C261.686 490.088 261.74 490.028 261.779 489.958C261.818 489.888 261.841 489.81 261.846 489.73C261.851 489.65 261.838 489.57 261.809 489.495C261.737 489.226 261.576 488.916 261.126 489.019C261.053 489.029 260.983 489.055 260.921 489.095C260.859 489.135 260.807 489.188 260.767 489.25C260.706 489.408 260.707 489.583 260.77 489.74C260.791 490.02 260.953 490.349 261.402 490.227Z" fill="#01ECA5"/>
<g style="mix-blend-mode:screen">
<path d="M34.5069 450.711C34.0311 450.815 33.5336 450.726 33.1225 450.465C32.7113 450.204 32.4196 449.792 32.3107 449.317C32.2018 448.843 32.2844 448.344 32.5406 447.93C32.7968 447.516 33.206 447.219 33.6794 447.105C34.1552 447.002 34.6527 447.09 35.0638 447.351C35.475 447.612 35.7667 448.024 35.8756 448.499C35.9845 448.974 35.9019 449.472 35.6457 449.886C35.3895 450.3 34.9803 450.597 34.5069 450.711Z" fill="#FF7EB8"/>
</g>
<path d="M34.2016 449.513C34.3431 449.46 34.4608 449.358 34.5325 449.226C34.6042 449.093 34.6252 448.939 34.5913 448.792C34.5575 448.645 34.4713 448.515 34.3488 448.427C34.2262 448.339 34.0759 448.299 33.9258 448.314C33.8521 448.322 33.7814 448.347 33.7191 448.388C33.6569 448.428 33.6048 448.482 33.5669 448.546C33.5112 448.704 33.5121 448.877 33.5693 449.036C33.6206 449.305 33.7921 449.615 34.2016 449.513Z" fill="#01ECA5"/>
<g style="mix-blend-mode:screen">
<path d="M607.064 214.662C606.588 214.765 606.09 214.677 605.679 214.416C605.268 214.155 604.976 213.742 604.867 213.268C604.758 212.793 604.841 212.295 605.097 211.881C605.353 211.467 605.763 211.17 606.236 211.056C606.712 210.952 607.209 211.041 607.62 211.302C608.032 211.563 608.323 211.975 608.432 212.45C608.541 212.924 608.459 213.423 608.202 213.837C607.946 214.251 607.537 214.547 607.064 214.662Z" fill="#FF7EB8"/>
</g>
<path d="M606.796 213.453C606.875 213.441 606.95 213.411 607.015 213.365C607.08 213.319 607.134 213.259 607.172 213.19C607.21 213.12 607.232 213.042 607.236 212.963C607.239 212.883 607.225 212.804 607.193 212.731C607.131 212.452 606.96 212.142 606.52 212.245C606.271 212.306 606.191 212.406 606.152 212.486C606.1 212.646 606.101 212.817 606.154 212.976C606.16 213.052 606.182 213.125 606.218 213.192C606.255 213.258 606.306 213.316 606.366 213.361C606.427 213.406 606.497 213.438 606.571 213.454C606.646 213.47 606.722 213.469 606.796 213.453Z" fill="#01ECA5"/>
<g style="mix-blend-mode:screen">
<path d="M662.543 130.231C662.065 130.342 661.563 130.258 661.146 129.999C660.729 129.739 660.433 129.325 660.322 128.847C660.211 128.368 660.294 127.866 660.554 127.449C660.813 127.032 661.228 126.736 661.706 126.625C662.184 126.514 662.687 126.597 663.103 126.857C663.52 127.116 663.817 127.531 663.928 128.009C664.039 128.487 663.955 128.99 663.696 129.407C663.436 129.823 663.022 130.12 662.543 130.231Z" fill="#FF7EB8"/>
</g>
<path d="M662.256 129.032C662.506 128.971 662.585 128.871 662.625 128.791C662.677 128.635 662.676 128.466 662.623 128.311C662.561 128.031 662.39 127.722 661.94 127.824C661.866 127.833 661.794 127.86 661.732 127.902C661.67 127.944 661.618 128 661.581 128.066C661.525 128.224 661.526 128.398 661.584 128.556C661.645 128.825 661.817 129.135 662.256 129.032Z" fill="#01ECA5"/>
<g style="mix-blend-mode:screen">
<path d="M654.128 65.431C653.662 65.5065 653.185 65.4023 652.793 65.1393C652.401 64.8764 652.124 64.4744 652.018 64.0147C651.911 63.5551 651.983 63.0721 652.22 62.6637C652.456 62.2553 652.838 61.9519 653.29 61.815C653.756 61.7394 654.233 61.8437 654.625 62.1066C655.016 62.3696 655.293 62.7716 655.4 63.2313C655.506 63.6909 655.434 64.1738 655.198 64.5823C654.962 64.9907 654.579 65.2941 654.128 65.431Z" fill="#FF7EB8"/>
</g>
<path d="M653.852 64.2023C653.996 64.1506 654.115 64.0479 654.187 63.9138C654.26 63.7797 654.28 63.6235 654.245 63.4753C654.21 63.327 654.121 63.1969 653.996 63.1099C653.871 63.023 653.718 62.9851 653.566 63.0037C653.493 63.012 653.422 63.0372 653.36 63.0775C653.298 63.1177 653.245 63.1717 653.208 63.2355C653.152 63.3942 653.153 63.5673 653.21 63.7254C653.216 63.8011 653.238 63.8745 653.274 63.9409C653.311 64.0073 653.362 64.065 653.422 64.1103C653.483 64.1555 653.553 64.1871 653.627 64.203C653.702 64.2188 653.778 64.2186 653.852 64.2023Z" fill="#01ECA5"/>
<g style="mix-blend-mode:screen">
<path d="M741.095 4.66703C740.619 4.77051 740.121 4.68219 739.71 4.42123C739.299 4.16027 739.008 3.74773 738.899 3.27309C738.79 2.79845 738.872 2.30001 739.128 1.88589C739.385 1.47177 739.794 1.17538 740.267 1.06102C740.743 0.957541 741.241 1.04586 741.652 1.30682C742.063 1.56778 742.355 1.98033 742.464 2.45496C742.572 2.9296 742.49 3.42805 742.234 3.84216C741.977 4.25628 741.568 4.55267 741.095 4.66703Z" fill="#FF7EB8"/>
</g>
<path d="M740.816 3.46842C740.895 3.45568 740.969 3.42541 741.034 3.37986C741.1 3.3343 741.154 3.27463 741.193 3.20527C741.232 3.13591 741.255 3.05865 741.26 2.97921C741.265 2.89978 741.252 2.82022 741.222 2.74643C741.218 2.66646 741.195 2.58857 741.156 2.51863C741.117 2.44869 741.063 2.38852 740.997 2.34264C740.931 2.29676 740.856 2.26637 740.777 2.25374C740.698 2.24112 740.617 2.24659 740.54 2.26975C740.466 2.27562 740.394 2.29987 740.331 2.34032C740.269 2.38077 740.217 2.43616 740.181 2.5015C740.126 2.66023 740.126 2.83331 740.184 2.99149C740.205 3.26139 740.376 3.57056 740.816 3.46842Z" fill="#01ECA5"/>
<g style="mix-blend-mode:screen">
<path d="M735.697 108.504C735.219 108.615 734.716 108.532 734.299 108.272C733.883 108.013 733.586 107.598 733.475 107.12C733.364 106.642 733.447 106.139 733.707 105.723C733.967 105.306 734.381 105.009 734.859 104.898C735.096 104.843 735.341 104.836 735.581 104.875C735.821 104.915 736.05 105.002 736.257 105.13C736.463 105.259 736.642 105.427 736.783 105.624C736.925 105.822 737.026 106.046 737.081 106.283C737.136 106.519 737.144 106.765 737.104 107.004C737.064 107.244 736.977 107.474 736.849 107.68C736.72 107.886 736.552 108.065 736.355 108.207C736.157 108.348 735.934 108.449 735.697 108.504Z" fill="#FF7EB8"/>
</g>
<path d="M735.422 107.296C735.499 107.282 735.573 107.251 735.637 107.205C735.701 107.159 735.754 107.099 735.792 107.03C735.83 106.96 735.852 106.884 735.856 106.805C735.861 106.726 735.848 106.647 735.818 106.574C735.757 106.304 735.585 105.995 735.146 106.097C735.004 106.149 734.887 106.251 734.815 106.384C734.743 106.517 734.722 106.671 734.756 106.818C734.79 106.965 734.876 107.095 734.999 107.183C735.121 107.271 735.271 107.311 735.422 107.296Z" fill="#01ECA5"/>
<g style="mix-blend-mode:screen">
<path d="M518.283 352.345C517.804 352.457 517.302 352.373 516.885 352.114C516.468 351.854 516.172 351.439 516.061 350.961C515.95 350.483 516.033 349.98 516.293 349.564C516.552 349.147 516.967 348.851 517.445 348.74C517.923 348.628 518.426 348.712 518.843 348.971C519.259 349.231 519.556 349.646 519.667 350.124C519.778 350.602 519.694 351.105 519.435 351.521C519.175 351.938 518.761 352.234 518.283 352.345Z" fill="#FF7EB8"/>
</g>
<path d="M518.007 351.097C518.084 351.083 518.158 351.052 518.222 351.006C518.286 350.959 518.339 350.9 518.377 350.83C518.415 350.761 518.437 350.684 518.442 350.606C518.446 350.527 518.433 350.448 518.403 350.375C518.342 350.105 518.17 349.796 517.731 349.898C517.589 349.95 517.472 350.052 517.4 350.185C517.328 350.318 517.307 350.472 517.341 350.619C517.375 350.766 517.461 350.896 517.584 350.983C517.706 351.071 517.856 351.112 518.007 351.097Z" fill="#01ECA5"/>
</g>
</svg>
