<svg width="15" height="13" viewBox="0 0 15 13" fill="none" xmlns="http://www.w3.org/2000/svg">
<path d="M14.5293 2.00639L12.7214 0.100013C12.6607 0.0359843 12.5782 0 12.4922 0C12.4062 0 12.3237 0.0359843 12.263 0.100013L4.62743 8.13404C4.56669 8.19807 4.48422 8.23405 4.39821 8.23405C4.3122 8.23405 4.22973 8.19807 4.16899 8.13404L2.36111 6.22766C2.30037 6.16363 2.2179 6.12765 2.13189 6.12765C2.04588 6.12765 1.96341 6.16363 1.90267 6.22766L0.0947925 8.13404C-0.0315975 8.26697 -0.0315975 8.48246 0.0947925 8.6154L4.16899 12.9C4.22973 12.964 4.3122 13 4.39821 13C4.48422 13 4.56669 12.964 4.62743 12.9L14.5293 2.48299C14.6527 2.35061 14.6527 2.13876 14.5293 2.00639Z" fill="#7854F7"/>
</svg>
