<svg width="40" height="25" viewBox="0 0 40 25" fill="none" xmlns="http://www.w3.org/2000/svg">
<g clip-path="url(#clip0)">
<path fill-rule="evenodd" clip-rule="evenodd" d="M14.4414 21.952H25.1471V2.62744H14.4414V21.952Z" fill="#FF5F00"/>
<path fill-rule="evenodd" clip-rule="evenodd" d="M15.1222 12.29C15.1222 8.36946 16.9497 4.87775 19.7954 2.62766C17.714 0.981831 15.0882 0 12.2341 0C5.47724 0 0 5.50249 0 12.29C0 19.0774 5.47724 24.5799 12.2341 24.5799C15.0882 24.5799 17.714 23.5981 19.7954 21.9523C16.9497 19.7018 15.1222 16.2105 15.1222 12.29Z" fill="#EB001B"/>
<path fill-rule="evenodd" clip-rule="evenodd" d="M39.2102 19.9056V19.4287H39.0862L38.9438 19.7568L38.801 19.4287H38.677V19.9056H38.7643V19.5458L38.8982 19.8561H38.989L39.1229 19.5451V19.9056H39.2102ZM38.4248 19.9056V19.51H38.5839V19.4294H38.1794V19.51H38.3381V19.9056H38.4248ZM39.5922 12.29C39.5922 19.0774 34.1147 24.5799 27.3582 24.5799C24.504 24.5799 21.8779 23.5981 19.7969 21.9523C22.6426 19.7022 24.47 16.2105 24.47 12.29C24.47 8.3698 22.6426 4.87809 19.7969 2.62766C21.8779 0.981831 24.504 0 27.3582 0C34.1147 0 39.5922 5.50249 39.5922 12.29Z" fill="#F79E1B"/>
</g>
<defs>
<clipPath id="clip0">
<rect width="40" height="24.6154" fill="white"/>
</clipPath>
</defs>
</svg>
